{
.appVersion = "3068";
classes = (
{

glyphs = (
{
color = 6;
glyphname = A;
layers = (
{
anchors = (
{
name = bottom;
position = "{229, 0}";
},
{
name = ogonek;
position = "{515, 10}";
},
{
name = top;
position = "{329, 665}";
}
);
layerId = "230F8D9C-4AAC-4C97-935A-A5529CE4A32C";
paths = (
{
closed = 1;
nodes = (
"372 586 LINE SMOOTH",
"364 621 OFFCURVE",
"356 653 OFFCURVE",
"350 688 CURVE",
"307 688 LINE",
"294 653 OFFCURVE",
"279 621 OFFCURVE",
"263 586 CURVE SMOOTH",
"45 100 LINE SMOOTH",
"13 30 OFFCURVE",
"-3 25 OFFCURVE",
"-27 23 CURVE",
"-27 0 LINE",
"141 0 LINE",
"141 23 LINE",
"72 25 OFFCURVE",
"56 31 OFFCURVE",
"87 100 CURVE SMOOTH",
"153 248 LINE SMOOTH",
"164 273 OFFCURVE",
"177 275 OFFCURVE",
"204 275 CURVE SMOOTH",
"336 275 LINE SMOOTH",
"349 275 OFFCURVE",
"362 276 OFFCURVE",
"371 283 CURVE",
"416 100 LINE SMOOTH",
"433 30 OFFCURVE",
"428 25 OFFCURVE",
"381 23 CURVE",
"381 0 LINE",
"574 0 LINE",
"574 23 LINE",
"522 25 OFFCURVE",
"506 30 OFFCURVE",
"489 100 CURVE SMOOTH"
);
},
{
closed = 1;
nodes = (
"204 305 LINE SMOOTH",
"194 305 OFFCURVE",
"185 305 OFFCURVE",
"177 302 CURVE",
"299 576 LINE",
"301 576 LINE",
"360 330 LINE SMOOTH",
"365 309 OFFCURVE",
"358 305 OFFCURVE",
"341 305 CURVE SMOOTH"
);
}
);
width = 587;
},
{
anchors = (
{
name = bottom;
position = "{239, 0}";
},
{
name = ogonek;
position = "{525, 10}";
},
{
name = top;
position = "{339, 665}";
}
);
associatedMasterId = "230F8D9C-4AAC-4C97-935A-A5529CE4A32C";
layerId = "DD80A01A-FC47-41A1-94D9-778CCAC177B0";
name = "Jun 5 17, 10:52";
paths = (
{
closed = 1;
nodes = (
"151 0 LINE",
"151 23 LINE",
"82 25 OFFCURVE",
"66 30 OFFCURVE",
"97 100 CURVE SMOOTH",
"309 576 LINE",
"311 576 LINE",
"426 100 LINE SMOOTH",
"443 30 OFFCURVE",
"438 25 OFFCURVE",
"391 23 CURVE",
"391 0 LINE",
"584 0 LINE",
"584 23 LINE",
"532 25 OFFCURVE",
"516 30 OFFCURVE",
"499 100 CURVE SMOOTH",
"382 586 LINE SMOOTH",
"374 621 OFFCURVE",
"366 653 OFFCURVE",
"360 688 CURVE",
"317 688 LINE",
"304 653 OFFCURVE",
"289 621 OFFCURVE",
"273 586 CURVE SMOOTH",
"55 100 LINE SMOOTH",
"23 30 OFFCURVE",
"7 25 OFFCURVE",
"-17 23 CURVE",
"-17 0 LINE"
);
},
{
closed = 1;
nodes = (
"176 280 OFFCURVE",
"184 285 OFFCURVE",
"218 285 CURVE",
"345 285 LINE",
"358 285 OFFCURVE",
"372 286 OFFCURVE",
"381 293 CURVE",
"368 344 LINE",
"374 320 OFFCURVE",
"370 315 OFFCURVE",
"350 315 CURVE",
"218 315 LINE",
"207 315 OFFCURVE",
"197 315 OFFCURVE",
"189 311 CURVE",
"157 236 LINE"
);
}
);
width = 607;
},
{
anchors = (
{
name = bottom;
position = "{304, 0}";
},
{
name = ogonek;
position = "{520, 11}";
},
{
name = top;
position = "{314, 665}";
}
);
associatedMasterId = "230F8D9C-4AAC-4C97-935A-A5529CE4A32C";
layerId = "D9C60D4D-6F90-41D8-B857-9CC5EC38ECD5";
name = "Jun 5 17, 10:52";
paths = (
{
closed = 1;
nodes = (
"213 0 LINE",
"213 23 LINE",
"124 26 OFFCURVE",
"114 48 OFFCURVE",
"133 100 CURVE SMOOTH",
"302 576 LINE",
"304 576 LINE",
"461 100 LINE SMOOTH",
"484 30 OFFCURVE",
"468 26 OFFCURVE",
"399 23 CURVE",
"399 0 LINE",
"634 0 LINE",
"634 23 LINE",
"580 26 OFFCURVE",
"564 30 OFFCURVE",
"541 100 CURVE SMOOTH",
"379 586 LINE SMOOTH",
"367 621 OFFCURVE",
"355 653 OFFCURVE",
"346 688 CURVE",
"298 688 LINE",
"289 653 OFFCURVE",
"276 621 OFFCURVE",
"263 586 CURVE SMOOTH",
"88 100 LINE SMOOTH",
"69 48 OFFCURVE",
"46 26 OFFCURVE",
"3 23 CURVE",
"3 0 LINE"
);
},
{
closed = 1;
nodes = (
"195 275 OFFCURVE",
"203 280 OFFCURVE",
"237 280 CURVE",
"363 280 LINE",
"377 280 OFFCURVE",
"392 281 OFFCURVE",
"399 288 CURVE",
"381 344 LINE",
"389 320 OFFCURVE",
"385 315 OFFCURVE",
"365 315 CURVE",
"235 315 LINE",
"223 315 OFFCURVE",
"213 315 OFFCURVE",
"207 311 CURVE",
"179 231 LINE"
);
}
);
width = 627;
},
{
anchors = (
{
name = bottom;
position = "{287, 0}";
},
{
name = ogonek;
position = "{499, 10}";
},
{
name = top;
position = "{337, 665}";
}
);
associatedMasterId = "230F8D9C-4AAC-4C97-935A-A5529CE4A32C";
layerId = "685732C9-B035-474C-96F2-CB6BA26EF265";
name = "Jun 5 17, 10:52";
paths = (
{
closed = 1;
nodes = (
"190 0 LINE",
"190 23 LINE",
"131 26 OFFCURVE",
"111 55 OFFCURVE",
"129 100 CURVE SMOOTH",
"270 460 LINE",
"272 460 LINE",
"415 100 LINE SMOOTH",
"432 58 OFFCURVE",
"431 26 OFFCURVE",
"378 23 CURVE",
"378 0 LINE",
"657 0 LINE",
"657 23 LINE",
"625 26 OFFCURVE",
"613 32 OFFCURVE",
"586 100 CURVE SMOOTH",
"394 586 LINE SMOOTH",
"380 621 OFFCURVE",
"368 653 OFFCURVE",
"359 688 CURVE",
"301 688 LINE",
"292 653 OFFCURVE",
"280 621 OFFCURVE",
"266 586 CURVE SMOOTH",
"74 100 LINE SMOOTH",
"56 55 OFFCURVE",
"37 26 OFFCURVE",
"8 23 CURVE",
"8 0 LINE"
);
},
{
closed = 1;
nodes = (
"178 227 OFFCURVE",
"186 232 OFFCURVE",
"220 232 CURVE SMOOTH",
"324 232 LINE SMOOTH",
"338 232 OFFCURVE",
"353 233 OFFCURVE",
"360 240 CURVE",
"335 304 LINE",
"345 280 OFFCURVE",
"339 275 OFFCURVE",
"319 275 CURVE",
"224 275 LINE",
"212 275 OFFCURVE",
"202 275 OFFCURVE",
"196 271 CURVE",
"161 183 LINE"
);
}
);
width = 664;
},
{
associatedMasterId = "230F8D9C-4AAC-4C97-935A-A5529CE4A32C";
layerId = "80628BE6-A8FB-480E-92B8-7C52D39AD99C";
width = 600;
}
);
leftKerningGroup = A;
rightKerningGroup = A;
unicode = 0041;
},
{
color = 3;
glyphname = Aogonek;
layers = (
{
anchors = (
{
name = _ogonek;
position = "{477, 0}";
},
{
name = bottom;
position = "{269, 0}";
},
{
name = ogonek;
position = "{515, 10}";
},
{
name = top;
position = "{329, 665}";
}
);
components = (
{
name = _com_ogonek_A;
transform = "{1, 0, 0, 1, 327, 0}";
}
);
guideLines = (
{
position = "{-40, 7}";
}
);
layerId = "230F8D9C-4AAC-4C97-935A-A5529CE4A32C";
paths = (
{
closed = 1;
nodes = (
"372 586 LINE SMOOTH",
"364 621 OFFCURVE",
"356 653 OFFCURVE",
"350 688 CURVE",
"307 688 LINE",
"294 653 OFFCURVE",
"279 621 OFFCURVE",
"263 586 CURVE SMOOTH",
"45 100 LINE SMOOTH",
"13 30 OFFCURVE",
"-3 25 OFFCURVE",
"-27 23 CURVE",
"-27 0 LINE",
"141 0 LINE",
"141 23 LINE",
"72 25 OFFCURVE",
"56 31 OFFCURVE",
"87 100 CURVE SMOOTH",
"153 248 LINE SMOOTH",
"164 273 OFFCURVE",
"177 275 OFFCURVE",
"204 275 CURVE SMOOTH",
"337 275 LINE SMOOTH",
"350 275 OFFCURVE",
"363 276 OFFCURVE",
"372 283 CURVE",
"440 0 LINE",
"443 -13 LINE",
"472 0 LINE",
"572 0 LINE",
"572 23 LINE",
"520 25 OFFCURVE",
"504 30 OFFCURVE",
"487 100 CURVE SMOOTH"
);
},
{
closed = 1;
nodes = (
"204 305 LINE SMOOTH",
"194 305 OFFCURVE",
"185 305 OFFCURVE",
"177 302 CURVE",
"299 576 LINE",
"301 576 LINE",
"361 330 LINE SMOOTH",
"366 309 OFFCURVE",
"359 305 OFFCURVE",
"342 305 CURVE SMOOTH"
);
}
);
width = 585;
},
{
associatedMasterId = "230F8D9C-4AAC-4C97-935A-A5529CE4A32C";
layerId = "80628BE6-A8FB-480E-92B8-7C52D39AD99C";
width = 600;
}
);
leftKerningGroup = A;
leftMetricsKey = "=A";
rightKerningGroup = A;
rightMetricsKey = "=A";
unicode = 0104;
},
{
color = 6;
glyphname = AE;
layers = (
{
anchors = (
{
name = bottom;
position = "{-27, 0}";
},
{
name = ogonek;
position = "{219, 10}";
},
{
name = top;
position = "{563, 665}";
},
{
name = topleft;
position = "{301, 665}";
}
);
layerId = "230F8D9C-4AAC-4C97-935A-A5529CE4A32C";
paths = (
{
closed = 1;
nodes = (
"761 85 OFFCURVE",
"728 30 OFFCURVE",
"628 30 CURVE SMOOTH",
"514 30 LINE SMOOTH",
"454 30 OFFCURVE",
"438 35 OFFCURVE",
"443 100 CURVE SMOOTH",
"458 311 LINE SMOOTH",
"461 349 OFFCURVE",
"473 358 OFFCURVE",
"510 358 CURVE SMOOTH",
"625 358 LINE SMOOTH",
"673 358 OFFCURVE",
"681 343 OFFCURVE",
"681 285 CURVE",
"704 285 LINE",
"716 455 LINE",
"693 455 LINE",
"688 411 OFFCURVE",
"665 388 OFFCURVE",
"625 388 CURVE SMOOTH",
"510 388 LINE SMOOTH",
"490 388 OFFCURVE",
"474 386 OFFCURVE",
"463 378 CURVE",
"475 565 LINE SMOOTH",
"479 630 OFFCURVE",
"485 635 OFFCURVE",
"524 635 CURVE SMOOTH",
"614 635 LINE SMOOTH",
"710 635 OFFCURVE",
"720 595 OFFCURVE",
"720 525 CURVE",
"743 525 LINE",
"752 665 LINE",
"314 665 LINE",
"314 642 LINE",
"351 640 OFFCURVE",
"379 638 OFFCURVE",
"394 620 CURVE",
"55 100 LINE SMOOTH",
"10 31 OFFCURVE",
"-3 25 OFFCURVE",
"-27 23 CURVE",
"-27 0 LINE",
"148 0 LINE",
"148 23 LINE",
"79 25 OFFCURVE",
"60 32 OFFCURVE",
"104 100 CURVE SMOOTH",
"198 245 LINE SMOOTH",
"212 267 OFFCURVE",
"230 275 OFFCURVE",
"258 275 CURVE SMOOTH",
"350 275 LINE SMOOTH",
"363 275 OFFCURVE",
"376 276 OFFCURVE",
"385 282 CURVE",
"373 100 LINE SMOOTH",
"368 30 OFFCURVE",
"362 25 OFFCURVE",
"324 23 CURVE",
"324 0 LINE",
"776 0 LINE",
"795 155 LINE",
"772 155 LINE"
);
},
{
closed = 1;
nodes = (
"387 309 OFFCURVE",
"377 305 OFFCURVE",
"359 305 CURVE SMOOTH",
"262 305 LINE SMOOTH",
"252 305 OFFCURVE",
"243 305 OFFCURVE",
"235 302 CURVE",
"403 565 LINE",
"405 565 LINE",
"388 329 LINE SMOOTH"
);
}
);
width = 818;
},
{
associatedMasterId = "230F8D9C-4AAC-4C97-935A-A5529CE4A32C";
layerId = "80628BE6-A8FB-480E-92B8-7C52D39AD99C";
width = 600;
}
);
leftKerningGroup = A;
leftMetricsKey = "=A";
rightKerningGroup = E;
rightMetricsKey = "=E";
unicode = 00C6;
},
{
color = 6;
glyphname = B;
layers = (
{
anchors = (
{
name = bottom;
position = "{269, 0}";
},
{
name = top;
position = "{299, 665}";
}
);
guideLines = (
{
angle = 85.6013;
position = "{177, 362}";
},
{
position = "{157, 565}";
}
);
layerId = "230F8D9C-4AAC-4C97-935A-A5529CE4A32C";
paths = (
{
closed = 1;
nodes = (
"279 0 LINE SMOOTH",
"473 0 OFFCURVE",
"562 122 OFFCURVE",
"562 224 CURVE SMOOTH",
"562 327 OFFCURVE",
"463 377 OFFCURVE",
"348 382 CURVE",
"348 384 LINE",
"421 411 OFFCURVE",
"502 456 OFFCURVE",
"502 551 CURVE SMOOTH",
"502 625 OFFCURVE",
"446 670 OFFCURVE",
"304 670 CURVE SMOOTH",
"257 670 OFFCURVE",
"215 665 OFFCURVE",
"129 665 CURVE SMOOTH",
"50 665 LINE",
"50 642 LINE",
"110 639 OFFCURVE",
"126 634 OFFCURVE",
"121 565 CURVE SMOOTH",
"89 100 LINE SMOOTH",
"84 30 OFFCURVE",
"78 25 OFFCURVE",
"40 23 CURVE",
"40 0 LINE"
);
},
{
closed = 1;
nodes = (
"181 33 OFFCURVE",
"155 38 OFFCURVE",
"159 100 CURVE SMOOTH",
"173 299 LINE SMOOTH",
"176 344 OFFCURVE",
"205 356 OFFCURVE",
"268 358 CURVE SMOOTH",
"389 362 OFFCURVE",
"482 325 OFFCURVE",
"482 212 CURVE SMOOTH",
"482 141 OFFCURVE",
"448 33 OFFCURVE",
"250 33 CURVE SMOOTH"
);
},
{
closed = 1;
nodes = (
"191 565 LINE SMOOTH",
"195 622 OFFCURVE",
"212 637 OFFCURVE",
"286 637 CURVE SMOOTH",
"338 637 OFFCURVE",
"422 631 OFFCURVE",
"422 535 CURVE SMOOTH",
"422 423 OFFCURVE",
"318 395 OFFCURVE",
"231 385 CURVE SMOOTH",
"204 382 OFFCURVE",
"190 378 OFFCURVE",
"178 367 CURVE"
);
}
);
width = 595;
},
{
associatedMasterId = "230F8D9C-4AAC-4C97-935A-A5529CE4A32C";
layerId = "80628BE6-A8FB-480E-92B8-7C52D39AD99C";
width = 600;
}
);
leftKerningGroup = H;
leftMetricsKey = "=H";
rightKerningGroup = O;
rightMetricsKey = "=O-10";
unicode = 0042;
},
{
color = 6;
glyphname = Bstroke;
layers = (
{
anchors = (
{
name = bottom;
position = "{269, 0}";
},
{
name = top;
position = "{299, 665}";
}
);
layerId = "230F8D9C-4AAC-4C97-935A-A5529CE4A32C";
paths = (
{
closed = 1;
nodes = (
"279 0 LINE SMOOTH",
"473 0 OFFCURVE",
"562 122 OFFCURVE",
"562 224 CURVE SMOOTH",
"562 327 OFFCURVE",
"463 377 OFFCURVE",
"348 382 CURVE",
"348 384 LINE",
"421 411 OFFCURVE",
"502 456 OFFCURVE",
"502 551 CURVE SMOOTH",
"502 625 OFFCURVE",
"446 670 OFFCURVE",
"304 670 CURVE SMOOTH",
"257 670 OFFCURVE",
"215 665 OFFCURVE",
"129 665 CURVE SMOOTH",
"50 665 LINE",
"50 642 LINE",
"110 639 OFFCURVE",
"126 634 OFFCURVE",
"121 565 CURVE SMOOTH",
"89 100 LINE SMOOTH",
"84 30 OFFCURVE",
"78 25 OFFCURVE",
"40 23 CURVE",
"40 0 LINE"
);
},
{
closed = 1;
nodes = (
"181 33 OFFCURVE",
"155 38 OFFCURVE",
"159 100 CURVE SMOOTH",
"173 299 LINE SMOOTH",
"176 344 OFFCURVE",
"205 356 OFFCURVE",
"268 358 CURVE SMOOTH",
"389 362 OFFCURVE",
"482 325 OFFCURVE",
"482 212 CURVE SMOOTH",
"482 141 OFFCURVE",
"448 33 OFFCURVE",
"250 33 CURVE SMOOTH"
);
},
{
closed = 1;
nodes = (
"191 565 LINE SMOOTH",
"195 622 OFFCURVE",
"212 637 OFFCURVE",
"286 637 CURVE SMOOTH",
"338 637 OFFCURVE",
"422 631 OFFCURVE",
"422 535 CURVE SMOOTH",
"422 423 OFFCURVE",
"318 395 OFFCURVE",
"231 385 CURVE SMOOTH",
"204 382 OFFCURVE",
"190 378 OFFCURVE",
"178 367 CURVE"
);
},
{
closed = 1;
nodes = (
"358 227 LINE",
"18 227 LINE",
"18 192 LINE",
"358 192 LINE"
);
}
);
width = 595;
}
);
leftKerningGroup = H;
leftMetricsKey = "=Dcroat";
rightKerningGroup = O;
rightMetricsKey = "=B";
unicode = 0243;
},
{
color = 6;
glyphname = C;
layers = (
{
anchors = (
{
name = bottom;
position = "{359, 0}";
},
{
name = top;
position = "{409, 665}";
}
);
layerId = "230F8D9C-4AAC-4C97-935A-A5529CE4A32C";
paths = (
{
closed = 1;
nodes = (
"519 -15 OFFCURVE",
"611 87 OFFCURVE",
"633 108 CURVE",
"647 220 LINE",
"624 220 LINE",
"597 128 OFFCURVE",
"502 18 OFFCURVE",
"364 18 CURVE SMOOTH",
"230 18 OFFCURVE",
"123 123 OFFCURVE",
"123 300 CURVE SMOOTH",
"123 478 OFFCURVE",
"232 647 OFFCURVE",
"419 647 CURVE SMOOTH",
"507 647 OFFCURVE",
"621 609 OFFCURVE",
"621 485 CURVE",
"644 485 LINE",
"654 643 LINE",
"583 668 OFFCURVE",
"507 680 OFFCURVE",
"440 680 CURVE SMOOTH",
"176 680 OFFCURVE",
"43 496 OFFCURVE",
"43 304 CURVE SMOOTH",
"43 100 OFFCURVE",
"192 -15 OFFCURVE",
"360 -15 CURVE SMOOTH"
);
}
);
width = 697;
},
{
associatedMasterId = "230F8D9C-4AAC-4C97-935A-A5529CE4A32C";
layerId = "80628BE6-A8FB-480E-92B8-7C52D39AD99C";
width = 600;
}
);
leftKerningGroup = O;
leftMetricsKey = "=O";
rightKerningGroup = C;
unicode = 0043;
},
{
color = 6;
glyphname = D;
layers = (
{
anchors = (
{
name = bottom;
position = "{338, 0}";
},
{
name = center;
position = "{358, 353}";
},
{
name = top;
position = "{358, 665}";
}
);
guideLines = (
{
position = "{157, 565}";
}
);
layerId = "230F8D9C-4AAC-4C97-935A-A5529CE4A32C";
paths = (
{
closed = 1;
nodes = (
"260 0 LINE SMOOTH",
"494 0 OFFCURVE",
"665 147 OFFCURVE",
"665 372 CURVE SMOOTH",
"665 558 OFFCURVE",
"530 670 OFFCURVE",
"303 670 CURVE SMOOTH",
"258 670 OFFCURVE",
"192 665 OFFCURVE",
"129 665 CURVE SMOOTH",
"50 665 LINE",
"50 642 LINE",
"110 639 OFFCURVE",
"126 634 OFFCURVE",
"121 565 CURVE SMOOTH",
"89 100 LINE SMOOTH",
"84 30 OFFCURVE",
"78 25 OFFCURVE",
"40 23 CURVE",
"40 0 LINE"
);
},
{
closed = 1;
nodes = (
"171 33 OFFCURVE",
"155 38 OFFCURVE",
"159 100 CURVE SMOOTH",
"191 565 LINE SMOOTH",
"195 622 OFFCURVE",
"212 637 OFFCURVE",
"281 637 CURVE SMOOTH",
"489 637 OFFCURVE",
"585 554 OFFCURVE",
"585 368 CURVE SMOOTH",
"585 158 OFFCURVE",
"471 33 OFFCURVE",
"237 33 CURVE SMOOTH"
);
}
);
width = 708;
},
{
associatedMasterId = "230F8D9C-4AAC-4C97-935A-A5529CE4A32C";
layerId = "80628BE6-A8FB-480E-92B8-7C52D39AD99C";
width = 600;
}
);
leftKerningGroup = H;
leftMetricsKey = "=H";
rightKerningGroup = O;
rightMetricsKey = "=O";
unicode = 0044;
},
{
color = 6;
glyphname = E;
layers = (
{
anchors = (
{
name = bottom;
position = "{291, 0}";
},
{
name = ogonek;
position = "{455, 0}";
},
{
name = top;
position = "{311, 665}";
},
{
name = topleft;
position = "{17, 665}";
}
);
guideLines = (
{
position = "{154, 565}";
},
{
angle = 86.3218;
position = "{191, 565}";
},
{
angle = 86.3218;
position = "{489, 525}";
}
);
layerId = "230F8D9C-4AAC-4C97-935A-A5529CE4A32C";
paths = (
{
closed = 1;
nodes = (
"522 0 LINE",
"541 155 LINE",
"518 155 LINE",
"507 85 OFFCURVE",
"474 30 OFFCURVE",
"374 30 CURVE SMOOTH",
"231 30 LINE SMOOTH",
"171 30 OFFCURVE",
"156 35 OFFCURVE",
"160 100 CURVE SMOOTH",
"173 311 LINE SMOOTH",
"175 349 OFFCURVE",
"188 358 OFFCURVE",
"225 358 CURVE SMOOTH",
"370 358 LINE SMOOTH",
"418 358 OFFCURVE",
"426 343 OFFCURVE",
"426 285 CURVE",
"449 285 LINE",
"461 455 LINE",
"438 455 LINE",
"433 411 OFFCURVE",
"410 388 OFFCURVE",
"370 388 CURVE SMOOTH",
"225 388 LINE SMOOTH",
"205 388 OFFCURVE",
"189 386 OFFCURVE",
"178 378 CURVE",
"191 565 LINE SMOOTH",
"196 630 OFFCURVE",
"201 635 OFFCURVE",
"240 635 CURVE SMOOTH",
"360 635 LINE SMOOTH",
"456 635 OFFCURVE",
"466 595 OFFCURVE",
"466 525 CURVE",
"489 525 LINE",
"498 665 LINE",
"50 665 LINE",
"50 642 LINE",
"110 639 OFFCURVE",
"126 634 OFFCURVE",
"121 565 CURVE SMOOTH",
"89 100 LINE SMOOTH",
"84 30 OFFCURVE",
"78 25 OFFCURVE",
"40 23 CURVE",
"40 0 LINE"
);
}
);
width = 564;
},
{
associatedMasterId = "230F8D9C-4AAC-4C97-935A-A5529CE4A32C";
layerId = "80628BE6-A8FB-480E-92B8-7C52D39AD99C";
width = 600;
}
);
leftKerningGroup = H;
leftMetricsKey = "=H";
rightKerningGroup = E;
unicode = 0045;
},
{
color = 10;
glyphname = Edieresis;
layers = (
{
components = (
{
name = E;
},
{
name = dieresiscomb.case;
transform = "{1, 0, 0, 1, 186, 0}";
}
);
layerId = "230F8D9C-4AAC-4C97-935A-A5529CE4A32C";
width = 564;
},
{
anchors = (
{
name = bottom;
position = "{320, 0}";
},
{
name = ogonek;
position = "{509, 0}";
},
{
name = top;
position = "{320, 665}";
},
{
name = topleft;
position = "{15, 665}";
}
);
associatedMasterId = "230F8D9C-4AAC-4C97-935A-A5529CE4A32C";
components = (
{
name = dotaccentcomb.case;
transform = "{1, 0, 0, 1, 127, 0}";
},
{
name = dotaccentcomb.case;
transform = "{1, 0, 0, 1, 317, 0}";
}
);
layerId = "C0C1BB7E-A91C-4342-9195-19045BCBF0F7";
name = "Jun 1 17, 13:27";
paths = (
{
closed = 1;
nodes = (
"568 0 LINE",
"576 165 LINE",
"553 165 LINE",
"547 98 OFFCURVE",
"499 43 OFFCURVE",
"419 43 CURVE SMOOTH",
"324 43 LINE SMOOTH",
"264 43 OFFCURVE",
"248 53 OFFCURVE",
"248 100 CURVE SMOOTH",
"248 296 LINE SMOOTH",
"248 331 OFFCURVE",
"261 340 OFFCURVE",
"297 340 CURVE SMOOTH",
"392 340 LINE SMOOTH",
"432 340 OFFCURVE",
"461 326 OFFCURVE",
"463 277 CURVE",
"486 277 LINE",
"486 447 LINE",
"463 447 LINE",
"461 407 OFFCURVE",
"432 383 OFFCURVE",
"392 383 CURVE SMOOTH",
"295 383 LINE SMOOTH",
"274 383 OFFCURVE",
"259 381 OFFCURVE",
"248 373 CURVE",
"248 565 LINE SMOOTH",
"248 612 OFFCURVE",
"264 622 OFFCURVE",
"292 622 CURVE SMOOTH",
"372 622 LINE SMOOTH",
"448 622 OFFCURVE",
"483 582 OFFCURVE",
"486 525 CURVE",
"509 525 LINE",
"509 665 LINE",
"18 665 LINE",
"18 642 LINE",
"72 640 OFFCURVE",
"88 630 OFFCURVE",
"88 565 CURVE SMOOTH",
"88 100 LINE SMOOTH",
"88 35 OFFCURVE",
"71 25 OFFCURVE",
"33 23 CURVE",
"33 0 LINE"
);
}
);
width = 584;
},
{
associatedMasterId = "230F8D9C-4AAC-4C97-935A-A5529CE4A32C";
layerId = "80628BE6-A8FB-480E-92B8-7C52D39AD99C";
width = 600;
}
);
leftKerningGroup = H;
rightKerningGroup = E;
unicode = 00CB;
},
{
color = 10;
glyphname = Eogonek;
layers = (
{
components = (
{
name = E;
},
{
name = ogonekcomb.case;
transform = "{1, 0, 0, 1, 269, 0}";
}
);
guideLines = (
{
angle = 86.3218;
position = "{492, 525}";
}
);
layerId = "230F8D9C-4AAC-4C97-935A-A5529CE4A32C";
width = 564;
},
{
associatedMasterId = "230F8D9C-4AAC-4C97-935A-A5529CE4A32C";
guideLines = (
{
angle = 86.3218;
position = "{492, 525}";
}
);
layerId = "8947B4F2-7766-42F5-9D17-64860E070EDE";
name = "Apr 14 17, 12:04";
paths = (
{
closed = 1;
nodes = (
"525 0 LINE",
"544 155 LINE",
"521 155 LINE",
"510 85 OFFCURVE",
"477 30 OFFCURVE",
"377 30 CURVE SMOOTH",
"233 30 LINE SMOOTH",
"173 30 OFFCURVE",
"157 35 OFFCURVE",
"162 100 CURVE SMOOTH",
"177 316 LINE SMOOTH",
"180 354 OFFCURVE",
"192 363 OFFCURVE",
"229 363 CURVE SMOOTH",
"374 363 LINE SMOOTH",
"422 363 OFFCURVE",
"430 348 OFFCURVE",
"430 290 CURVE",
"453 290 LINE",
"465 460 LINE",
"442 460 LINE",
"437 416 OFFCURVE",
"414 393 OFFCURVE",
"374 393 CURVE SMOOTH",
"229 393 LINE SMOOTH",
"209 393 OFFCURVE",
"193 391 OFFCURVE",
"182 383 CURVE",
"194 565 LINE SMOOTH",
"198 630 OFFCURVE",
"204 635 OFFCURVE",
"243 635 CURVE SMOOTH",
"363 635 LINE SMOOTH",
"459 635 OFFCURVE",
"469 595 OFFCURVE",
"469 525 CURVE",
"492 525 LINE",
"501 665 LINE",
"53 665 LINE",
"53 642 LINE",
"113 639 OFFCURVE",
"129 634 OFFCURVE",
"124 565 CURVE SMOOTH",
"92 100 LINE SMOOTH",
"87 30 OFFCURVE",
"81 25 OFFCURVE",
"43 23 CURVE",
"43 0 LINE"
);
},
{
closed = 1;
nodes = (
"444 -21 OFFCURVE",
"380 -62 OFFCURVE",
"380 -125 CURVE SMOOTH",
"380 -165 OFFCURVE",
"406 -200 OFFCURVE",
"458 -200 CURVE SMOOTH",
"484 -200 OFFCURVE",
"503 -192 OFFCURVE",
"523 -167 CURVE",
"511 -151 LINE",
"468 -165 OFFCURVE",
"442 -146 OFFCURVE",
"442 -108 CURVE SMOOTH",
"442 -73 OFFCURVE",
"464 -45 OFFCURVE",
"525 0 CURVE",
"495 0 LINE"
);
}
);
width = 567;
},
{
associatedMasterId = "230F8D9C-4AAC-4C97-935A-A5529CE4A32C";
layerId = "80628BE6-A8FB-480E-92B8-7C52D39AD99C";
width = 600;
}
);
leftKerningGroup = H;
rightKerningGroup = E;
unicode = 0118;
},
{
color = 6;
glyphname = F;
layers = (
{
anchors = (
{
name = bottom;
position = "{254, 0}";
},
{
name = top;
position = "{304, 665}";
}
);
guideLines = (
{
position = "{154, 565}";
}
);
layerId = "230F8D9C-4AAC-4C97-935A-A5529CE4A32C";
paths = (
{
closed = 1;
nodes = (
"250 0 LINE",
"250 23 LINE",
"170 25 OFFCURVE",
"154 30 OFFCURVE",
"159 100 CURVE SMOOTH",
"172 291 LINE SMOOTH",
"175 328 OFFCURVE",
"187 338 OFFCURVE",
"224 338 CURVE SMOOTH",
"360 338 LINE SMOOTH",
"408 338 OFFCURVE",
"416 323 OFFCURVE",
"416 265 CURVE",
"439 265 LINE",
"451 435 LINE",
"428 435 LINE",
"423 391 OFFCURVE",
"400 368 OFFCURVE",
"360 368 CURVE SMOOTH",
"224 368 LINE SMOOTH",
"204 368 OFFCURVE",
"188 366 OFFCURVE",
"177 358 CURVE",
"191 565 LINE SMOOTH",
"195 630 OFFCURVE",
"201 635 OFFCURVE",
"240 635 CURVE SMOOTH",
"341 635 LINE SMOOTH",
"436 635 OFFCURVE",
"446 595 OFFCURVE",
"446 525 CURVE",
"469 525 LINE",
"478 665 LINE",
"50 665 LINE",
"50 642 LINE",
"110 639 OFFCURVE",
"126 634 OFFCURVE",
"121 565 CURVE SMOOTH",
"89 100 LINE SMOOTH",
"84 30 OFFCURVE",
"78 25 OFFCURVE",
"40 23 CURVE",
"40 0 LINE"
);
}
);
width = 511;
},
{
associatedMasterId = "230F8D9C-4AAC-4C97-935A-A5529CE4A32C";
layerId = "80628BE6-A8FB-480E-92B8-7C52D39AD99C";
width = 600;
}
);
leftKerningGroup = H;
leftMetricsKey = "=E";
rightKerningGroup = F;
unicode = 0046;
},
{
color = 6;
glyphname = G;
layers = (
{
anchors = (
{
name = bottom;
position = "{329, 0}";
},
{
name = top;
position = "{419, 665}";
}
);
layerId = "230F8D9C-4AAC-4C97-935A-A5529CE4A32C";
paths = (
{
closed = 1;
nodes = (
"497 -15 OFFCURVE",
"587 55 OFFCURVE",
"624 89 CURVE",
"619 123 OFFCURVE",
"619 147 OFFCURVE",
"622 190 CURVE SMOOTH",
"626 248 LINE SMOOTH",
"628 282 OFFCURVE",
"635 293 OFFCURVE",
"665 295 CURVE",
"665 318 LINE",
"442 318 LINE",
"442 295 LINE",
"545 293 OFFCURVE",
"561 288 OFFCURVE",
"557 190 CURVE SMOOTH",
"555 136 OFFCURVE",
"553 119 OFFCURVE",
"544 99 CURVE SMOOTH",
"526 59 OFFCURVE",
"457 18 OFFCURVE",
"367 18 CURVE SMOOTH",
"221 18 OFFCURVE",
"123 123 OFFCURVE",
"123 300 CURVE SMOOTH",
"123 476 OFFCURVE",
"230 647 OFFCURVE",
"412 647 CURVE SMOOTH",
"489 647 OFFCURVE",
"611 619 OFFCURVE",
"611 490 CURVE",
"634 490 LINE",
"644 643 LINE",
"574 668 OFFCURVE",
"496 680 OFFCURVE",
"431 680 CURVE SMOOTH",
"176 680 OFFCURVE",
"43 496 OFFCURVE",
"43 304 CURVE SMOOTH",
"43 100 OFFCURVE",
"192 -15 OFFCURVE",
"364 -15 CURVE SMOOTH"
);
}
);
width = 698;
},
{
associatedMasterId = "230F8D9C-4AAC-4C97-935A-A5529CE4A32C";
layerId = "80628BE6-A8FB-480E-92B8-7C52D39AD99C";
width = 600;
}
);
leftKerningGroup = O;
leftMetricsKey = "=C";
rightKerningGroup = C;
unicode = 0047;
},
{
color = 6;
glyphname = H;
layers = (
{
anchors = (
{
name = bottom;
position = "{334, 0}";
},
{
name = center;
position = "{354, 333}";
},
{
name = top;
position = "{354, 665}";
},
{
name = topleft;
position = "{27, 665}";
}
);
guideLines = (
{
position = "{157, 565}";
},
{
angle = 266.0633;
position = "{175, 333}";
}
);
layerId = "230F8D9C-4AAC-4C97-935A-A5529CE4A32C";
paths = (
{
closed = 1;
nodes = (
"230 0 LINE",
"230 23 LINE",
"170 25 OFFCURVE",
"154 30 OFFCURVE",
"159 100 CURVE SMOOTH",
"174 323 LINE SMOOTH",
"177 361 OFFCURVE",
"189 370 OFFCURVE",
"226 370 CURVE SMOOTH",
"488 370 LINE SMOOTH",
"509 370 OFFCURVE",
"525 373 OFFCURVE",
"536 383 CURVE",
"516 100 LINE SMOOTH",
"511 30 OFFCURVE",
"505 25 OFFCURVE",
"467 23 CURVE",
"467 0 LINE",
"657 0 LINE",
"657 23 LINE",
"597 25 OFFCURVE",
"581 30 OFFCURVE",
"586 100 CURVE SMOOTH",
"618 565 LINE SMOOTH",
"623 634 OFFCURVE",
"629 639 OFFCURVE",
"667 642 CURVE",
"667 665 LINE",
"477 665 LINE",
"477 642 LINE",
"537 639 OFFCURVE",
"553 634 OFFCURVE",
"548 565 CURVE SMOOTH",
"540 450 LINE SMOOTH",
"537 409 OFFCURVE",
"525 400 OFFCURVE",
"488 400 CURVE SMOOTH",
"226 400 LINE SMOOTH",
"206 400 OFFCURVE",
"190 398 OFFCURVE",
"179 390 CURVE",
"191 565 LINE SMOOTH",
"196 634 OFFCURVE",
"202 639 OFFCURVE",
"240 642 CURVE",
"240 665 LINE",
"50 665 LINE",
"50 642 LINE",
"110 639 OFFCURVE",
"126 634 OFFCURVE",
"121 565 CURVE SMOOTH",
"89 100 LINE SMOOTH",
"84 30 OFFCURVE",
"78 25 OFFCURVE",
"40 23 CURVE",
"40 0 LINE"
);
}
);
width = 707;
},
{
associatedMasterId = "230F8D9C-4AAC-4C97-935A-A5529CE4A32C";
layerId = "80628BE6-A8FB-480E-92B8-7C52D39AD99C";
width = 600;
}
);
leftKerningGroup = H;
rightKerningGroup = H;
unicode = 0048;
},
{
color = 6;
glyphname = Hbar;
layers = (
{
anchors = (
{
name = bottom;
position = "{334, 0}";
},
{
name = center;
position = "{354, 333}";
},
{
name = top;
position = "{354, 665}";
},
{
name = topleft;
position = "{27, 665}";
}
);
layerId = "230F8D9C-4AAC-4C97-935A-A5529CE4A32C";
paths = (
{
closed = 1;
nodes = (
"697 543 LINE",
"35 543 LINE",
"35 508 LINE",
"697 508 LINE"
);
},
{
closed = 1;
nodes = (
"230 0 LINE",
"230 23 LINE",
"170 25 OFFCURVE",
"154 30 OFFCURVE",
"159 100 CURVE SMOOTH",
"174 323 LINE SMOOTH",
"177 361 OFFCURVE",
"189 370 OFFCURVE",
"226 370 CURVE SMOOTH",
"488 370 LINE SMOOTH",
"509 370 OFFCURVE",
"525 373 OFFCURVE",
"536 383 CURVE",
"516 100 LINE SMOOTH",
"511 30 OFFCURVE",
"505 25 OFFCURVE",
"467 23 CURVE",
"467 0 LINE",
"657 0 LINE",
"657 23 LINE",
"597 25 OFFCURVE",
"581 30 OFFCURVE",
"586 100 CURVE SMOOTH",
"618 565 LINE SMOOTH",
"623 634 OFFCURVE",
"629 639 OFFCURVE",
"667 642 CURVE",
"667 665 LINE",
"477 665 LINE",
"477 642 LINE",
"537 639 OFFCURVE",
"553 634 OFFCURVE",
"548 565 CURVE SMOOTH",
"540 450 LINE SMOOTH",
"537 409 OFFCURVE",
"525 400 OFFCURVE",
"488 400 CURVE SMOOTH",
"226 400 LINE SMOOTH",
"206 400 OFFCURVE",
"190 398 OFFCURVE",
"179 390 CURVE",
"191 565 LINE SMOOTH",
"196 634 OFFCURVE",
"202 639 OFFCURVE",
"240 642 CURVE",
"240 665 LINE",
"50 665 LINE",
"50 642 LINE",
"110 639 OFFCURVE",
"126 634 OFFCURVE",
"121 565 CURVE SMOOTH",
"89 100 LINE SMOOTH",
"84 30 OFFCURVE",
"78 25 OFFCURVE",
"40 23 CURVE",
"40 0 LINE"
);
}
);
width = 693;
},
{
associatedMasterId = "230F8D9C-4AAC-4C97-935A-A5529CE4A32C";
layerId = "80628BE6-A8FB-480E-92B8-7C52D39AD99C";
width = 600;
}
);
leftKerningGroup = H;
rightKerningGroup = H;
unicode = 0126;
},
{
color = 6;
glyphname = I;
layers = (
{
anchors = (
{
name = bottom;
position = "{122, 0}";
},
{
name = ogonek;
position = "{195, 0}";
},
{
name = top;
position = "{162, 665}";
},
{
name = topleft;
position = "{19, 665}";
}
);
guideLines = (
{
angle = 85.9406;
position = "{108, 333}";
},
{
position = "{159, 565}";
}
);
layerId = "230F8D9C-4AAC-4C97-935A-A5529CE4A32C";
paths = (
{
closed = 1;
nodes = (
"232 0 LINE",
"232 23 LINE",
"172 25 OFFCURVE",
"156 30 OFFCURVE",
"161 100 CURVE SMOOTH",
"193 565 LINE SMOOTH",
"198 634 OFFCURVE",
"204 639 OFFCURVE",
"242 642 CURVE",
"242 665 LINE",
"52 665 LINE",
"52 642 LINE",
"112 639 OFFCURVE",
"128 634 OFFCURVE",
"123 565 CURVE SMOOTH",
"91 100 LINE SMOOTH",
"86 30 OFFCURVE",
"80 25 OFFCURVE",
"42 23 CURVE",
"42 0 LINE"
);
}
);
width = 284;
},
{
associatedMasterId = "230F8D9C-4AAC-4C97-935A-A5529CE4A32C";
layerId = "80628BE6-A8FB-480E-92B8-7C52D39AD99C";
width = 600;
}
);
leftKerningGroup = H;
rightKerningGroup = H;
unicode = 0049;
},
{
color = 6;
glyphname = IJ;
layers = (
{
anchors = (
{
name = bottom;
position = "{380, -225}";
},
{
name = ogonek;
position = "{195, 0}";
},
{
name = top;
position = "{445, 665}";
},
{
name = topleft;
position = "{19, 665}";
}
);
layerId = "230F8D9C-4AAC-4C97-935A-A5529CE4A32C";
paths = (
{
closed = 1;
nodes = (
"232 0 LINE",
"232 23 LINE",
"172 25 OFFCURVE",
"156 30 OFFCURVE",
"161 100 CURVE SMOOTH",
"193 565 LINE SMOOTH",
"198 634 OFFCURVE",
"204 639 OFFCURVE",
"242 642 CURVE",
"242 665 LINE",
"52 665 LINE",
"52 642 LINE",
"112 639 OFFCURVE",
"128 634 OFFCURVE",
"123 565 CURVE SMOOTH",
"91 100 LINE SMOOTH",
"86 30 OFFCURVE",
"80 25 OFFCURVE",
"42 23 CURVE",
"42 0 LINE"
);
},
{
closed = 1;
nodes = (
"357 -225 OFFCURVE",
"428 -150 OFFCURVE",
"437 -15 CURVE SMOOTH",
"477 565 LINE SMOOTH",
"482 634 OFFCURVE",
"488 639 OFFCURVE",
"526 642 CURVE",
"526 665 LINE",
"336 665 LINE",
"336 642 LINE",
"396 639 OFFCURVE",
"412 634 OFFCURVE",
"407 565 CURVE SMOOTH",
"368 0 LINE SMOOTH",
"358 -138 OFFCURVE",
"340 -192 OFFCURVE",
"270 -202 CURVE",
"270 -225 LINE"
);
}
);
width = 558;
},
{
associatedMasterId = "230F8D9C-4AAC-4C97-935A-A5529CE4A32C";
layerId = "80628BE6-A8FB-480E-92B8-7C52D39AD99C";
width = 600;
}
);
leftKerningGroup = H;
rightKerningGroup = H;
unicode = 0132;
},
{
color = 6;
glyphname = J;
layers = (
{
anchors = (
{
name = bottom;
position = "{96, -225}";
},
{
name = top;
position = "{161, 665}";
}
);
guideLines = (
{
position = "{160, 565}";
}
);
layerId = "230F8D9C-4AAC-4C97-935A-A5529CE4A32C";
paths = (
{
closed = 1;
nodes = (
"73 -225 OFFCURVE",
"144 -150 OFFCURVE",
"153 -15 CURVE SMOOTH",
"193 565 LINE SMOOTH",
"198 634 OFFCURVE",
"204 639 OFFCURVE",
"242 642 CURVE",
"242 665 LINE",
"52 665 LINE",
"52 642 LINE",
"112 639 OFFCURVE",
"128 634 OFFCURVE",
"123 565 CURVE SMOOTH",
"84 0 LINE SMOOTH",
"74 -138 OFFCURVE",
"56 -192 OFFCURVE",
"-14 -202 CURVE",
"-14 -225 LINE"
);
}
);
width = 274;
},
{
associatedMasterId = "230F8D9C-4AAC-4C97-935A-A5529CE4A32C";
layerId = "80628BE6-A8FB-480E-92B8-7C52D39AD99C";
width = 600;
}
);
leftKerningGroup = H;
rightKerningGroup = N;
rightMetricsKey = "=N";
unicode = 004A;
},
{
color = 6;
glyphname = K;
layers = (
{
anchors = (
{
name = bottom;
position = "{311, 0}";
},
{
name = top;
position = "{301, 665}";
}
);
layerId = "230F8D9C-4AAC-4C97-935A-A5529CE4A32C";
paths = (
{
closed = 1;
nodes = (
"581 -4 OFFCURVE",
"596 -3 OFFCURVE",
"613 0 CURVE",
"613 23 LINE",
"565 23 OFFCURVE",
"551 35 OFFCURVE",
"500 103 CURVE SMOOTH",
"276 402 LINE SMOOTH",
"266 416 OFFCURVE",
"265 424 OFFCURVE",
"276 434 CURVE SMOOTH",
"443 590 LINE SMOOTH",
"482 627 OFFCURVE",
"505 639 OFFCURVE",
"555 642 CURVE",
"555 665 LINE",
"370 665 LINE",
"370 642 LINE",
"405 640 OFFCURVE",
"413 636 OFFCURVE",
"413 627 CURVE SMOOTH",
"413 614 OFFCURVE",
"403 603 OFFCURVE",
"370 573 CURVE SMOOTH",
"181 397 LINE",
"179 397 LINE",
"191 565 LINE SMOOTH",
"196 634 OFFCURVE",
"202 639 OFFCURVE",
"240 642 CURVE",
"240 665 LINE",
"50 665 LINE",
"50 642 LINE",
"110 639 OFFCURVE",
"126 634 OFFCURVE",
"121 565 CURVE SMOOTH",
"89 100 LINE SMOOTH",
"84 30 OFFCURVE",
"78 25 OFFCURVE",
"40 23 CURVE",
"40 0 LINE",
"230 0 LINE",
"230 23 LINE",
"170 25 OFFCURVE",
"154 30 OFFCURVE",
"159 100 CURVE SMOOTH",
"175 336 LINE SMOOTH",
"177 360 OFFCURVE",
"187 370 OFFCURVE",
"198 370 CURVE SMOOTH",
"207 370 OFFCURVE",
"215 364 OFFCURVE",
"230 344 CURVE SMOOTH",
"436 71 LINE SMOOTH",
"467 31 OFFCURVE",
"496 -4 OFFCURVE",
"568 -4 CURVE SMOOTH"
);
}
);
width = 603;
},
{
associatedMasterId = "230F8D9C-4AAC-4C97-935A-A5529CE4A32C";
layerId = "80628BE6-A8FB-480E-92B8-7C52D39AD99C";
width = 600;
}
);
leftKerningGroup = H;
leftMetricsKey = "=H";
rightKerningGroup = K;
unicode = 004B;
},
{
color = 6;
glyphname = L;
layers = (
{
anchors = (
{
name = bottom;
position = "{276, 0}";
},
{
name = center;
position = "{256, 333}";
},
{
name = top;
position = "{165, 665}";
},
{
name = topright;
position = "{484, 665}";
}
);
layerId = "230F8D9C-4AAC-4C97-935A-A5529CE4A32C";
paths = (
{
closed = 1;
nodes = (
"472 0 LINE",
"491 155 LINE",
"468 155 LINE",
"457 85 OFFCURVE",
"424 30 OFFCURVE",
"324 30 CURVE SMOOTH",
"230 30 LINE SMOOTH",
"170 30 OFFCURVE",
"154 35 OFFCURVE",
"159 100 CURVE SMOOTH",
"191 565 LINE SMOOTH",
"196 634 OFFCURVE",
"202 639 OFFCURVE",
"240 642 CURVE",
"240 665 LINE",
"50 665 LINE",
"50 642 LINE",
"110 639 OFFCURVE",
"126 634 OFFCURVE",
"121 565 CURVE SMOOTH",
"89 100 LINE SMOOTH",
"84 30 OFFCURVE",
"78 25 OFFCURVE",
"40 23 CURVE",
"40 0 LINE"
);
}
);
width = 504;
},
{
associatedMasterId = "230F8D9C-4AAC-4C97-935A-A5529CE4A32C";
layerId = "80628BE6-A8FB-480E-92B8-7C52D39AD99C";
width = 600;
}
);
leftKerningGroup = H;
leftMetricsKey = "=H";
rightKerningGroup = L;
unicode = 004C;
},
{
color = 6;
glyphname = Ldot;
layers = (
{
anchors = (
{
name = bottom;
position = "{276, 0}";
},
{
name = center;
position = "{256, 333}";
},
{
name = top;
position = "{165, 665}";
},
{
name = topright;
position = "{484, 665}";
}
);
layerId = "230F8D9C-4AAC-4C97-935A-A5529CE4A32C";
paths = (
{
closed = 1;
nodes = (
"472 0 LINE",
"491 155 LINE",
"468 155 LINE",
"457 85 OFFCURVE",
"424 30 OFFCURVE",
"324 30 CURVE SMOOTH",
"230 30 LINE SMOOTH",
"170 30 OFFCURVE",
"154 35 OFFCURVE",
"159 100 CURVE SMOOTH",
"191 565 LINE SMOOTH",
"196 634 OFFCURVE",
"202 639 OFFCURVE",
"240 642 CURVE",
"240 665 LINE",
"50 665 LINE",
"50 642 LINE",
"110 639 OFFCURVE",
"126 634 OFFCURVE",
"121 565 CURVE SMOOTH",
"89 100 LINE SMOOTH",
"84 30 OFFCURVE",
"78 25 OFFCURVE",
"40 23 CURVE",
"40 0 LINE"
);
},
{
closed = 1;
nodes = (
"461 320 OFFCURVE",
"492 348 OFFCURVE",
"492 381 CURVE SMOOTH",
"492 400 OFFCURVE",
"482 414 OFFCURVE",
"460 414 CURVE SMOOTH",
"429 414 OFFCURVE",
"398 384 OFFCURVE",
"398 353 CURVE SMOOTH",
"398 334 OFFCURVE",
"408 320 OFFCURVE",
"430 320 CURVE SMOOTH"
);
}
);
width = 504;
},
{
associatedMasterId = "230F8D9C-4AAC-4C97-935A-A5529CE4A32C";
layerId = "80628BE6-A8FB-480E-92B8-7C52D39AD99C";
width = 600;
}
);
leftKerningGroup = H;
leftMetricsKey = "=L";
rightKerningGroup = n;
unicode = 013F;
},
{
color = 3;
glyphname = Lslash;
layers = (
{
components = (
{
name = L;
transform = "{1, 0, 0, 1, 9, 0}";
}
);
guideLines = (
{
angle = 90;
position = "{28, 228}";
},
{
angle = 90;
position = "{374, 228}";
}
);
layerId = "230F8D9C-4AAC-4C97-935A-A5529CE4A32C";
paths = (
{
closed = 1;
nodes = (
"404 438 LINE",
"404 478 LINE",
"159 356 LINE",
"159 316 LINE"
);
},
{
closed = 1;
nodes = (
"3 288 LINE",
"3 248 LINE",
"159 326 LINE",
"159 366 LINE"
);
}
);
width = 513;
},
{
associatedMasterId = "230F8D9C-4AAC-4C97-935A-A5529CE4A32C";
components = (
{
name = L;
transform = "{1, 0, 0, 1, 10, 0}";
}
);
layerId = "F21AA2E3-14ED-4FCD-8147-049EAF65701F";
name = "Apr 13 17, 22:33";
paths = (
{
closed = 1;
nodes = (
"17 225 LINE",
"423 460 LINE",
"402 498 LINE",
"-5 262 LINE"
);
}
);
width = 554;
},
{
associatedMasterId = "230F8D9C-4AAC-4C97-935A-A5529CE4A32C";
components = (
{
name = L;
transform = "{1, 0, 0, 1, 10, 0}";
}
);
layerId = "0A482C14-3B99-485A-B440-511F3B47F4E3";
name = "Apr 13 17, 22:33";
paths = (
{
closed = 1;
nodes = (
"391 465 LINE",
"31 257 LINE",
"31 217 LINE",
"391 426 LINE"
);
}
);
width = 552;
},
{
associatedMasterId = "230F8D9C-4AAC-4C97-935A-A5529CE4A32C";
layerId = "80628BE6-A8FB-480E-92B8-7C52D39AD99C";
width = 600;
}
);
leftKerningGroup = H;
rightKerningGroup = A;
rightMetricsKey = "=L";
unicode = 0141;
},
{
color = 6;
glyphname = M;
layers = (
{
anchors = (
{
name = bottom;
position = "{413, 0}";
},
{
name = top;
position = "{463, 665}";
}
);
layerId = "230F8D9C-4AAC-4C97-935A-A5529CE4A32C";
paths = (
{
closed = 1;
nodes = (
"425 -8 LINE",
"436 23 OFFCURVE",
"448 48 OFFCURVE",
"475 104 CURVE SMOOTH",
"685 535 LINE",
"687 535 LINE",
"687 100 LINE SMOOTH",
"687 30 OFFCURVE",
"681 25 OFFCURVE",
"643 23 CURVE",
"643 0 LINE",
"833 0 LINE",
"833 23 LINE",
"773 25 OFFCURVE",
"757 30 OFFCURVE",
"757 100 CURVE SMOOTH",
"757 565 LINE SMOOTH",
"757 634 OFFCURVE",
"773 640 OFFCURVE",
"833 642 CURVE",
"833 665 LINE",
"696 665 LINE",
"684 632 OFFCURVE",
"670 599 OFFCURVE",
"654 565 CURVE SMOOTH",
"425 89 LINE",
"423 89 LINE",
"243 565 LINE SMOOTH",
"229 602 OFFCURVE",
"219 630 OFFCURVE",
"211 665 CURVE",
"68 665 LINE",
"68 642 LINE",
"131 640 OFFCURVE",
"147 634 OFFCURVE",
"139 565 CURVE SMOOTH",
"87 100 LINE SMOOTH",
"79 30 OFFCURVE",
"73 25 OFFCURVE",
"38 23 CURVE",
"38 0 LINE",
"218 0 LINE",
"218 23 LINE",
"137 25 OFFCURVE",
"121 30 OFFCURVE",
"129 100 CURVE SMOOTH",
"173 535 LINE",
"175 535 LINE",
"339 104 LINE SMOOTH",
"360 48 OFFCURVE",
"371 23 OFFCURVE",
"380 -8 CURVE"
);
}
);
width = 881;
},
{
associatedMasterId = "230F8D9C-4AAC-4C97-935A-A5529CE4A32C";
layerId = "80628BE6-A8FB-480E-92B8-7C52D39AD99C";
width = 600;
}
);
leftKerningGroup = H;
leftMetricsKey = "=I*0.9";
rightKerningGroup = H;
rightMetricsKey = "=H*1.2";
unicode = 004D;
},
{
color = 6;
glyphname = N;
layers = (
{
anchors = (
{
name = bottom;
position = "{352, 0}";
},
{
name = top;
position = "{372, 665}";
}
);
guideLines = (
{
angle = 86.4483;
position = "{594, 565}";
},
{
angle = 86.4483;
position = "{143, 318}";
}
);
layerId = "230F8D9C-4AAC-4C97-935A-A5529CE4A32C";
paths = (
{
closed = 1;
nodes = (
"596 -8 LINE",
"596 30 OFFCURVE",
"599 63 OFFCURVE",
"601 100 CURVE SMOOTH",
"634 565 LINE SMOOTH",
"639 634 OFFCURVE",
"645 639 OFFCURVE",
"683 642 CURVE",
"683 665 LINE",
"503 665 LINE",
"503 642 LINE",
"582 639 OFFCURVE",
"598 634 OFFCURVE",
"594 565 CURVE SMOOTH",
"567 123 LINE",
"565 123 LINE",
"230 565 LINE SMOOTH",
"207 596 OFFCURVE",
"183 630 OFFCURVE",
"165 665 CURVE",
"50 665 LINE",
"50 642 LINE",
"105 639 OFFCURVE",
"124 614 OFFCURVE",
"121 565 CURVE SMOOTH",
"89 100 LINE SMOOTH",
"84 30 OFFCURVE",
"78 25 OFFCURVE",
"40 23 CURVE",
"40 0 LINE",
"220 0 LINE",
"220 23 LINE",
"141 25 OFFCURVE",
"125 30 OFFCURVE",
"129 100 CURVE SMOOTH",
"157 537 LINE",
"159 537 LINE",
"487 104 LINE SMOOTH",
"523 56 OFFCURVE",
"546 23 OFFCURVE",
"564 -8 CURVE"
);
}
);
width = 715;
},
{
associatedMasterId = "230F8D9C-4AAC-4C97-935A-A5529CE4A32C";
layerId = "80628BE6-A8FB-480E-92B8-7C52D39AD99C";
width = 600;
}
);
leftKerningGroup = H;
leftMetricsKey = "=H";
rightKerningGroup = N;
rightMetricsKey = "=H*0.8";
unicode = 004E;
},
{
color = 6;
glyphname = NJ;
layers = (
{
anchors = (
{
name = bottom;
position = "{811, -225}";
},
{
name = top;
position = "{876, 665}";
}
);
layerId = "230F8D9C-4AAC-4C97-935A-A5529CE4A32C";
paths = (
{
closed = 1;
nodes = (
"596 -8 LINE",
"596 30 OFFCURVE",
"599 63 OFFCURVE",
"601 100 CURVE SMOOTH",
"634 565 LINE SMOOTH",
"639 634 OFFCURVE",
"645 639 OFFCURVE",
"683 642 CURVE",
"683 665 LINE",
"503 665 LINE",
"503 642 LINE",
"582 639 OFFCURVE",
"598 634 OFFCURVE",
"594 565 CURVE SMOOTH",
"567 123 LINE",
"565 123 LINE",
"230 565 LINE SMOOTH",
"207 596 OFFCURVE",
"183 630 OFFCURVE",
"165 665 CURVE",
"50 665 LINE",
"50 642 LINE",
"105 639 OFFCURVE",
"124 614 OFFCURVE",
"121 565 CURVE SMOOTH",
"89 100 LINE SMOOTH",
"84 30 OFFCURVE",
"78 25 OFFCURVE",
"40 23 CURVE",
"40 0 LINE",
"220 0 LINE",
"220 23 LINE",
"141 25 OFFCURVE",
"125 30 OFFCURVE",
"129 100 CURVE SMOOTH",
"157 537 LINE",
"159 537 LINE",
"487 104 LINE SMOOTH",
"523 56 OFFCURVE",
"546 23 OFFCURVE",
"564 -8 CURVE"
);
},
{
closed = 1;
nodes = (
"788 -225 OFFCURVE",
"859 -150 OFFCURVE",
"868 -15 CURVE SMOOTH",
"908 565 LINE SMOOTH",
"913 634 OFFCURVE",
"919 639 OFFCURVE",
"957 642 CURVE",
"957 665 LINE",
"767 665 LINE",
"767 642 LINE",
"827 639 OFFCURVE",
"843 634 OFFCURVE",
"838 565 CURVE SMOOTH",
"799 0 LINE SMOOTH",
"789 -138 OFFCURVE",
"771 -192 OFFCURVE",
"701 -202 CURVE",
"701 -225 LINE"
);
}
);
width = 989;
},
{
associatedMasterId = "230F8D9C-4AAC-4C97-935A-A5529CE4A32C";
components = (
{
name = N;
},
{
name = J;
transform = "{1, 0, 0, 1, 715, 0}";
}
);
layerId = "37DD2CA1-C758-4BBE-932B-6884A881B1A3";
name = Bold;
width = 989;
}
);
leftKerningGroup = H;
rightKerningGroup = N;
unicode = 01CA;
},
{
color = 6;
glyphname = Nj;
layers = (
{
anchors = (
{
name = bottom;
position = "{799, -233}";
},
{
name = ogonek;
position = "{787, -232}";
},
{
name = top;
position = "{895, 621}";
}
);
layerId = "230F8D9C-4AAC-4C97-935A-A5529CE4A32C";
paths = (
{
closed = 1;
nodes = (
"596 -8 LINE",
"596 30 OFFCURVE",
"599 63 OFFCURVE",
"601 100 CURVE SMOOTH",
"634 565 LINE SMOOTH",
"639 634 OFFCURVE",
"645 639 OFFCURVE",
"683 642 CURVE",
"683 665 LINE",
"503 665 LINE",
"503 642 LINE",
"582 639 OFFCURVE",
"598 634 OFFCURVE",
"594 565 CURVE SMOOTH",
"567 123 LINE",
"565 123 LINE",
"230 565 LINE SMOOTH",
"207 596 OFFCURVE",
"183 630 OFFCURVE",
"165 665 CURVE",
"50 665 LINE",
"50 642 LINE",
"105 639 OFFCURVE",
"124 614 OFFCURVE",
"121 565 CURVE SMOOTH",
"89 100 LINE SMOOTH",
"84 30 OFFCURVE",
"78 25 OFFCURVE",
"40 23 CURVE",
"40 0 LINE",
"220 0 LINE",
"220 23 LINE",
"141 25 OFFCURVE",
"125 30 OFFCURVE",
"129 100 CURVE SMOOTH",
"157 537 LINE",
"159 537 LINE",
"487 104 LINE SMOOTH",
"523 56 OFFCURVE",
"546 23 OFFCURVE",
"564 -8 CURVE"
);
},
{
closed = 1;
nodes = (
"787 -233 OFFCURVE",
"854 -141 OFFCURVE",
"864 -15 CURVE SMOOTH",
"869 45 OFFCURVE",
"893 316 OFFCURVE",
"893 376 CURVE SMOOTH",
"893 409 OFFCURVE",
"889 438 OFFCURVE",
"881 455 CURVE",
"832 431 OFFCURVE",
"748 351 OFFCURVE",
"713 307 CURVE",
"729 291 LINE",
"764 328 OFFCURVE",
"805 361 OFFCURVE",
"819 361 CURVE SMOOTH",
"826 361 OFFCURVE",
"828 356 OFFCURVE",
"828 341 CURVE SMOOTH",
"828 291 OFFCURVE",
"807 69 OFFCURVE",
"801 0 CURVE SMOOTH",
"788 -144 OFFCURVE",
"746 -205 OFFCURVE",
"677 -212 CURVE",
"677 -235 LINE"
);
},
{
closed = 1;
nodes = (
"897 560 OFFCURVE",
"928 588 OFFCURVE",
"928 621 CURVE SMOOTH",
"928 640 OFFCURVE",
"918 654 OFFCURVE",
"896 654 CURVE SMOOTH",
"865 654 OFFCURVE",
"834 624 OFFCURVE",
"834 593 CURVE SMOOTH",
"834 574 OFFCURVE",
"844 560 OFFCURVE",
"866 560 CURVE SMOOTH"
);
}
);
width = 953;
},
{
associatedMasterId = "230F8D9C-4AAC-4C97-935A-A5529CE4A32C";
components = (
{
name = N;
},
{
name = j;
transform = "{1, 0, 0, 1, 715, 0}";
}
);
layerId = "37DD2CA1-C758-4BBE-932B-6884A881B1A3";
name = Bold;
width = 963;
}
);
leftKerningGroup = H;
rightKerningGroup = n;
unicode = 01CB;
},
{
color = 6;
glyphname = Eng;
layers = (
{
anchors = (
{
name = bottom;
position = "{352, 0}";
},
{
name = top;
position = "{372, 665}";
}
);
layerId = "230F8D9C-4AAC-4C97-935A-A5529CE4A32C";
paths = (
{
closed = 1;
nodes = (
"582 639 OFFCURVE",
"598 634 OFFCURVE",
"594 565 CURVE SMOOTH",
"567 123 LINE",
"565 123 LINE",
"230 565 LINE SMOOTH",
"207 596 OFFCURVE",
"183 630 OFFCURVE",
"165 665 CURVE",
"50 665 LINE",
"50 642 LINE",
"105 639 OFFCURVE",
"124 614 OFFCURVE",
"121 565 CURVE SMOOTH",
"89 100 LINE SMOOTH",
"84 30 OFFCURVE",
"78 25 OFFCURVE",
"40 23 CURVE",
"40 0 LINE",
"220 0 LINE",
"220 23 LINE",
"141 25 OFFCURVE",
"125 30 OFFCURVE",
"129 100 CURVE SMOOTH",
"157 537 LINE",
"159 537 LINE",
"487 104 LINE SMOOTH",
"503 83 OFFCURVE",
"516 65 OFFCURVE",
"527 49 CURVE",
"524 0 LINE SMOOTH",
"514 -138 OFFCURVE",
"496 -202 OFFCURVE",
"426 -212 CURVE",
"426 -235 LINE",
"513 -235 OFFCURVE",
"584 -150 OFFCURVE",
"593 -15 CURVE SMOOTH",
"634 565 LINE SMOOTH",
"639 634 OFFCURVE",
"645 639 OFFCURVE",
"683 642 CURVE",
"683 665 LINE",
"503 665 LINE",
"503 642 LINE"
);
}
);
width = 715;
},
{
associatedMasterId = "230F8D9C-4AAC-4C97-935A-A5529CE4A32C";
layerId = "80628BE6-A8FB-480E-92B8-7C52D39AD99C";
width = 600;
}
);
leftKerningGroup = H;
leftMetricsKey = "=N";
rightKerningGroup = N;
rightMetricsKey = "=N";
unicode = 014A;
},
{
color = 6;
glyphname = O;
layers = (
{
anchors = (
{
name = bottom;
position = "{326, 0}";
},
{
name = center;
position = "{376, 333}";
},
{
name = ogonek;
position = "{438, 0}";
},
{
name = top;
position = "{406, 665}";
},
{
name = topleft;
position = "{113, 665}";
},
{
name = topright;
position = "{638, 585}";
}
);
layerId = "230F8D9C-4AAC-4C97-935A-A5529CE4A32C";
paths = (
{
closed = 1;
nodes = (
"227 680 OFFCURVE",
"43 534 OFFCURVE",
"43 303 CURVE SMOOTH",
"43 101 OFFCURVE",
"184 -15 OFFCURVE",
"341 -15 CURVE SMOOTH",
"517 -15 OFFCURVE",
"701 131 OFFCURVE",
"701 362 CURVE SMOOTH",
"701 564 OFFCURVE",
"560 680 OFFCURVE",
"403 680 CURVE SMOOTH"
);
},
{
closed = 1;
nodes = (
"210 18 OFFCURVE",
"123 121 OFFCURVE",
"123 301 CURVE SMOOTH",
"123 514 OFFCURVE",
"246 647 OFFCURVE",
"399 647 CURVE SMOOTH",
"534 647 OFFCURVE",
"621 544 OFFCURVE",
"621 364 CURVE SMOOTH",
"621 151 OFFCURVE",
"498 18 OFFCURVE",
"345 18 CURVE SMOOTH"
);
}
);
width = 744;
},
{
associatedMasterId = "230F8D9C-4AAC-4C97-935A-A5529CE4A32C";
layerId = "80628BE6-A8FB-480E-92B8-7C52D39AD99C";
width = 600;
}
);
leftKerningGroup = O;
rightKerningGroup = O;
unicode = 004F;
},
{
color = 6;
glyphname = Oslash;
layers = (
{
anchors = (
{
name = bottom;
position = "{326, 0}";
},
{
name = center;
position = "{376, 333}";
},
{
name = ogonek;
position = "{438, 0}";
},
{
name = top;
position = "{406, 665}";
},
{
name = topleft;
position = "{113, 665}";
},
{
name = topright;
position = "{638, 585}";
}
);
layerId = "230F8D9C-4AAC-4C97-935A-A5529CE4A32C";
paths = (
{
closed = 1;
nodes = (
"99 -12 LINE",
"126 -31 LINE",
"622 677 LINE",
"595 696 LINE"
);
},
{
closed = 1;
nodes = (
"227 680 OFFCURVE",
"43 534 OFFCURVE",
"43 303 CURVE SMOOTH",
"43 101 OFFCURVE",
"184 -15 OFFCURVE",
"341 -15 CURVE SMOOTH",
"517 -15 OFFCURVE",
"701 131 OFFCURVE",
"701 362 CURVE SMOOTH",
"701 564 OFFCURVE",
"560 680 OFFCURVE",
"403 680 CURVE SMOOTH"
);
},
{
closed = 1;
nodes = (
"210 18 OFFCURVE",
"123 121 OFFCURVE",
"123 301 CURVE SMOOTH",
"123 514 OFFCURVE",
"246 647 OFFCURVE",
"399 647 CURVE SMOOTH",
"534 647 OFFCURVE",
"621 544 OFFCURVE",
"621 364 CURVE SMOOTH",
"621 151 OFFCURVE",
"498 18 OFFCURVE",
"345 18 CURVE SMOOTH"
);
}
);
width = 744;
},
{
associatedMasterId = "230F8D9C-4AAC-4C97-935A-A5529CE4A32C";
layerId = "80628BE6-A8FB-480E-92B8-7C52D39AD99C";
width = 600;
}
);
leftKerningGroup = O;
leftMetricsKey = "=O";
rightKerningGroup = O;
rightMetricsKey = "=O";
unicode = 00D8;
},
{
color = 6;
glyphname = OE;
layers = (
{
anchors = (
{
name = bottom;
position = "{1068, 0}";
},
{
name = center;
position = "{416, 333}";
},
{
name = ogonek;
position = "{1309, 0}";
},
{
name = top;
position = "{498, 665}";
},
{
name = topleft;
position = "{604, 665}";
},
{
name = topright;
position = "{568, 665}";
}
);
guideLines = (
{
angle = 85.9144;
position = "{429, 65}";
}
);
layerId = "230F8D9C-4AAC-4C97-935A-A5529CE4A32C";
paths = (
{
closed = 1;
nodes = (
"839 85 OFFCURVE",
"806 30 OFFCURVE",
"706 30 CURVE SMOOTH",
"572 30 LINE SMOOTH",
"512 30 OFFCURVE",
"496 35 OFFCURVE",
"501 100 CURVE SMOOTH",
"516 316 LINE SMOOTH",
"519 354 OFFCURVE",
"531 363 OFFCURVE",
"568 363 CURVE SMOOTH",
"703 363 LINE SMOOTH",
"751 363 OFFCURVE",
"759 348 OFFCURVE",
"759 290 CURVE",
"782 290 LINE",
"794 460 LINE",
"771 460 LINE",
"766 416 OFFCURVE",
"743 393 OFFCURVE",
"703 393 CURVE SMOOTH",
"568 393 LINE SMOOTH",
"548 393 OFFCURVE",
"532 391 OFFCURVE",
"521 383 CURVE",
"533 565 LINE SMOOTH",
"537 630 OFFCURVE",
"543 635 OFFCURVE",
"582 635 CURVE SMOOTH",
"692 635 LINE SMOOTH",
"788 635 OFFCURVE",
"798 595 OFFCURVE",
"798 525 CURVE",
"821 525 LINE",
"830 665 LINE",
"412 665 LINE SMOOTH",
"236 665 OFFCURVE",
"43 542 OFFCURVE",
"43 317 CURVE SMOOTH",
"43 99 OFFCURVE",
"214 0 OFFCURVE",
"371 0 CURVE SMOOTH",
"854 0 LINE",
"873 155 LINE",
"850 155 LINE"
);
},
{
closed = 1;
nodes = (
"432 110 LINE SMOOTH",
"427 40 OFFCURVE",
"421 35 OFFCURVE",
"373 33 CURVE",
"238 33 OFFCURVE",
"123 116 OFFCURVE",
"123 320 CURVE SMOOTH",
"123 518 OFFCURVE",
"241 632 OFFCURVE",
"407 632 CURVE SMOOTH",
"458 632 OFFCURVE",
"469 621 OFFCURVE",
"464 555 CURVE SMOOTH"
);
}
);
width = 895;
},
{
associatedMasterId = "230F8D9C-4AAC-4C97-935A-A5529CE4A32C";
layerId = "80628BE6-A8FB-480E-92B8-7C52D39AD99C";
width = 600;
}
);
leftKerningGroup = O;
leftMetricsKey = "=O";
rightKerningGroup = E;
rightMetricsKey = "=e";
unicode = 0152;
},
{
color = 6;
glyphname = P;
layers = (
{
anchors = (
{
name = bottom;
position = "{265, 0}";
},
{
name = top;
position = "{305, 665}";
}
);
layerId = "230F8D9C-4AAC-4C97-935A-A5529CE4A32C";
paths = (
{
closed = 1;
nodes = (
"250 0 LINE",
"250 23 LINE",
"170 25 OFFCURVE",
"154 30 OFFCURVE",
"159 100 CURVE SMOOTH",
"191 565 LINE SMOOTH",
"195 622 OFFCURVE",
"212 637 OFFCURVE",
"286 637 CURVE SMOOTH",
"367 637 OFFCURVE",
"432 611 OFFCURVE",
"432 517 CURVE SMOOTH",
"432 423 OFFCURVE",
"367 351 OFFCURVE",
"203 366 CURVE",
"201 342 LINE",
"405 323 OFFCURVE",
"512 417 OFFCURVE",
"512 526 CURVE SMOOTH",
"512 622 OFFCURVE",
"427 670 OFFCURVE",
"305 670 CURVE SMOOTH",
"266 670 OFFCURVE",
"212 665 OFFCURVE",
"131 665 CURVE SMOOTH",
"50 665 LINE",
"50 642 LINE",
"110 639 OFFCURVE",
"126 634 OFFCURVE",
"121 565 CURVE SMOOTH",
"89 100 LINE SMOOTH",
"84 30 OFFCURVE",
"78 25 OFFCURVE",
"40 23 CURVE",
"40 0 LINE"
);
}
);
width = 525;
},
{
associatedMasterId = "230F8D9C-4AAC-4C97-935A-A5529CE4A32C";
layerId = "80628BE6-A8FB-480E-92B8-7C52D39AD99C";
width = 600;
}
);
leftKerningGroup = H;
leftMetricsKey = "=H";
rightKerningGroup = F;
unicode = 0050;
},
{
color = 6;
glyphname = Thorn;
layers = (
{
anchors = (
{
name = bottom;
position = "{120, 0}";
},
{
name = ogonek;
position = "{140, 0}";
},
{
name = top;
position = "{160, 665}";
},
{
name = topleft;
position = "{17, 665}";
}
);
guideLines = (
{
angle = 266.4965;
position = "{190, 541}";
}
);
layerId = "230F8D9C-4AAC-4C97-935A-A5529CE4A32C";
paths = (
{
closed = 1;
nodes = (
"230 0 LINE",
"230 23 LINE",
"170 25 OFFCURVE",
"154 30 OFFCURVE",
"159 100 CURVE SMOOTH",
"181 415 LINE SMOOTH",
"185 472 OFFCURVE",
"202 487 OFFCURVE",
"276 487 CURVE SMOOTH",
"354 487 OFFCURVE",
"422 470 OFFCURVE",
"422 369 CURVE SMOOTH",
"422 269 OFFCURVE",
"360 187 OFFCURVE",
"193 202 CURVE",
"191 178 LINE",
"395 159 OFFCURVE",
"502 260 OFFCURVE",
"502 378 CURVE SMOOTH",
"502 480 OFFCURVE",
"422 520 OFFCURVE",
"303 520 CURVE SMOOTH",
"264 520 OFFCURVE",
"232 517 OFFCURVE",
"188 507 CURVE",
"191 565 LINE SMOOTH",
"195 634 OFFCURVE",
"202 639 OFFCURVE",
"240 642 CURVE",
"240 665 LINE",
"50 665 LINE",
"50 642 LINE",
"110 639 OFFCURVE",
"126 634 OFFCURVE",
"121 565 CURVE SMOOTH",
"89 100 LINE SMOOTH",
"84 30 OFFCURVE",
"78 25 OFFCURVE",
"40 23 CURVE",
"40 0 LINE"
);
}
);
width = 515;
},
{
associatedMasterId = "230F8D9C-4AAC-4C97-935A-A5529CE4A32C";
layerId = "80628BE6-A8FB-480E-92B8-7C52D39AD99C";
width = 600;
}
);
leftKerningGroup = H;
leftMetricsKey = "=H";
rightKerningGroup = O;
rightMetricsKey = "=P";
unicode = 00DE;
},
{
color = 6;
glyphname = Q;
layers = (
{
anchors = (
{
name = bottom;
position = "{356, -225}";
},
{
name = top;
position = "{376, 665}";
}
);
layerId = "230F8D9C-4AAC-4C97-935A-A5529CE4A32C";
paths = (
{
closed = 1;
nodes = (
"607 -178 OFFCURVE",
"642 -131 OFFCURVE",
"661 -87 CURVE",
"640 -79 LINE",
"616 -119 OFFCURVE",
"603 -131 OFFCURVE",
"568 -131 CURVE SMOOTH",
"482 -131 OFFCURVE",
"400 -40 OFFCURVE",
"258 -54 CURVE",
"258 -52 LINE",
"284 -30 OFFCURVE",
"315 -20 OFFCURVE",
"370 -14 CURVE SMOOTH",
"569 7 OFFCURVE",
"701 174 OFFCURVE",
"701 362 CURVE SMOOTH",
"701 564 OFFCURVE",
"560 680 OFFCURVE",
"404 680 CURVE SMOOTH",
"227 680 OFFCURVE",
"43 533 OFFCURVE",
"43 304 CURVE SMOOTH",
"43 129 OFFCURVE",
"155 22 OFFCURVE",
"283 -6 CURVE",
"283 -8 LINE",
"234 -30 OFFCURVE",
"193 -67 OFFCURVE",
"163 -95 CURVE",
"179 -111 LINE",
"205 -89 OFFCURVE",
"231 -79 OFFCURVE",
"256 -79 CURVE SMOOTH",
"339 -79 OFFCURVE",
"459 -187 OFFCURVE",
"564 -200 CURVE"
);
},
{
closed = 1;
nodes = (
"210 18 OFFCURVE",
"123 121 OFFCURVE",
"123 301 CURVE SMOOTH",
"123 514 OFFCURVE",
"246 647 OFFCURVE",
"399 647 CURVE SMOOTH",
"534 647 OFFCURVE",
"621 544 OFFCURVE",
"621 364 CURVE SMOOTH",
"621 151 OFFCURVE",
"498 18 OFFCURVE",
"345 18 CURVE SMOOTH"
);
}
);
width = 751;
},
{
associatedMasterId = "230F8D9C-4AAC-4C97-935A-A5529CE4A32C";
layerId = "80628BE6-A8FB-480E-92B8-7C52D39AD99C";
width = 600;
}
);
leftKerningGroup = O;
leftMetricsKey = "=O";
rightKerningGroup = O;
unicode = 0051;
},
{
color = 6;
glyphname = R;
layers = (
{
anchors = (
{
name = bottom;
position = "{331, 0}";
},
{
name = top;
position = "{291, 665}";
}
);
layerId = "230F8D9C-4AAC-4C97-935A-A5529CE4A32C";
paths = (
{
closed = 1;
nodes = (
"588 -4 OFFCURVE",
"603 -3 OFFCURVE",
"619 0 CURVE",
"619 23 LINE",
"572 23 OFFCURVE",
"559 36 OFFCURVE",
"507 103 CURVE SMOOTH",
"311 356 LINE",
"311 356 OFFCURVE",
"311 358 OFFCURVE",
"311 358 CURVE SMOOTH",
"422 371 OFFCURVE",
"507 441 OFFCURVE",
"507 533 CURVE SMOOTH",
"507 616 OFFCURVE",
"436 670 OFFCURVE",
"313 670 CURVE SMOOTH",
"257 670 OFFCURVE",
"216 665 OFFCURVE",
"131 665 CURVE SMOOTH",
"50 665 LINE",
"50 642 LINE",
"110 639 OFFCURVE",
"126 634 OFFCURVE",
"121 565 CURVE SMOOTH",
"89 100 LINE SMOOTH",
"84 30 OFFCURVE",
"78 25 OFFCURVE",
"40 23 CURVE",
"40 0 LINE",
"230 0 LINE",
"230 23 LINE",
"170 25 OFFCURVE",
"154 30 OFFCURVE",
"159 100 CURVE SMOOTH",
"191 565 LINE SMOOTH",
"195 622 OFFCURVE",
"212 637 OFFCURVE",
"286 637 CURVE SMOOTH",
"367 637 OFFCURVE",
"427 611 OFFCURVE",
"427 523 CURVE SMOOTH",
"427 416 OFFCURVE",
"337 370 OFFCURVE",
"204 384 CURVE",
"202 360 LINE",
"217 359 OFFCURVE",
"222 354 OFFCURVE",
"237 334 CURVE SMOOTH",
"443 71 LINE SMOOTH",
"474 31 OFFCURVE",
"503 -4 OFFCURVE",
"575 -4 CURVE SMOOTH"
);
}
);
width = 604;
},
{
associatedMasterId = "230F8D9C-4AAC-4C97-935A-A5529CE4A32C";
layerId = "80628BE6-A8FB-480E-92B8-7C52D39AD99C";
width = 600;
}
);
leftKerningGroup = H;
leftMetricsKey = "=H";
rightKerningGroup = K;
unicode = 0052;
},
{
color = 6;
glyphname = S;
layers = (
{
anchors = (
{
name = bottom;
position = "{234, 0}";
},
{
name = top;
position = "{304, 665}";
}
);
guideLines = (
{
angle = -32.0054;
position = "{186, 381}";
}
);
layerId = "230F8D9C-4AAC-4C97-935A-A5529CE4A32C";
paths = (
{
closed = 1;
nodes = (
"373 -15 OFFCURVE",
"470 84 OFFCURVE",
"470 215 CURVE SMOOTH",
"470 293 OFFCURVE",
"425 326 OFFCURVE",
"303 402 CURVE SMOOTH",
"213 458 OFFCURVE",
"149 492 OFFCURVE",
"149 539 CURVE SMOOTH",
"149 590 OFFCURVE",
"218 645 OFFCURVE",
"307 645 CURVE SMOOTH",
"396 645 OFFCURVE",
"434 590 OFFCURVE",
"434 510 CURVE",
"457 510 LINE",
"466 653 LINE",
"435 667 OFFCURVE",
"374 680 OFFCURVE",
"321 680 CURVE SMOOTH",
"182 680 OFFCURVE",
"92 590 OFFCURVE",
"92 510 CURVE SMOOTH",
"92 457 OFFCURVE",
"127 421 OFFCURVE",
"260 338 CURVE SMOOTH",
"359 276 OFFCURVE",
"411 242 OFFCURVE",
"411 181 CURVE SMOOTH",
"411 93 OFFCURVE",
"361 35 OFFCURVE",
"254 35 CURVE SMOOTH",
"182 35 OFFCURVE",
"106 74 OFFCURVE",
"106 134 CURVE SMOOTH",
"106 151 OFFCURVE",
"112 175 OFFCURVE",
"124 201 CURVE",
"104 210 LINE",
"57 130 LINE SMOOTH",
"51 119 OFFCURVE",
"48 108 OFFCURVE",
"48 98 CURVE SMOOTH",
"48 27 OFFCURVE",
"139 -15 OFFCURVE",
"224 -15 CURVE SMOOTH"
);
}
);
width = 518;
},
{
associatedMasterId = "230F8D9C-4AAC-4C97-935A-A5529CE4A32C";
layerId = "BF3184DE-92E4-4DF3-B6E6-1344C124F9A8";
name = HARD;
paths = (
{
closed = 1;
nodes = (
"104 586 OFFCURVE",
"139 645 OFFCURVE",
"235 645 CURVE SMOOTH",
"333 645 OFFCURVE",
"371 578 OFFCURVE",
"372 508 CURVE",
"395 508 LINE",
"395 653 LINE",
"355 668 OFFCURVE",
"294 680 OFFCURVE",
"245 680 CURVE SMOOTH",
"122 680 OFFCURVE",
"39 604 OFFCURVE",
"39 503 CURVE SMOOTH",
"39 292 OFFCURVE",
"357 339 OFFCURVE",
"357 153 CURVE SMOOTH",
"357 86 OFFCURVE",
"320 20 OFFCURVE",
"221 20 CURVE SMOOTH",
"136 20 OFFCURVE",
"69 70 OFFCURVE",
"53 175 CURVE",
"30 175 LINE",
"38 30 LINE",
"82 3 OFFCURVE",
"142 -15 OFFCURVE",
"205 -15 CURVE SMOOTH",
"335 -15 OFFCURVE",
"424 61 OFFCURVE",
"424 182 CURVE SMOOTH",
"424 409 OFFCURVE",
"104 365 OFFCURVE",
"104 532 CURVE SMOOTH"
);
}
);
width = 464;
},
{
associatedMasterId = "230F8D9C-4AAC-4C97-935A-A5529CE4A32C";
guideLines = (
{
angle = 180;
position = "{407, 510}";
}
);
layerId = "6CCABE52-4FC4-4C1C-9D6F-E20AA69D3E3A";
name = "Apr 15 17, 15:03";
paths = (
{
closed = 1;
nodes = (
"356 -15 OFFCURVE",
"437 61 OFFCURVE",
"437 183 CURVE SMOOTH",
"437 407 OFFCURVE",
"133 365 OFFCURVE",
"133 531 CURVE SMOOTH",
"133 586 OFFCURVE",
"172 645 OFFCURVE",
"271 645 CURVE SMOOTH",
"363 645 OFFCURVE",
"399 596 OFFCURVE",
"404 510 CURVE",
"407 559 LINE",
"450 645 LINE",
"420 657 OFFCURVE",
"352 680 OFFCURVE",
"278 680 CURVE SMOOTH",
"151 680 OFFCURVE",
"68 606 OFFCURVE",
"68 500 CURVE SMOOTH",
"68 295 OFFCURVE",
"370 341 OFFCURVE",
"370 152 CURVE SMOOTH",
"370 86 OFFCURVE",
"342 20 OFFCURVE",
"246 20 CURVE SMOOTH",
"156 20 OFFCURVE",
"87 82 OFFCURVE",
"81 185 CURVE",
"58 185 LINE",
"50 168 OFFCURVE",
"43 137 OFFCURVE",
"43 110 CURVE SMOOTH",
"43 14 OFFCURVE",
"164 -15 OFFCURVE",
"233 -15 CURVE SMOOTH"
);
},
{
closed = 1;
nodes = (
"362 40 LINE",
"402 -1 OFFCURVE",
"475 -15 OFFCURVE",
"523 -15 CURVE SMOOTH",
"646 -15 OFFCURVE",
"737 61 OFFCURVE",
"737 183 CURVE SMOOTH",
"737 407 OFFCURVE",
"433 365 OFFCURVE",
"433 531 CURVE SMOOTH",
"433 586 OFFCURVE",
"462 645 OFFCURVE",
"561 645 CURVE SMOOTH",
"653 645 OFFCURVE",
"689 596 OFFCURVE",
"694 510 CURVE",
"717 510 LINE",
"717 653 LINE",
"687 665 OFFCURVE",
"642 680 OFFCURVE",
"568 680 CURVE SMOOTH",
"441 680 OFFCURVE",
"368 606 OFFCURVE",
"368 500 CURVE SMOOTH",
"368 295 OFFCURVE",
"670 341 OFFCURVE",
"670 152 CURVE SMOOTH",
"670 86 OFFCURVE",
"632 20 OFFCURVE",
"536 20 CURVE SMOOTH",
"479 20 OFFCURVE",
"431 45 OFFCURVE",
"401 89 CURVE"
);
}
);
width = 780;
},
{
associatedMasterId = "230F8D9C-4AAC-4C97-935A-A5529CE4A32C";
layerId = "80628BE6-A8FB-480E-92B8-7C52D39AD99C";
width = 600;
}
);
leftKerningGroup = O;
leftMetricsKey = "=O+5";
rightKerningGroup = O;
rightMetricsKey = "=O+5";
unicode = 0053;
},
{
color = 6;
glyphname = Germandbls;
layers = (
{
guideLines = (
{
angle = 235.9159;
position = "{441, 506}";
},
{
angle = 86.0633;
position = "{249, 77}";
}
);
layerId = "230F8D9C-4AAC-4C97-935A-A5529CE4A32C";
paths = (
{
closed = 1;
nodes = (
"412 529 OFFCURVE",
"459 598 OFFCURVE",
"558 642 CURVE",
"558 665 LINE",
"50 665 LINE",
"50 642 LINE",
"110 639 OFFCURVE",
"126 634 OFFCURVE",
"121 565 CURVE SMOOTH",
"89 100 LINE SMOOTH",
"84 30 OFFCURVE",
"78 25 OFFCURVE",
"40 23 CURVE",
"40 0 LINE",
"210 0 LINE",
"210 23 LINE",
"165 25 OFFCURVE",
"154 30 OFFCURVE",
"159 100 CURVE SMOOTH",
"191 565 LINE SMOOTH",
"195 630 OFFCURVE",
"201 635 OFFCURVE",
"240 635 CURVE SMOOTH",
"481 635 LINE",
"481 633 LINE",
"411 586 OFFCURVE",
"347 530 OFFCURVE",
"347 440 CURVE SMOOTH",
"347 278 OFFCURVE",
"540 288 OFFCURVE",
"540 139 CURVE SMOOTH",
"540 73 OFFCURVE",
"504 20 OFFCURVE",
"429 20 CURVE SMOOTH",
"370 20 OFFCURVE",
"334 53 OFFCURVE",
"302 99 CURVE",
"278 85 OFFCURVE",
"261 63 OFFCURVE",
"251 35 CURVE",
"292 2 OFFCURVE",
"349 -15 OFFCURVE",
"407 -15 CURVE SMOOTH",
"527 -15 OFFCURVE",
"605 57 OFFCURVE",
"605 162 CURVE SMOOTH",
"605 331 OFFCURVE",
"412 331 OFFCURVE",
"412 463 CURVE SMOOTH"
);
}
);
width = 619;
},
{
associatedMasterId = "230F8D9C-4AAC-4C97-935A-A5529CE4A32C";
layerId = "E9A81138-DAF8-418F-89E5-C84ACB3E0DEC";
name = "Apr 5 17, 11:26";
paths = (
{
closed = 1;
nodes = (
"308 0 LINE",
"308 23 LINE",
"269 25 OFFCURVE",
"253 35 OFFCURVE",
"253 100 CURVE",
"253 565 LINE",
"253 612 OFFCURVE",
"269 622 OFFCURVE",
"297 622 CURVE SMOOTH",
"457 622 LINE",
"457 620 LINE",
"304 372 LINE",
"304 370 LINE",
"537 450 LINE",
"537 452 LINE",
"629 590 LINE SMOOTH",
"640 607 OFFCURVE",
"653 625 OFFCURVE",
"666 642 CURVE",
"666 665 LINE",
"23 665 LINE",
"23 642 LINE",
"77 640 OFFCURVE",
"93 630 OFFCURVE",
"93 565 CURVE SMOOTH",
"93 100 LINE SMOOTH",
"93 35 OFFCURVE",
"77 25 OFFCURVE",
"38 23 CURVE",
"38 0 LINE"
);
},
{
closed = 1;
nodes = (
"608 -15 OFFCURVE",
"729 86 OFFCURVE",
"729 224 CURVE SMOOTH",
"729 345 OFFCURVE",
"637 411 OFFCURVE",
"537 450 CURVE",
"304 370 LINE",
"510 329 OFFCURVE",
"574 258 OFFCURVE",
"574 162 CURVE SMOOTH",
"574 97 OFFCURVE",
"545 30 OFFCURVE",
"480 30 CURVE SMOOTH",
"410 30 OFFCURVE",
"365 107 OFFCURVE",
"363 190 CURVE",
"340 190 LINE",
"312 153 OFFCURVE",
"305 115 OFFCURVE",
"305 91 CURVE SMOOTH",
"305 -1 OFFCURVE",
"410 -15 OFFCURVE",
"464 -15 CURVE SMOOTH"
);
},
{
closed = 0;
nodes = (
"666 642 LINE"
);
}
);
width = 752;
},
{
associatedMasterId = "230F8D9C-4AAC-4C97-935A-A5529CE4A32C";
guideLines = (
{
angle = 90;
position = "{333, 93}";
}
);
layerId = "2AF2AD9B-367B-4957-BA68-18E5F8B2D971";
name = "Apr 15 17, 10:21";
paths = (
{
closed = 1;
nodes = (
"273 0 LINE",
"273 23 LINE",
"227 25 OFFCURVE",
"211 30 OFFCURVE",
"211 100 CURVE",
"211 565 LINE",
"211 624 OFFCURVE",
"227 630 OFFCURVE",
"255 630 CURVE SMOOTH",
"500 630 LINE",
"500 628 LINE",
"593 642 LINE",
"593 665 LINE",
"38 665 LINE",
"38 642 LINE",
"120 640 OFFCURVE",
"136 635 OFFCURVE",
"136 565 CURVE SMOOTH",
"136 100 LINE SMOOTH",
"136 30 OFFCURVE",
"120 25 OFFCURVE",
"64 23 CURVE",
"64 0 LINE"
);
},
{
closed = 1;
nodes = (
"586 -15 OFFCURVE",
"677 37 OFFCURVE",
"677 161 CURVE SMOOTH",
"677 350 OFFCURVE",
"463 331 OFFCURVE",
"463 499 CURVE SMOOTH",
"463 550 OFFCURVE",
"494 632 OFFCURVE",
"593 642 CURVE",
"568 665 LINE",
"495 655 OFFCURVE",
"398 579 OFFCURVE",
"398 460 CURVE SMOOTH",
"398 269 OFFCURVE",
"610 294 OFFCURVE",
"610 136 CURVE SMOOTH",
"610 75 OFFCURVE",
"575 20 OFFCURVE",
"512 20 CURVE SMOOTH",
"451 20 OFFCURVE",
"387 79 OFFCURVE",
"381 185 CURVE",
"358 185 LINE",
"350 168 OFFCURVE",
"343 136 OFFCURVE",
"343 112 CURVE SMOOTH",
"343 13 OFFCURVE",
"454 -15 OFFCURVE",
"502 -15 CURVE SMOOTH"
);
}
);
width = 720;
},
{
associatedMasterId = "230F8D9C-4AAC-4C97-935A-A5529CE4A32C";
guideLines = (
{
angle = 90;
position = "{333, 93}";
}
);
layerId = "1A19E431-026D-401D-9A55-2543126D8524";
name = "Apr 15 17, 10:22";
paths = (
{
closed = 1;
nodes = (
"433 -15 LINE",
"588 -15 OFFCURVE",
"651 91 OFFCURVE",
"651 183 CURVE SMOOTH",
"651 300 OFFCURVE",
"551 367 OFFCURVE",
"442 373 CURVE",
"442 375 LINE",
"534 406 OFFCURVE",
"578 446 OFFCURVE",
"578 529 CURVE SMOOTH",
"578 609 OFFCURVE",
"518 670 OFFCURVE",
"331 670 CURVE SMOOTH",
"277 670 OFFCURVE",
"225 665 OFFCURVE",
"136 665 CURVE SMOOTH",
"38 665 LINE",
"38 642 LINE",
"120 640 OFFCURVE",
"136 635 OFFCURVE",
"136 565 CURVE SMOOTH",
"136 165 LINE",
"211 165 LINE",
"211 565 LINE SMOOTH",
"211 628 OFFCURVE",
"239 635 OFFCURVE",
"301 635 CURVE SMOOTH",
"416 635 OFFCURVE",
"498 611 OFFCURVE",
"498 516 CURVE SMOOTH",
"498 423 OFFCURVE",
"418 393 OFFCURVE",
"347 380 CURVE",
"347 348 LINE",
"488 348 OFFCURVE",
"571 288 OFFCURVE",
"571 181 CURVE SMOOTH",
"571 107 OFFCURVE",
"531 20 OFFCURVE",
"446 20 CURVE"
);
},
{
closed = 1;
nodes = (
"136 179 LINE",
"136 100 LINE SMOOTH",
"136 30 OFFCURVE",
"120 25 OFFCURVE",
"64 23 CURVE",
"64 0 LINE",
"259 0 LINE",
"259 23 LINE",
"227 25 OFFCURVE",
"211 30 OFFCURVE",
"211 100 CURVE SMOOTH",
"211 179 LINE"
);
},
{
closed = 1;
nodes = (
"365 -15 OFFCURVE",
"283 4 OFFCURVE",
"283 99 CURVE SMOOTH",
"283 127 OFFCURVE",
"290 158 OFFCURVE",
"298 175 CURVE",
"321 175 LINE",
"327 72 OFFCURVE",
"356 20 OFFCURVE",
"446 20 CURVE",
"433 -15 LINE"
);
}
);
width = 694;
},
{
associatedMasterId = "230F8D9C-4AAC-4C97-935A-A5529CE4A32C";
guideLines = (
{
angle = 90;
position = "{310, 93}";
}
);
layerId = "A24D03AB-A53E-45AF-8A12-C4F871F87A9C";
name = "Apr 15 17, 10:26";
paths = (
{
closed = 1;
nodes = (
"110 490 LINE",
"110 100 LINE SMOOTH",
"110 30 OFFCURVE",
"94 25 OFFCURVE",
"38 23 CURVE",
"38 0 LINE",
"243 0 LINE",
"243 23 LINE",
"201 25 OFFCURVE",
"185 30 OFFCURVE",
"185 100 CURVE SMOOTH",
"185 482 LINE"
);
},
{
closed = 1;
nodes = (
"472 512 LINE",
"418 471 OFFCURVE",
"396 424 OFFCURVE",
"396 383 CURVE SMOOTH",
"396 272 OFFCURVE",
"554 264 OFFCURVE",
"554 137 CURVE SMOOTH",
"554 74 OFFCURVE",
"515 19 OFFCURVE",
"436 19 CURVE SMOOTH",
"353 19 OFFCURVE",
"311 79 OFFCURVE",
"308 165 CURVE",
"285 165 LINE",
"277 148 OFFCURVE",
"270 115 OFFCURVE",
"270 93 CURVE SMOOTH",
"270 12 OFFCURVE",
"367 -16 OFFCURVE",
"430 -16 CURVE SMOOTH",
"528 -16 OFFCURVE",
"621 51 OFFCURVE",
"621 161 CURVE SMOOTH",
"621 305 OFFCURVE",
"464 305 OFFCURVE",
"464 398 CURVE SMOOTH",
"464 431 OFFCURVE",
"483 466 OFFCURVE",
"552 520 CURVE"
);
},
{
closed = 1;
nodes = (
"328 635 LINE",
"397 635 OFFCURVE",
"472 614 OFFCURVE",
"472 512 CURVE",
"552 520 LINE",
"552 613 OFFCURVE",
"482 670 OFFCURVE",
"356 670 CURVE"
);
},
{
closed = 1;
nodes = (
"230 670 OFFCURVE",
"110 603 OFFCURVE",
"110 490 CURVE",
"185 482 LINE",
"185 604 OFFCURVE",
"259 635 OFFCURVE",
"328 635 CURVE",
"356 670 LINE"
);
}
);
width = 664;
},
{
associatedMasterId = "230F8D9C-4AAC-4C97-935A-A5529CE4A32C";
guideLines = (
{
angle = 90;
position = "{333, 93}";
}
);
layerId = "8CAE14D9-83F8-4136-983D-CE85BE33F94B";
name = "Apr 15 17, 10:30";
paths = (
{
closed = 1;
nodes = (
"442 375 LINE",
"530 404 OFFCURVE",
"578 446 OFFCURVE",
"578 525 CURVE SMOOTH",
"578 622 OFFCURVE",
"507 670 OFFCURVE",
"390 670 CURVE SMOOTH",
"252 670 OFFCURVE",
"136 603 OFFCURVE",
"136 450 CURVE SMOOTH",
"136 100 LINE SMOOTH",
"136 30 OFFCURVE",
"120 25 OFFCURVE",
"64 23 CURVE",
"64 0 LINE",
"259 0 LINE",
"259 23 LINE",
"227 25 OFFCURVE",
"211 30 OFFCURVE",
"211 100 CURVE SMOOTH",
"211 442 LINE SMOOTH",
"211 604 OFFCURVE",
"293 635 OFFCURVE",
"369 635 CURVE SMOOTH",
"426 635 OFFCURVE",
"498 618 OFFCURVE",
"498 521 CURVE SMOOTH",
"498 423 OFFCURVE",
"425 395 OFFCURVE",
"347 380 CURVE",
"347 348 LINE",
"487 348 OFFCURVE",
"571 289 OFFCURVE",
"571 180 CURVE SMOOTH",
"571 113 OFFCURVE",
"539 20 OFFCURVE",
"438 20 CURVE SMOOTH",
"353 20 OFFCURVE",
"325 86 OFFCURVE",
"321 175 CURVE",
"298 175 LINE",
"290 158 OFFCURVE",
"283 127 OFFCURVE",
"283 99 CURVE SMOOTH",
"283 4 OFFCURVE",
"365 -15 OFFCURVE",
"432 -15 CURVE SMOOTH",
"589 -15 OFFCURVE",
"651 91 OFFCURVE",
"651 183 CURVE SMOOTH",
"651 300 OFFCURVE",
"551 367 OFFCURVE",
"442 373 CURVE"
);
}
);
width = 694;
},
{
associatedMasterId = "230F8D9C-4AAC-4C97-935A-A5529CE4A32C";
guideLines = (
{
angle = 90;
position = "{333, 93}";
}
);
layerId = "02881CFF-7CE4-47BD-AF37-3C30D65AE107";
name = "Apr 15 17, 10:37";
paths = (
{
closed = 1;
nodes = (
"568 510 LINE",
"568 602 OFFCURVE",
"518 671 OFFCURVE",
"341 671 CURVE SMOOTH",
"277 671 OFFCURVE",
"225 666 OFFCURVE",
"136 666 CURVE SMOOTH",
"38 666 LINE",
"38 643 LINE",
"120 641 OFFCURVE",
"136 636 OFFCURVE",
"136 566 CURVE SMOOTH",
"136 166 LINE",
"211 166 LINE",
"211 566 LINE SMOOTH",
"211 629 OFFCURVE",
"239 636 OFFCURVE",
"311 636 CURVE SMOOTH",
"416 636 OFFCURVE",
"488 602 OFFCURVE",
"488 497 CURVE"
);
},
{
closed = 1;
nodes = (
"136 179 LINE",
"136 100 LINE SMOOTH",
"136 30 OFFCURVE",
"120 25 OFFCURVE",
"64 23 CURVE",
"64 0 LINE",
"259 0 LINE",
"259 23 LINE",
"227 25 OFFCURVE",
"211 30 OFFCURVE",
"211 100 CURVE SMOOTH",
"211 179 LINE"
);
},
{
closed = 1;
nodes = (
"488 496 LINE",
"434 455 OFFCURVE",
"416 414 OFFCURVE",
"416 373 CURVE SMOOTH",
"416 252 OFFCURVE",
"584 264 OFFCURVE",
"584 137 CURVE SMOOTH",
"584 74 OFFCURVE",
"545 19 OFFCURVE",
"466 19 CURVE SMOOTH",
"383 19 OFFCURVE",
"341 79 OFFCURVE",
"338 165 CURVE",
"315 165 LINE",
"307 148 OFFCURVE",
"300 115 OFFCURVE",
"300 93 CURVE SMOOTH",
"300 12 OFFCURVE",
"397 -16 OFFCURVE",
"460 -16 CURVE SMOOTH",
"558 -16 OFFCURVE",
"651 51 OFFCURVE",
"651 161 CURVE SMOOTH",
"651 305 OFFCURVE",
"484 315 OFFCURVE",
"484 388 CURVE SMOOTH",
"484 431 OFFCURVE",
"499 475 OFFCURVE",
"568 509 CURVE"
);
}
);
width = 694;
},
{
associatedMasterId = "230F8D9C-4AAC-4C97-935A-A5529CE4A32C";
guideLines = (
{
angle = 90;
position = "{333, 93}";
}
);
layerId = "302E8DFC-788A-4380-95B7-80CAB3744561";
name = "Apr 15 17, 11:21";
paths = (
{
closed = 1;
nodes = (
"273 0 LINE",
"273 23 LINE",
"227 25 OFFCURVE",
"211 30 OFFCURVE",
"211 100 CURVE",
"211 565 LINE",
"211 624 OFFCURVE",
"227 630 OFFCURVE",
"255 630 CURVE SMOOTH",
"500 630 LINE",
"500 628 LINE",
"593 642 LINE",
"593 665 LINE",
"38 665 LINE",
"38 642 LINE",
"120 640 OFFCURVE",
"136 635 OFFCURVE",
"136 565 CURVE SMOOTH",
"136 100 LINE SMOOTH",
"136 30 OFFCURVE",
"120 25 OFFCURVE",
"64 23 CURVE",
"64 0 LINE"
);
},
{
closed = 1;
nodes = (
"602 -15 OFFCURVE",
"677 47 OFFCURVE",
"677 160 CURVE SMOOTH",
"677 351 OFFCURVE",
"463 330 OFFCURVE",
"463 499 CURVE SMOOTH",
"463 550 OFFCURVE",
"494 632 OFFCURVE",
"593 642 CURVE",
"568 665 LINE",
"495 655 OFFCURVE",
"398 579 OFFCURVE",
"398 460 CURVE SMOOTH",
"398 269 OFFCURVE",
"610 294 OFFCURVE",
"610 136 CURVE SMOOTH",
"610 75 OFFCURVE",
"578 20 OFFCURVE",
"508 20 CURVE SMOOTH",
"453 20 OFFCURVE",
"411 53 OFFCURVE",
"365 99 CURVE",
"348 76 OFFCURVE",
"339 44 OFFCURVE",
"345 16 CURVE",
"393 -9 OFFCURVE",
"456 -15 OFFCURVE",
"491 -15 CURVE SMOOTH"
);
}
);
width = 720;
},
{
associatedMasterId = "230F8D9C-4AAC-4C97-935A-A5529CE4A32C";
guideLines = (
{
angle = 90;
position = "{333, 93}";
}
);
layerId = "03E05CE5-10FA-46EA-885E-F0C32D5D55DB";
name = "Apr 15 17, 11:22";
paths = (
{
closed = 1;
nodes = (
"273 0 LINE",
"273 23 LINE",
"227 25 OFFCURVE",
"211 30 OFFCURVE",
"211 100 CURVE",
"211 565 LINE",
"211 624 OFFCURVE",
"227 630 OFFCURVE",
"255 630 CURVE SMOOTH",
"500 630 LINE",
"500 628 LINE",
"593 642 LINE",
"593 665 LINE",
"38 665 LINE",
"38 642 LINE",
"120 640 OFFCURVE",
"136 635 OFFCURVE",
"136 565 CURVE SMOOTH",
"136 100 LINE SMOOTH",
"136 30 OFFCURVE",
"120 25 OFFCURVE",
"64 23 CURVE",
"64 0 LINE"
);
},
{
closed = 1;
nodes = (
"469 20 LINE",
"414 20 OFFCURVE",
"378 58 OFFCURVE",
"350 99 CURVE",
"295 35 LINE",
"336 2 OFFCURVE",
"393 -15 OFFCURVE",
"451 -15 CURVE"
);
},
{
closed = 1;
nodes = (
"571 -15 OFFCURVE",
"647 53 OFFCURVE",
"647 168 CURVE SMOOTH",
"647 337 OFFCURVE",
"450 330 OFFCURVE",
"450 464 CURVE SMOOTH",
"450 530 OFFCURVE",
"495 599 OFFCURVE",
"602 642 CURVE",
"579 665 LINE",
"469 617 OFFCURVE",
"387 547 OFFCURVE",
"387 429 CURVE SMOOTH",
"387 263 OFFCURVE",
"584 283 OFFCURVE",
"584 143 CURVE SMOOTH",
"584 80 OFFCURVE",
"550 20 OFFCURVE",
"469 20 CURVE",
"451 -15 LINE"
);
}
);
width = 720;
},
{
associatedMasterId = "230F8D9C-4AAC-4C97-935A-A5529CE4A32C";
guideLines = (
{
angle = 90;
position = "{333, 93}";
},
{
angle = 52.125;
position = "{350, 62}";
}
);
layerId = "C7F915DB-EE67-47B6-8CA1-77633210A726";
name = "Apr 15 17, 15:01";
paths = (
{
closed = 1;
nodes = (
"249 0 LINE",
"249 23 LINE",
"204 25 OFFCURVE",
"188 30 OFFCURVE",
"193 100 CURVE",
"225 565 LINE",
"229 624 OFFCURVE",
"245 630 OFFCURVE",
"273 630 CURVE SMOOTH",
"528 630 LINE",
"528 628 LINE",
"602 642 LINE",
"604 665 LINE",
"84 665 LINE",
"84 642 LINE",
"144 639 OFFCURVE",
"160 634 OFFCURVE",
"155 565 CURVE SMOOTH",
"123 100 LINE SMOOTH",
"118 30 OFFCURVE",
"112 25 OFFCURVE",
"74 23 CURVE",
"74 0 LINE"
);
},
{
closed = 1;
nodes = (
"469 20 LINE",
"414 20 OFFCURVE",
"378 58 OFFCURVE",
"350 99 CURVE",
"295 35 LINE",
"336 2 OFFCURVE",
"393 -15 OFFCURVE",
"451 -15 CURVE"
);
},
{
closed = 1;
nodes = (
"571 -15 OFFCURVE",
"647 53 OFFCURVE",
"647 168 CURVE SMOOTH",
"647 337 OFFCURVE",
"450 330 OFFCURVE",
"450 464 CURVE SMOOTH",
"450 530 OFFCURVE",
"495 599 OFFCURVE",
"602 642 CURVE",
"579 665 LINE",
"469 617 OFFCURVE",
"387 547 OFFCURVE",
"387 429 CURVE SMOOTH",
"387 263 OFFCURVE",
"584 283 OFFCURVE",
"584 143 CURVE SMOOTH",
"584 80 OFFCURVE",
"550 20 OFFCURVE",
"469 20 CURVE",
"451 -15 LINE"
);
}
);
visible = 1;
width = 695;
},
{
associatedMasterId = "230F8D9C-4AAC-4C97-935A-A5529CE4A32C";
guideLines = (
{
angle = 90;
position = "{307, 93}";
}
);
layerId = "801E546E-7253-46DB-8AFD-64292F5D3185";
name = "Apr 15 17, 15:06";
paths = (
{
closed = 1;
nodes = (
"556 -15 OFFCURVE",
"631 49 OFFCURVE",
"631 157 CURVE SMOOTH",
"631 325 OFFCURVE",
"447 299 OFFCURVE",
"447 409 CURVE SMOOTH",
"447 440 OFFCURVE",
"462 485 OFFCURVE",
"561 525 CURVE",
"536 548 LINE",
"477 515 OFFCURVE",
"382 473 OFFCURVE",
"382 373 CURVE SMOOTH",
"382 234 OFFCURVE",
"564 269 OFFCURVE",
"564 133 CURVE SMOOTH",
"564 76 OFFCURVE",
"532 20 OFFCURVE",
"462 20 CURVE SMOOTH",
"407 20 OFFCURVE",
"365 53 OFFCURVE",
"319 99 CURVE",
"302 76 OFFCURVE",
"293 44 OFFCURVE",
"299 16 CURVE",
"347 -9 OFFCURVE",
"410 -15 OFFCURVE",
"445 -15 CURVE SMOOTH"
);
},
{
closed = 1;
nodes = (
"562 525 LINE",
"552 632 OFFCURVE",
"479 670 OFFCURVE",
"369 670 CURVE SMOOTH",
"224 670 OFFCURVE",
"110 603 OFFCURVE",
"110 450 CURVE SMOOTH",
"110 100 LINE SMOOTH",
"110 30 OFFCURVE",
"94 25 OFFCURVE",
"38 23 CURVE",
"38 0 LINE",
"233 0 LINE",
"233 23 LINE",
"201 25 OFFCURVE",
"185 30 OFFCURVE",
"185 100 CURVE SMOOTH",
"185 442 LINE SMOOTH",
"185 602 OFFCURVE",
"267 635 OFFCURVE",
"338 635 CURVE SMOOTH",
"412 635 OFFCURVE",
"478 608 OFFCURVE",
"488 511 CURVE"
);
}
);
width = 674;
},
{
associatedMasterId = "230F8D9C-4AAC-4C97-935A-A5529CE4A32C";
guideLines = (
{
angle = 90;
position = "{333, 93}";
}
);
layerId = "628A48C8-79FA-4F8F-9909-BC29D9782669";
name = "Apr 16 17, 19:11";
paths = (
{
closed = 1;
nodes = (
"273 0 LINE",
"273 23 LINE",
"227 25 OFFCURVE",
"211 30 OFFCURVE",
"211 100 CURVE",
"211 565 LINE",
"211 624 OFFCURVE",
"227 630 OFFCURVE",
"255 630 CURVE SMOOTH",
"500 630 LINE",
"500 628 LINE",
"333 382 LINE",
"333 380 LINE",
"439 420 LINE",
"439 422 LINE",
"558 590 LINE SMOOTH",
"570 607 OFFCURVE",
"580 625 OFFCURVE",
"593 642 CURVE",
"593 665 LINE",
"38 665 LINE",
"38 642 LINE",
"120 640 OFFCURVE",
"136 635 OFFCURVE",
"136 565 CURVE SMOOTH",
"136 100 LINE SMOOTH",
"136 30 OFFCURVE",
"120 25 OFFCURVE",
"64 23 CURVE",
"64 0 LINE"
);
},
{
closed = 1;
nodes = (
"531 -16 OFFCURVE",
"634 57 OFFCURVE",
"634 187 CURVE SMOOTH",
"634 312 OFFCURVE",
"536 384 OFFCURVE",
"439 420 CURVE",
"333 380 LINE",
"483 337 OFFCURVE",
"567 278 OFFCURVE",
"567 166 CURVE SMOOTH",
"567 79 OFFCURVE",
"518 19 OFFCURVE",
"437 19 CURVE SMOOTH",
"357 19 OFFCURVE",
"314 79 OFFCURVE",
"311 165 CURVE",
"288 165 LINE",
"280 148 OFFCURVE",
"273 115 OFFCURVE",
"273 93 CURVE SMOOTH",
"273 12 OFFCURVE",
"371 -16 OFFCURVE",
"432 -16 CURVE SMOOTH"
);
}
);
width = 677;
},
{
associatedMasterId = "230F8D9C-4AAC-4C97-935A-A5529CE4A32C";
guideLines = (
{
angle = 90;
position = "{333, 93}";
}
);
layerId = "0FA89348-89E8-4EDA-B2B5-1CC34D4B2E64";
name = old;
paths = (
{
closed = 1;
nodes = (
"273 0 LINE",
"273 23 LINE",
"227 25 OFFCURVE",
"211 30 OFFCURVE",
"211 100 CURVE",
"211 565 LINE",
"211 624 OFFCURVE",
"227 630 OFFCURVE",
"255 630 CURVE SMOOTH",
"500 630 LINE",
"500 628 LINE",
"333 382 LINE",
"333 380 LINE",
"439 420 LINE",
"439 422 LINE",
"558 590 LINE SMOOTH",
"570 607 OFFCURVE",
"580 625 OFFCURVE",
"593 642 CURVE",
"593 665 LINE",
"38 665 LINE",
"38 642 LINE",
"120 640 OFFCURVE",
"136 635 OFFCURVE",
"136 565 CURVE SMOOTH",
"136 100 LINE SMOOTH",
"136 30 OFFCURVE",
"120 25 OFFCURVE",
"64 23 CURVE",
"64 0 LINE"
);
},
{
closed = 1;
nodes = (
"531 -16 OFFCURVE",
"634 57 OFFCURVE",
"634 187 CURVE SMOOTH",
"634 312 OFFCURVE",
"536 384 OFFCURVE",
"439 420 CURVE",
"333 380 LINE",
"483 337 OFFCURVE",
"567 278 OFFCURVE",
"567 166 CURVE SMOOTH",
"567 79 OFFCURVE",
"518 19 OFFCURVE",
"437 19 CURVE SMOOTH",
"357 19 OFFCURVE",
"314 79 OFFCURVE",
"311 165 CURVE",
"288 165 LINE",
"280 148 OFFCURVE",
"273 115 OFFCURVE",
"273 93 CURVE SMOOTH",
"273 12 OFFCURVE",
"371 -16 OFFCURVE",
"432 -16 CURVE SMOOTH"
);
}
);
visible = 1;
width = 677;
},
{
associatedMasterId = "230F8D9C-4AAC-4C97-935A-A5529CE4A32C";
guideLines = (
{
angle = 90;
position = "{333, 93}";
}
);
layerId = "9E37440D-3517-482A-9759-A667936FCD0A";
name = OLD_ITALIC;
paths = (
{
closed = 1;
nodes = (
"273 0 LINE",
"273 23 LINE",
"227 25 OFFCURVE",
"211 30 OFFCURVE",
"211 100 CURVE",
"211 565 LINE",
"211 624 OFFCURVE",
"227 630 OFFCURVE",
"255 630 CURVE SMOOTH",
"500 630 LINE",
"500 628 LINE",
"333 382 LINE",
"333 380 LINE",
"439 420 LINE",
"439 422 LINE",
"558 590 LINE SMOOTH",
"570 607 OFFCURVE",
"580 625 OFFCURVE",
"593 642 CURVE",
"593 665 LINE",
"38 665 LINE",
"38 642 LINE",
"120 640 OFFCURVE",
"136 635 OFFCURVE",
"136 565 CURVE SMOOTH",
"136 100 LINE SMOOTH",
"136 30 OFFCURVE",
"120 25 OFFCURVE",
"64 23 CURVE",
"64 0 LINE"
);
},
{
closed = 1;
nodes = (
"531 -16 OFFCURVE",
"634 57 OFFCURVE",
"634 187 CURVE SMOOTH",
"634 312 OFFCURVE",
"536 384 OFFCURVE",
"439 420 CURVE",
"333 380 LINE",
"483 337 OFFCURVE",
"567 278 OFFCURVE",
"567 166 CURVE SMOOTH",
"567 79 OFFCURVE",
"518 19 OFFCURVE",
"437 19 CURVE SMOOTH",
"357 19 OFFCURVE",
"314 79 OFFCURVE",
"311 165 CURVE",
"288 165 LINE",
"280 148 OFFCURVE",
"273 115 OFFCURVE",
"273 93 CURVE SMOOTH",
"273 12 OFFCURVE",
"371 -16 OFFCURVE",
"432 -16 CURVE SMOOTH"
);
}
);
width = 677;
},
{
associatedMasterId = "230F8D9C-4AAC-4C97-935A-A5529CE4A32C";
guideLines = (
{
angle = 90;
position = "{298, 347}";
}
);
layerId = "5F367A27-C436-4786-A006-1B8126306554";
name = BOLD;
paths = (
{
closed = 1;
nodes = (
"298 0 LINE",
"298 23 LINE",
"269 25 OFFCURVE",
"253 35 OFFCURVE",
"253 100 CURVE",
"253 565 LINE",
"253 612 OFFCURVE",
"269 622 OFFCURVE",
"297 622 CURVE SMOOTH",
"467 622 LINE",
"467 620 LINE",
"308 357 LINE",
"308 355 LINE",
"531 433 LINE",
"531 435 LINE",
"629 590 LINE SMOOTH",
"640 607 OFFCURVE",
"653 625 OFFCURVE",
"668 642 CURVE",
"668 665 LINE",
"23 665 LINE",
"23 642 LINE",
"77 640 OFFCURVE",
"93 630 OFFCURVE",
"93 565 CURVE SMOOTH",
"93 100 LINE SMOOTH",
"93 35 OFFCURVE",
"77 25 OFFCURVE",
"38 23 CURVE",
"38 0 LINE"
);
},
{
closed = 1;
nodes = (
"587 -15 OFFCURVE",
"703 69 OFFCURVE",
"703 212 CURVE SMOOTH",
"703 323 OFFCURVE",
"632 397 OFFCURVE",
"531 433 CURVE",
"308 355 LINE",
"492 330 OFFCURVE",
"548 249 OFFCURVE",
"548 154 CURVE SMOOTH",
"548 63 OFFCURVE",
"506 30 OFFCURVE",
"462 30 CURVE SMOOTH",
"402 30 OFFCURVE",
"359 91 OFFCURVE",
"356 180 CURVE",
"333 180 LINE",
"305 143 OFFCURVE",
"298 115 OFFCURVE",
"298 91 CURVE SMOOTH",
"298 0 OFFCURVE",
"400 -15 OFFCURVE",
"456 -15 CURVE SMOOTH"
);
}
);
width = 736;
},
{
associatedMasterId = "230F8D9C-4AAC-4C97-935A-A5529CE4A32C";
layerId = "80628BE6-A8FB-480E-92B8-7C52D39AD99C";
width = 600;
}
);
leftKerningGroup = H;
leftMetricsKey = "=B";
rightKerningGroup = O;
unicode = 1E9E;
},
{
color = 6;
glyphname = Schwa;
layers = (
{
anchors = (
{
name = bottom;
position = "{313, 0}";
},
{
name = top;
position = "{363, 665}";
}
);
layerId = "230F8D9C-4AAC-4C97-935A-A5529CE4A32C";
paths = (
{
closed = 1;
nodes = (
"269 680 OFFCURVE",
"192 668 OFFCURVE",
"117 643 CURVE",
"102 485 LINE",
"125 485 LINE",
"144 609 OFFCURVE",
"264 647 OFFCURVE",
"352 647 CURVE SMOOTH",
"515 647 OFFCURVE",
"599 518 OFFCURVE",
"599 367 CURVE SMOOTH",
"599 184 OFFCURVE",
"504 18 OFFCURVE",
"328 18 CURVE SMOOTH",
"199 18 OFFCURVE",
"122 141 OFFCURVE",
"137 275 CURVE",
"623 275 LINE",
"628 305 LINE",
"57 305 LINE",
"45 107 OFFCURVE",
"168 -15 OFFCURVE",
"327 -15 CURVE SMOOTH",
"540 -15 OFFCURVE",
"679 154 OFFCURVE",
"679 368 CURVE SMOOTH",
"679 535 OFFCURVE",
"570 680 OFFCURVE",
"336 680 CURVE SMOOTH"
);
}
);
width = 722;
},
{
associatedMasterId = "230F8D9C-4AAC-4C97-935A-A5529CE4A32C";
layerId = "37DD2CA1-C758-4BBE-932B-6884A881B1A3";
name = Bold;
width = 600;
}
);
leftKerningGroup = O;
leftMetricsKey = "=O*1.3";
rightKerningGroup = O;
rightMetricsKey = "=O";
unicode = 018F;
},
{
color = 6;
glyphname = T;
layers = (
{
anchors = (
{
name = bottom;
position = "{237, 0}";
},
{
name = center;
position = "{443, 383}";
},
{
name = top;
position = "{296, 665}";
}
);
layerId = "230F8D9C-4AAC-4C97-935A-A5529CE4A32C";
paths = (
{
closed = 1;
nodes = (
"351 0 LINE",
"351 23 LINE",
"301 25 OFFCURVE",
"285 30 OFFCURVE",
"290 100 CURVE SMOOTH",
"327 635 LINE",
"401 635 LINE SMOOTH",
"497 635 OFFCURVE",
"513 580 OFFCURVE",
"513 510 CURVE",
"536 510 LINE",
"546 665 LINE",
"38 665 LINE",
"28 510 LINE",
"51 510 LINE",
"56 580 OFFCURVE",
"88 635 OFFCURVE",
"176 635 CURVE SMOOTH",
"257 635 LINE",
"220 100 LINE SMOOTH",
"215 30 OFFCURVE",
"199 25 OFFCURVE",
"131 23 CURVE",
"131 0 LINE"
);
}
);
width = 574;
},
{
associatedMasterId = "230F8D9C-4AAC-4C97-935A-A5529CE4A32C";
layerId = "80628BE6-A8FB-480E-92B8-7C52D39AD99C";
width = 600;
}
);
leftKerningGroup = T;
rightKerningGroup = T;
unicode = 0054;
},
{
color = 6;
glyphname = U;
layers = (
{
anchors = (
{
name = bottom;
position = "{313, 0}";
},
{
name = ogonek;
position = "{605, 0}";
},
{
name = top;
position = "{363, 665}";
},
{
name = topright;
position = "{680, 665}";
}
);
layerId = "230F8D9C-4AAC-4C97-935A-A5529CE4A32C";
paths = (
{
closed = 1;
nodes = (
"343 -15 OFFCURVE",
"457 58 OFFCURVE",
"519 175 CURVE",
"521 175 LINE",
"516 100 LINE SMOOTH",
"513 48 OFFCURVE",
"515 21 OFFCURVE",
"522 0 CURVE",
"652 0 LINE",
"652 23 LINE",
"592 25 OFFCURVE",
"576 30 OFFCURVE",
"581 100 CURVE SMOOTH",
"613 565 LINE SMOOTH",
"618 634 OFFCURVE",
"624 639 OFFCURVE",
"662 642 CURVE",
"662 665 LINE",
"477 665 LINE",
"477 642 LINE",
"537 639 OFFCURVE",
"553 634 OFFCURVE",
"548 565 CURVE SMOOTH",
"531 322 LINE SMOOTH",
"520 167 OFFCURVE",
"381 30 OFFCURVE",
"252 30 CURVE SMOOTH",
"164 30 OFFCURVE",
"146 98 OFFCURVE",
"151 175 CURVE SMOOTH",
"178 565 LINE SMOOTH",
"183 634 OFFCURVE",
"189 639 OFFCURVE",
"227 642 CURVE",
"227 665 LINE",
"38 665 LINE",
"38 642 LINE",
"97 639 OFFCURVE",
"113 634 OFFCURVE",
"108 565 CURVE SMOOTH",
"80 158 LINE SMOOTH",
"73 50 OFFCURVE",
"113 -15 OFFCURVE",
"234 -15 CURVE SMOOTH"
);
}
);
width = 709;
},
{
anchors = (
{
name = bottom;
position = "{360, 0}";
},
{
name = ogonek;
position = "{641, 0}";
},
{
name = top;
position = "{360, 665}";
},
{
name = topright;
position = "{700, 665}";
}
);
associatedMasterId = "230F8D9C-4AAC-4C97-935A-A5529CE4A32C";
layerId = "B3664780-2BB8-4411-9D9C-8D4167FA4263";
name = "Jun 21 17, 10:24";
paths = (
{
closed = 1;
nodes = (
"587 565 LINE SMOOTH",
"587 635 OFFCURVE",
"603 640 OFFCURVE",
"659 642 CURVE",
"659 665 LINE",
"444 665 LINE",
"444 642 LINE",
"526 640 OFFCURVE",
"542 635 OFFCURVE",
"542 565 CURVE SMOOTH",
"542 322 LINE SMOOTH",
"542 167 OFFCURVE",
"429 45 OFFCURVE",
"302 45 CURVE SMOOTH",
"213 45 OFFCURVE",
"186 105 OFFCURVE",
"186 183 CURVE SMOOTH",
"186 565 LINE SMOOTH",
"186 635 OFFCURVE",
"202 640 OFFCURVE",
"258 642 CURVE",
"258 665 LINE",
"23 665 LINE",
"23 642 LINE",
"95 640 OFFCURVE",
"111 635 OFFCURVE",
"111 565 CURVE SMOOTH",
"111 158 LINE SMOOTH",
"111 50 OFFCURVE",
"168 -15 OFFCURVE",
"280 -15 CURVE SMOOTH",
"401 -15 OFFCURVE",
"486 60 OFFCURVE",
"540 185 CURVE",
"542 185 LINE",
"542 100 LINE SMOOTH",
"542 48 OFFCURVE",
"546 21 OFFCURVE",
"554 0 CURVE",
"662 0 LINE",
"662 23 LINE",
"603 25 OFFCURVE",
"587 30 OFFCURVE",
"587 100 CURVE SMOOTH"
);
}
);
width = 720;
},
{
anchors = (
{
name = bottom;
position = "{360, 0}";
},
{
name = ogonek;
position = "{641, 0}";
},
{
name = top;
position = "{360, 665}";
},
{
name = topright;
position = "{700, 665}";
}
);
associatedMasterId = "230F8D9C-4AAC-4C97-935A-A5529CE4A32C";
layerId = "1DD0EA4C-1575-4777-B730-A6067A35B0B4";
name = "Jun 21 17, 10:24";
paths = (
{
closed = 1;
nodes = (
"587 565 LINE SMOOTH",
"587 635 OFFCURVE",
"603 640 OFFCURVE",
"659 642 CURVE",
"659 665 LINE",
"444 665 LINE",
"444 642 LINE",
"526 640 OFFCURVE",
"542 635 OFFCURVE",
"542 565 CURVE SMOOTH",
"542 322 LINE SMOOTH",
"542 167 OFFCURVE",
"429 45 OFFCURVE",
"302 45 CURVE SMOOTH",
"213 45 OFFCURVE",
"186 105 OFFCURVE",
"186 183 CURVE SMOOTH",
"186 565 LINE SMOOTH",
"186 635 OFFCURVE",
"202 640 OFFCURVE",
"258 642 CURVE",
"258 665 LINE",
"23 665 LINE",
"23 642 LINE",
"95 640 OFFCURVE",
"111 635 OFFCURVE",
"111 565 CURVE SMOOTH",
"111 158 LINE SMOOTH",
"111 50 OFFCURVE",
"168 -15 OFFCURVE",
"280 -15 CURVE SMOOTH",
"401 -15 OFFCURVE",
"486 60 OFFCURVE",
"540 185 CURVE",
"542 185 LINE",
"542 100 LINE SMOOTH",
"542 48 OFFCURVE",
"546 21 OFFCURVE",
"554 0 CURVE",
"662 0 LINE",
"662 23 LINE",
"603 25 OFFCURVE",
"587 30 OFFCURVE",
"587 100 CURVE SMOOTH"
);
}
);
width = 720;
},
{
associatedMasterId = "230F8D9C-4AAC-4C97-935A-A5529CE4A32C";
layerId = "80628BE6-A8FB-480E-92B8-7C52D39AD99C";
width = 600;
}
);
leftKerningGroup = U;
leftMetricsKey = "=I*0.9";
rightKerningGroup = H;
rightMetricsKey = "=I+5";
unicode = 0055;
},
{
color = 6;
glyphname = Uhorn;
layers = (
{
anchors = (
{
name = bottom;
position = "{313, 0}";
},
{
name = ogonek;
position = "{605, 0}";
},
{
name = top;
position = "{363, 665}";
},
{
name = topright;
position = "{680, 665}";
}
);
layerId = "230F8D9C-4AAC-4C97-935A-A5529CE4A32C";
paths = (
{
closed = 1;
nodes = (
"696 808 OFFCURVE",
"680 806 OFFCURVE",
"671 803 CURVE",
"671 780 LINE",
"717 774 OFFCURVE",
"724 750 OFFCURVE",
"724 730 CURVE SMOOTH",
"724 689 OFFCURVE",
"687 665 OFFCURVE",
"630 665 CURVE SMOOTH",
"477 665 LINE",
"477 642 LINE",
"537 639 OFFCURVE",
"553 634 OFFCURVE",
"548 565 CURVE SMOOTH",
"531 322 LINE SMOOTH",
"520 167 OFFCURVE",
"381 30 OFFCURVE",
"252 30 CURVE SMOOTH",
"164 30 OFFCURVE",
"146 98 OFFCURVE",
"151 175 CURVE SMOOTH",
"178 565 LINE SMOOTH",
"183 634 OFFCURVE",
"189 639 OFFCURVE",
"227 642 CURVE",
"227 665 LINE",
"38 665 LINE",
"38 642 LINE",
"97 639 OFFCURVE",
"113 634 OFFCURVE",
"108 565 CURVE SMOOTH",
"80 158 LINE SMOOTH",
"73 50 OFFCURVE",
"113 -15 OFFCURVE",
"234 -15 CURVE SMOOTH",
"343 -15 OFFCURVE",
"457 58 OFFCURVE",
"519 175 CURVE",
"521 175 LINE",
"516 100 LINE SMOOTH",
"513 48 OFFCURVE",
"515 21 OFFCURVE",
"522 0 CURVE",
"652 0 LINE",
"652 23 LINE",
"592 25 OFFCURVE",
"576 30 OFFCURVE",
"581 100 CURVE SMOOTH",
"613 565 LINE SMOOTH",
"618 634 OFFCURVE",
"624 640 OFFCURVE",
"662 642 CURVE SMOOTH",
"725 645 OFFCURVE",
"780 692 OFFCURVE",
"780 748 CURVE SMOOTH",
"780 783 OFFCURVE",
"755 808 OFFCURVE",
"711 808 CURVE SMOOTH"
);
}
);
width = 709;
}
);
leftKerningGroup = U;
rightKerningGroup = H;
unicode = 01AF;
},
{
color = 6;
glyphname = V;
layers = (
{
anchors = (
{
name = bottom;
position = "{293, 0}";
},
{
name = top;
position = "{313, 665}";
}
);
layerId = "230F8D9C-4AAC-4C97-935A-A5529CE4A32C";
paths = (
{
closed = 1;
nodes = (
"283 -8 LINE",
"293 27 OFFCURVE",
"302 53 OFFCURVE",
"313 79 CURVE SMOOTH",
"510 565 LINE SMOOTH",
"538 634 OFFCURVE",
"554 639 OFFCURVE",
"582 642 CURVE",
"582 665 LINE",
"404 665 LINE",
"404 642 LINE",
"480 639 OFFCURVE",
"496 634 OFFCURVE",
"468 565 CURVE SMOOTH",
"288 115 LINE",
"286 115 LINE",
"164 565 LINE SMOOTH",
"145 634 OFFCURVE",
"153 639 OFFCURVE",
"194 642 CURVE",
"194 665 LINE",
"5 665 LINE",
"5 642 LINE",
"58 639 OFFCURVE",
"73 634 OFFCURVE",
"91 565 CURVE SMOOTH",
"220 79 LINE SMOOTH",
"227 53 OFFCURVE",
"234 27 OFFCURVE",
"240 -8 CURVE"
);
}
);
width = 585;
},
{
associatedMasterId = "230F8D9C-4AAC-4C97-935A-A5529CE4A32C";
layerId = "80628BE6-A8FB-480E-92B8-7C52D39AD99C";
width = 600;
}
);
leftKerningGroup = V;
rightKerningGroup = V;
unicode = 0056;
},
{
color = 6;
glyphname = W;
layers = (
{
anchors = (
{
name = bottom;
position = "{428, 0}";
},
{
name = top;
position = "{438, 665}";
}
);
layerId = "230F8D9C-4AAC-4C97-935A-A5529CE4A32C";
paths = (
{
closed = 1;
nodes = (
"198 -8 LINE",
"207 27 OFFCURVE",
"214 50 OFFCURVE",
"226 79 CURVE SMOOTH",
"421 560 LINE",
"423 560 LINE",
"565 79 LINE SMOOTH",
"573 53 OFFCURVE",
"579 27 OFFCURVE",
"585 -8 CURVE",
"628 -8 LINE",
"633 27 OFFCURVE",
"639 53 OFFCURVE",
"646 79 CURVE SMOOTH",
"774 565 LINE SMOOTH",
"792 634 OFFCURVE",
"808 639 OFFCURVE",
"841 642 CURVE",
"841 665 LINE",
"663 665 LINE",
"663 642 LINE",
"733 639 OFFCURVE",
"749 634 OFFCURVE",
"732 565 CURVE SMOOTH",
"625 137 LINE",
"624 137 LINE",
"498 563 LINE SMOOTH",
"487 599 OFFCURVE",
"477 636 OFFCURVE",
"468 673 CURVE",
"425 673 LINE",
"213 137 LINE",
"211 137 LINE",
"158 565 LINE SMOOTH",
"149 634 OFFCURVE",
"156 639 OFFCURVE",
"223 642 CURVE",
"223 665 LINE",
"23 665 LINE",
"23 642 LINE",
"61 639 OFFCURVE",
"77 634 OFFCURVE",
"86 565 CURVE SMOOTH",
"146 79 LINE SMOOTH",
"149 54 OFFCURVE",
"152 27 OFFCURVE",
"155 -8 CURVE"
);
}
);
width = 846;
},
{
associatedMasterId = "230F8D9C-4AAC-4C97-935A-A5529CE4A32C";
layerId = "80628BE6-A8FB-480E-92B8-7C52D39AD99C";
width = 600;
}
);
leftKerningGroup = W;
rightKerningGroup = W;
unicode = 0057;
},
{
color = 6;
glyphname = X;
layers = (
{
anchors = (
{
name = bottom;
position = "{299, 0}";
},
{
name = top;
position = "{339, 665}";
}
);
layerId = "230F8D9C-4AAC-4C97-935A-A5529CE4A32C";
paths = (
{
closed = 1;
nodes = (
"195 0 LINE",
"195 23 LINE",
"127 25 OFFCURVE",
"110 30 OFFCURVE",
"154 100 CURVE SMOOTH",
"291 315 LINE",
"293 315 LINE",
"389 100 LINE SMOOTH",
"420 30 OFFCURVE",
"404 25 OFFCURVE",
"365 23 CURVE",
"365 0 LINE",
"569 0 LINE",
"569 23 LINE",
"516 25 OFFCURVE",
"501 30 OFFCURVE",
"469 100 CURVE SMOOTH",
"356 348 LINE SMOOTH",
"347 367 OFFCURVE",
"351 388 OFFCURVE",
"363 405 CURVE SMOOTH",
"470 565 LINE SMOOTH",
"516 634 OFFCURVE",
"533 639 OFFCURVE",
"574 642 CURVE",
"574 665 LINE",
"393 665 LINE",
"393 642 LINE",
"453 639 OFFCURVE",
"469 634 OFFCURVE",
"424 565 CURVE SMOOTH",
"327 414 LINE",
"325 414 LINE",
"257 565 LINE SMOOTH",
"226 634 OFFCURVE",
"242 639 OFFCURVE",
"282 642 CURVE",
"282 665 LINE",
"77 665 LINE",
"77 642 LINE",
"130 639 OFFCURVE",
"147 634 OFFCURVE",
"178 565 CURVE SMOOTH",
"262 380 LINE SMOOTH",
"272 359 OFFCURVE",
"266 346 OFFCURVE",
"253 326 CURVE SMOOTH",
"107 100 LINE SMOOTH",
"62 30 OFFCURVE",
"47 25 OFFCURVE",
"3 23 CURVE",
"3 0 LINE"
);
}
);
width = 597;
},
{
associatedMasterId = "230F8D9C-4AAC-4C97-935A-A5529CE4A32C";
layerId = "80628BE6-A8FB-480E-92B8-7C52D39AD99C";
width = 600;
}
);
leftKerningGroup = X;
rightKerningGroup = X;
unicode = 0058;
},
{
color = 6;
glyphname = Y;
layers = (
{
anchors = (
{
name = bottom;
position = "{214, 0}";
},
{
name = top;
position = "{284, 665}";
},
{
name = topleft;
position = "{12, 665}";
}
);
guideLines = (
{
position = "{296, 355}";
},
{
position = "{296, 287}";
}
);
layerId = "230F8D9C-4AAC-4C97-935A-A5529CE4A32C";
paths = (
{
closed = 1;
nodes = (
"320 0 LINE",
"320 23 LINE",
"270 25 OFFCURVE",
"254 30 OFFCURVE",
"259 100 CURVE SMOOTH",
"272 287 LINE SMOOTH",
"275 323 OFFCURVE",
"282 333 OFFCURVE",
"296 355 CURVE SMOOTH",
"432 565 LINE SMOOTH",
"477 634 OFFCURVE",
"483 639 OFFCURVE",
"513 642 CURVE",
"513 665 LINE",
"345 665 LINE",
"345 642 LINE",
"414 639 OFFCURVE",
"430 634 OFFCURVE",
"386 565 CURVE SMOOTH",
"262 370 LINE",
"260 370 LINE",
"176 565 LINE SMOOTH",
"146 634 OFFCURVE",
"153 639 OFFCURVE",
"200 642 CURVE",
"200 665 LINE",
"5 665 LINE",
"5 642 LINE",
"56 639 OFFCURVE",
"72 634 OFFCURVE",
"101 565 CURVE SMOOTH",
"189 355 LINE SMOOTH",
"198 333 OFFCURVE",
"204 314 OFFCURVE",
"202 287 CURVE SMOOTH",
"189 100 LINE SMOOTH",
"184 30 OFFCURVE",
"168 25 OFFCURVE",
"100 23 CURVE",
"100 0 LINE"
);
}
);
width = 516;
},
{
associatedMasterId = "230F8D9C-4AAC-4C97-935A-A5529CE4A32C";
layerId = "80628BE6-A8FB-480E-92B8-7C52D39AD99C";
width = 600;
}
);
leftKerningGroup = V;
leftMetricsKey = "=V";
rightKerningGroup = V;
rightMetricsKey = "=V";
unicode = 0059;
},
{
color = 6;
glyphname = Z;
layers = (
{
anchors = (
{
name = bottom;
position = "{272, 0}";
},
{
name = top;
position = "{292, 665}";
}
);
guideLines = (
{
angle = 266.1859;
position = "{74, 665}";
}
);
layerId = "230F8D9C-4AAC-4C97-935A-A5529CE4A32C";
paths = (
{
closed = 1;
nodes = (
"489 0 LINE",
"508 155 LINE",
"485 155 LINE",
"474 93 OFFCURVE",
"441 41 OFFCURVE",
"341 38 CURVE SMOOTH",
"110 30 LINE",
"110 32 LINE",
"481 589 LINE SMOOTH",
"492 606 OFFCURVE",
"505 625 OFFCURVE",
"520 642 CURVE",
"520 665 LINE",
"74 665 LINE",
"64 510 LINE",
"87 510 LINE",
"95 571 OFFCURVE",
"118 626 OFFCURVE",
"193 628 CURVE SMOOTH",
"425 635 LINE",
"425 633 LINE",
"53 75 LINE SMOOTH",
"42 58 OFFCURVE",
"28 39 OFFCURVE",
"13 23 CURVE",
"13 0 LINE"
);
}
);
width = 563;
},
{
associatedMasterId = "230F8D9C-4AAC-4C97-935A-A5529CE4A32C";
layerId = "80628BE6-A8FB-480E-92B8-7C52D39AD99C";
width = 600;
}
);
leftKerningGroup = Z;
rightKerningGroup = Z;
unicode = 005A;
},
{
color = 6;
glyphname = Q.ss03;
layers = (
{
anchors = (
{
name = bottom;
position = "{356, -225}";
},
{
name = top;
position = "{376, 665}";
}
);
layerId = "230F8D9C-4AAC-4C97-935A-A5529CE4A32C";
paths = (
{
closed = 1;
nodes = (
"607 -178 OFFCURVE",
"642 -131 OFFCURVE",
"661 -87 CURVE",
"640 -79 LINE",
"616 -119 OFFCURVE",
"603 -131 OFFCURVE",
"568 -131 CURVE SMOOTH",
"482 -131 OFFCURVE",
"400 -40 OFFCURVE",
"258 -54 CURVE",
"258 -52 LINE",
"284 -30 OFFCURVE",
"315 -20 OFFCURVE",
"370 -14 CURVE SMOOTH",
"569 7 OFFCURVE",
"701 174 OFFCURVE",
"701 362 CURVE SMOOTH",
"701 564 OFFCURVE",
"560 680 OFFCURVE",
"404 680 CURVE SMOOTH",
"227 680 OFFCURVE",
"43 533 OFFCURVE",
"43 304 CURVE SMOOTH",
"43 129 OFFCURVE",
"155 22 OFFCURVE",
"283 -6 CURVE",
"283 -8 LINE",
"234 -30 OFFCURVE",
"193 -67 OFFCURVE",
"163 -95 CURVE",
"179 -111 LINE",
"205 -89 OFFCURVE",
"231 -79 OFFCURVE",
"256 -79 CURVE SMOOTH",
"339 -79 OFFCURVE",
"459 -187 OFFCURVE",
"564 -200 CURVE"
);
},
{
closed = 1;
nodes = (
"210 18 OFFCURVE",
"118 121 OFFCURVE",
"118 301 CURVE SMOOTH",
"118 514 OFFCURVE",
"246 647 OFFCURVE",
"399 647 CURVE SMOOTH",
"534 647 OFFCURVE",
"626 544 OFFCURVE",
"626 364 CURVE SMOOTH",
"626 151 OFFCURVE",
"498 18 OFFCURVE",
"345 18 CURVE SMOOTH"
);
}
);
width = 751;
},
{
associatedMasterId = "230F8D9C-4AAC-4C97-935A-A5529CE4A32C";
layerId = "80628BE6-A8FB-480E-92B8-7C52D39AD99C";
name = "new Layer";
width = 600;
}
);
leftKerningGroup = O;
leftMetricsKey = "=O";
rightKerningGroup = O;
},
{
color = 6;
glyphname = A.swsh;
layers = (
{
anchors = (
{
name = bottom;
position = "{433, 0}";
},
{
name = ogonek;
position = "{719, 10}";
},
{
name = top;
position = "{533, 665}";
}
);
layerId = "230F8D9C-4AAC-4C97-935A-A5529CE4A32C";
paths = (
{
closed = 1;
nodes = (
"576 586 LINE SMOOTH",
"568 621 OFFCURVE",
"560 653 OFFCURVE",
"554 688 CURVE",
"511 688 LINE",
"498 653 OFFCURVE",
"483 621 OFFCURVE",
"467 586 CURVE SMOOTH",
"249 100 LINE SMOOTH",
"167 -83 OFFCURVE",
"146 -125 OFFCURVE",
"97 -125 CURVE SMOOTH",
"53 -125 OFFCURVE",
"33 -91 OFFCURVE",
"33 -51 CURVE SMOOTH",
"33 -14 OFFCURVE",
"51 41 OFFCURVE",
"120 74 CURVE",
"120 100 LINE",
"21 65 OFFCURVE",
"-27 -5 OFFCURVE",
"-27 -77 CURVE SMOOTH",
"-27 -146 OFFCURVE",
"17 -195 OFFCURVE",
"79 -195 CURVE SMOOTH",
"160 -195 OFFCURVE",
"197 -111 OFFCURVE",
"291 100 CURVE SMOOTH",
"357 248 LINE SMOOTH",
"368 273 OFFCURVE",
"381 275 OFFCURVE",
"408 275 CURVE SMOOTH",
"540 275 LINE SMOOTH",
"553 275 OFFCURVE",
"566 276 OFFCURVE",
"575 283 CURVE",
"620 100 LINE SMOOTH",
"637 30 OFFCURVE",
"632 25 OFFCURVE",
"585 23 CURVE",
"585 0 LINE",
"778 0 LINE",
"778 23 LINE",
"726 25 OFFCURVE",
"710 30 OFFCURVE",
"693 100 CURVE SMOOTH"
);
},
{
closed = 1;
nodes = (
"408 305 LINE SMOOTH",
"398 305 OFFCURVE",
"389 305 OFFCURVE",
"381 302 CURVE",
"503 576 LINE",
"505 576 LINE",
"564 330 LINE SMOOTH",
"569 309 OFFCURVE",
"562 305 OFFCURVE",
"545 305 CURVE SMOOTH"
);
}
);
width = 791;
},
{
anchors = (
{
name = bottom;
position = "{443, 0}";
},
{
name = ogonek;
position = "{729, 10}";
},
{
name = top;
position = "{543, 665}";
}
);
associatedMasterId = "230F8D9C-4AAC-4C97-935A-A5529CE4A32C";
components = (
{
alignment = -1;
name = A;
},
{
alignment = -1;
name = _com_swash_caps;
transform = "{1, 0, 0, 1, 113, 0}";
}
);
layerId = "E1C1B8B6-84D9-4E13-BA4A-583F240CE751";
name = "Jun 16 17, 01:43";
width = 607;
},
{
associatedMasterId = "230F8D9C-4AAC-4C97-935A-A5529CE4A32C";
layerId = "80628BE6-A8FB-480E-92B8-7C52D39AD99C";
width = 600;
},
{
anchors = (
{
name = bottom;
position = "{433, 0}";
},
{
name = ogonek;
position = "{719, 10}";
},
{
name = top;
position = "{533, 665}";
}
);
associatedMasterId = "230F8D9C-4AAC-4C97-935A-A5529CE4A32C";
layerId = "67066A6D-300C-4D69-802A-4B3DE4DD543E";
name = "Jul 6 17, 11:13";
paths = (
{
closed = 1;
nodes = (
"370 280 OFFCURVE",
"378 285 OFFCURVE",
"412 285 CURVE",
"539 285 LINE",
"552 285 OFFCURVE",
"566 286 OFFCURVE",
"575 293 CURVE",
"562 344 LINE",
"568 320 OFFCURVE",
"564 315 OFFCURVE",
"544 315 CURVE",
"412 315 LINE",
"401 315 OFFCURVE",
"391 315 OFFCURVE",
"383 311 CURVE",
"351 236 LINE"
);
},
{
closed = 1;
nodes = (
"576 586 LINE SMOOTH",
"568 621 OFFCURVE",
"560 653 OFFCURVE",
"554 688 CURVE",
"511 688 LINE",
"496 647 OFFCURVE",
"472 598 OFFCURVE",
"467 586 CURVE SMOOTH",
"329 280 LINE SMOOTH",
"247 99 OFFCURVE",
"226 55 OFFCURVE",
"77 55 CURVE SMOOTH",
"33 55 OFFCURVE",
"13 89 OFFCURVE",
"13 129 CURVE SMOOTH",
"13 166 OFFCURVE",
"31 221 OFFCURVE",
"100 254 CURVE",
"100 280 LINE",
"1 245 OFFCURVE",
"-47 175 OFFCURVE",
"-47 103 CURVE SMOOTH",
"-47 34 OFFCURVE",
"-3 -15 OFFCURVE",
"59 -15 CURVE SMOOTH",
"240 -15 OFFCURVE",
"278 72 OFFCURVE",
"371 280 CURVE SMOOTH",
"503 576 LINE",
"505 576 LINE",
"620 100 LINE SMOOTH",
"637 30 OFFCURVE",
"632 25 OFFCURVE",
"585 23 CURVE",
"585 0 LINE",
"778 0 LINE",
"778 23 LINE",
"726 25 OFFCURVE",
"710 30 OFFCURVE",
"693 100 CURVE SMOOTH"
);
}
);
width = 791;
}
);
leftMetricsKey = "=A";
rightKerningGroup = A;
rightMetricsKey = "=A";
},
{
color = 3;
glyphname = Aogonek.swsh;
layers = (
{
anchors = (
{
name = _ogonek;
position = "{681, 0}";
},
{
name = bottom;
position = "{473, 0}";
},
{
name = ogonek;
position = "{719, 10}";
},
{
name = top;
position = "{533, 665}";
}
);
components = (
{
name = _com_ogonek_A;
transform = "{1, 0, 0, 1, 531, 0}";
}
);
layerId = "230F8D9C-4AAC-4C97-935A-A5529CE4A32C";
paths = (
{
closed = 1;
nodes = (
"576 586 LINE SMOOTH",
"568 621 OFFCURVE",
"560 653 OFFCURVE",
"554 688 CURVE",
"511 688 LINE",
"498 653 OFFCURVE",
"483 621 OFFCURVE",
"467 586 CURVE SMOOTH",
"249 100 LINE SMOOTH",
"167 -83 OFFCURVE",
"146 -125 OFFCURVE",
"97 -125 CURVE SMOOTH",
"53 -125 OFFCURVE",
"33 -91 OFFCURVE",
"33 -51 CURVE SMOOTH",
"33 -14 OFFCURVE",
"51 41 OFFCURVE",
"120 74 CURVE",
"120 100 LINE",
"21 65 OFFCURVE",
"-27 -5 OFFCURVE",
"-27 -77 CURVE SMOOTH",
"-27 -146 OFFCURVE",
"17 -195 OFFCURVE",
"79 -195 CURVE SMOOTH",
"160 -195 OFFCURVE",
"197 -111 OFFCURVE",
"291 100 CURVE SMOOTH",
"357 248 LINE SMOOTH",
"368 273 OFFCURVE",
"381 275 OFFCURVE",
"408 275 CURVE SMOOTH",
"540 275 LINE SMOOTH",
"553 275 OFFCURVE",
"566 276 OFFCURVE",
"575 283 CURVE",
"644 0 LINE",
"649 -18 LINE",
"672 0 LINE",
"778 0 LINE",
"778 23 LINE",
"726 25 OFFCURVE",
"710 30 OFFCURVE",
"693 100 CURVE SMOOTH"
);
},
{
closed = 1;
nodes = (
"408 305 LINE SMOOTH",
"398 305 OFFCURVE",
"389 305 OFFCURVE",
"381 302 CURVE",
"503 576 LINE",
"505 576 LINE",
"564 330 LINE SMOOTH",
"569 309 OFFCURVE",
"562 305 OFFCURVE",
"545 305 CURVE SMOOTH"
);
}
);
width = 791;
},
{
associatedMasterId = "230F8D9C-4AAC-4C97-935A-A5529CE4A32C";
layerId = "80628BE6-A8FB-480E-92B8-7C52D39AD99C";
width = 600;
}
);
leftMetricsKey = "=A.swsh";
rightKerningGroup = A;
rightMetricsKey = "=A.swsh";
},
{
color = 6;
glyphname = B.swsh;
layers = (
{
anchors = (
{
name = bottom;
position = "{608, 0}";
},
{
name = top;
position = "{608, 665}";
}
);
guideLines = (
{
angle = 85.6013;
position = "{486, 362}";
},
{
position = "{466, 565}";
}
);
layerId = "230F8D9C-4AAC-4C97-935A-A5529CE4A32C";
paths = (
{
closed = 1;
nodes = (
"588 0 LINE SMOOTH",
"782 0 OFFCURVE",
"866 122 OFFCURVE",
"866 224 CURVE SMOOTH",
"866 332 OFFCURVE",
"772 382 OFFCURVE",
"657 387 CURVE",
"657 389 LINE",
"730 415 OFFCURVE",
"806 465 OFFCURVE",
"806 546 CURVE SMOOTH",
"806 620 OFFCURVE",
"744 670 OFFCURVE",
"542 670 CURVE SMOOTH",
"200 670 OFFCURVE",
"40 527 OFFCURVE",
"40 414 CURVE SMOOTH",
"40 349 OFFCURVE",
"94 310 OFFCURVE",
"165 310 CURVE SMOOTH",
"209 310 OFFCURVE",
"260 325 OFFCURVE",
"295 354 CURVE",
"289 377 LINE",
"256 358 OFFCURVE",
"220 350 OFFCURVE",
"194 350 CURVE SMOOTH",
"138 350 OFFCURVE",
"110 386 OFFCURVE",
"110 430 CURVE SMOOTH",
"110 515 OFFCURVE",
"218 637 OFFCURVE",
"535 637 CURVE SMOOTH",
"654 637 OFFCURVE",
"731 620 OFFCURVE",
"731 531 CURVE SMOOTH",
"731 421 OFFCURVE",
"614 401 OFFCURVE",
"540 390 CURVE SMOOTH",
"510 386 OFFCURVE",
"501 384 OFFCURVE",
"487 372 CURVE",
"507 637 LINE",
"457 637 LINE",
"436 616 OFFCURVE",
"434 589 OFFCURVE",
"432 565 CURVE SMOOTH",
"398 100 LINE SMOOTH",
"393 30 OFFCURVE",
"387 25 OFFCURVE",
"349 23 CURVE",
"349 0 LINE"
);
},
{
closed = 1;
nodes = (
"490 33 OFFCURVE",
"464 41 OFFCURVE",
"468 100 CURVE SMOOTH",
"482 304 LINE SMOOTH",
"485 349 OFFCURVE",
"514 361 OFFCURVE",
"577 363 CURVE SMOOTH",
"697 367 OFFCURVE",
"791 332 OFFCURVE",
"791 209 CURVE SMOOTH",
"791 135 OFFCURVE",
"757 33 OFFCURVE",
"548 33 CURVE SMOOTH"
);
}
);
width = 909;
},
{
associatedMasterId = "230F8D9C-4AAC-4C97-935A-A5529CE4A32C";
guideLines = (
{
angle = 85.6013;
position = "{479, 362}";
},
{
position = "{459, 565}";
}
);
layerId = "669AFA18-4A0F-4CAA-BE62-F78C8C72FE19";
name = "May 21 17, 16:23";
paths = (
{
closed = 1;
nodes = (
"521 0 LINE SMOOTH",
"715 0 OFFCURVE",
"799 122 OFFCURVE",
"799 224 CURVE SMOOTH",
"799 332 OFFCURVE",
"705 382 OFFCURVE",
"590 387 CURVE",
"590 389 LINE",
"663 416 OFFCURVE",
"739 461 OFFCURVE",
"739 551 CURVE SMOOTH",
"739 625 OFFCURVE",
"688 670 OFFCURVE",
"546 670 CURVE SMOOTH",
"499 670 OFFCURVE",
"457 665 OFFCURVE",
"371 665 CURVE SMOOTH",
"292 665 LINE",
"292 632 LINE",
"352 632 OFFCURVE",
"367 624 OFFCURVE",
"363 565 CURVE SMOOTH",
"331 100 LINE SMOOTH",
"326 30 OFFCURVE",
"320 25 OFFCURVE",
"282 23 CURVE",
"282 0 LINE"
);
},
{
closed = 1;
nodes = (
"423 33 OFFCURVE",
"397 38 OFFCURVE",
"401 100 CURVE SMOOTH",
"415 304 LINE SMOOTH",
"418 349 OFFCURVE",
"447 361 OFFCURVE",
"510 363 CURVE SMOOTH",
"631 367 OFFCURVE",
"724 330 OFFCURVE",
"724 212 CURVE SMOOTH",
"724 141 OFFCURVE",
"690 33 OFFCURVE",
"492 33 CURVE SMOOTH"
);
},
{
closed = 1;
nodes = (
"433 565 LINE SMOOTH",
"437 622 OFFCURVE",
"454 637 OFFCURVE",
"528 637 CURVE SMOOTH",
"580 637 OFFCURVE",
"664 631 OFFCURVE",
"664 535 CURVE SMOOTH",
"664 428 OFFCURVE",
"560 400 OFFCURVE",
"473 390 CURVE SMOOTH",
"446 387 OFFCURVE",
"432 383 OFFCURVE",
"420 372 CURVE"
);
},
{
closed = 1;
nodes = (
"213 390 OFFCURVE",
"263 405 OFFCURVE",
"298 434 CURVE",
"292 457 LINE",
"259 438 OFFCURVE",
"223 430 OFFCURVE",
"188 430 CURVE SMOOTH",
"131 430 OFFCURVE",
"103 461 OFFCURVE",
"103 501 CURVE SMOOTH",
"103 555 OFFCURVE",
"156 632 OFFCURVE",
"292 632 CURVE",
"292 665 LINE",
"125 665 OFFCURVE",
"33 567 OFFCURVE",
"33 485 CURVE",
"33 424 OFFCURVE",
"87 390 OFFCURVE",
"156 390 CURVE"
);
}
);
width = 902;
},
{
associatedMasterId = "230F8D9C-4AAC-4C97-935A-A5529CE4A32C";
layerId = "80628BE6-A8FB-480E-92B8-7C52D39AD99C";
width = 600;
}
);
leftKerningGroup = swash;
leftMetricsKey = "=H";
rightKerningGroup = O;
rightMetricsKey = "=O";
},
{
color = 6;
glyphname = D.swsh;
layers = (
{
anchors = (
{
name = bottom;
position = "{669, 0}";
},
{
name = center;
position = "{669, 353}";
},
{
name = top;
position = "{669, 665}";
}
);
guideLines = (
{
position = "{468, 565}";
}
);
layerId = "230F8D9C-4AAC-4C97-935A-A5529CE4A32C";
paths = (
{
closed = 1;
nodes = (
"571 0 LINE SMOOTH",
"805 0 OFFCURVE",
"976 151 OFFCURVE",
"976 365 CURVE SMOOTH",
"976 563 OFFCURVE",
"831 670 OFFCURVE",
"540 670 CURVE SMOOTH",
"208 670 OFFCURVE",
"40 531 OFFCURVE",
"40 415 CURVE SMOOTH",
"40 349 OFFCURVE",
"94 310 OFFCURVE",
"165 310 CURVE SMOOTH",
"209 310 OFFCURVE",
"260 325 OFFCURVE",
"295 354 CURVE",
"289 377 LINE",
"256 358 OFFCURVE",
"220 350 OFFCURVE",
"194 350 CURVE SMOOTH",
"138 350 OFFCURVE",
"110 386 OFFCURVE",
"110 430 CURVE SMOOTH",
"110 523 OFFCURVE",
"234 637 OFFCURVE",
"534 637 CURVE SMOOTH",
"791 637 OFFCURVE",
"896 553 OFFCURVE",
"896 360 CURVE SMOOTH",
"896 158 OFFCURVE",
"782 33 OFFCURVE",
"542 33 CURVE SMOOTH",
"481 33 OFFCURVE",
"466 41 OFFCURVE",
"470 100 CURVE SMOOTH",
"507 637 LINE",
"457 637 LINE",
"437 617 OFFCURVE",
"434 592 OFFCURVE",
"432 565 CURVE SMOOTH",
"400 100 LINE SMOOTH",
"395 30 OFFCURVE",
"389 25 OFFCURVE",
"351 23 CURVE",
"351 0 LINE"
);
}
);
width = 1019;
},
{
anchors = (
{
name = bottom;
position = "{351, 0}";
},
{
name = center;
position = "{351, 353}";
},
{
name = top;
position = "{351, 665}";
}
);
associatedMasterId = "230F8D9C-4AAC-4C97-935A-A5529CE4A32C";
guideLines = (
{
position = "{150, 565}";
}
);
layerId = "D0CBDA1B-FA58-4A5A-994C-439CA8F12267";
name = "May 18 17, 17:45";
paths = (
{
closed = 1;
nodes = (
"4 440 OFFCURVE",
"-7 432 OFFCURVE",
"-20 426 CURVE",
"-39 416 OFFCURVE",
"-59 409 OFFCURVE",
"-78 401 CURVE",
"-83 399 OFFCURVE",
"-90 397 OFFCURVE",
"-97 397 CURVE",
"-115 395 OFFCURVE",
"-133 394 OFFCURVE",
"-151 394 CURVE",
"-163 394 OFFCURVE",
"-174 395 OFFCURVE",
"-185 400 CURVE",
"-185 400 OFFCURVE",
"-186 400 OFFCURVE",
"-186 401 CURVE",
"-207 404 OFFCURVE",
"-224 415 OFFCURVE",
"-240 427 CURVE",
"-258 439 OFFCURVE",
"-270 456 OFFCURVE",
"-275 478 CURVE",
"-278 490 OFFCURVE",
"-280 502 OFFCURVE",
"-279 514 CURVE",
"-279 531 OFFCURVE",
"-274 547 OFFCURVE",
"-265 561 CURVE",
"-257 575 OFFCURVE",
"-248 587 OFFCURVE",
"-237 600 CURVE",
"-230 607 OFFCURVE",
"-223 613 OFFCURVE",
"-215 619 CURVE",
"-188 636 OFFCURVE",
"-161 649 OFFCURVE",
"-131 660 CURVE",
"-113 666 OFFCURVE",
"-94 669 OFFCURVE",
"-75 672 CURVE",
"-64 674 OFFCURVE",
"-53 676 OFFCURVE",
"-42 677 CURVE",
"-41 678 OFFCURVE",
"-39 678 OFFCURVE",
"-38 678 CURVE",
"-23 677 OFFCURVE",
"-8 676 OFFCURVE",
"7 675 CURVE",
"16 675 OFFCURVE",
"25 674 OFFCURVE",
"33 675 CURVE",
"39 676 OFFCURVE",
"44 673 OFFCURVE",
"49 672 CURVE",
"64 670 OFFCURVE",
"78 669 OFFCURVE",
"92 667 CURVE",
"104 666 OFFCURVE",
"115 665 OFFCURVE",
"127 665 CURVE",
"140 664 OFFCURVE",
"153 664 OFFCURVE",
"168 664 CURVE",
"183 664 OFFCURVE",
"198 664 OFFCURVE",
"213 665 CURVE",
"232 666 OFFCURVE",
"250 669 OFFCURVE",
"268 671 CURVE",
"280 672 OFFCURVE",
"293 672 OFFCURVE",
"304 672 CURVE",
"323 672 OFFCURVE",
"341 672 OFFCURVE",
"360 671 CURVE",
"382 669 OFFCURVE",
"403 668 OFFCURVE",
"425 662 CURVE",
"446 655 OFFCURVE",
"466 645 OFFCURVE",
"487 638 CURVE",
"511 628 OFFCURVE",
"531 614 OFFCURVE",
"550 596 CURVE",
"555 590 OFFCURVE",
"562 585 OFFCURVE",
"568 580 CURVE",
"579 569 OFFCURVE",
"588 556 OFFCURVE",
"597 543 CURVE",
"605 533 OFFCURVE",
"609 521 OFFCURVE",
"614 511 CURVE",
"616 508 OFFCURVE",
"618 505 OFFCURVE",
"620 502 CURVE",
"621 499 OFFCURVE",
"623 497 OFFCURVE",
"624 495 CURVE",
"631 473 OFFCURVE",
"636 452 OFFCURVE",
"643 431 CURVE",
"648 415 OFFCURVE",
"647 400 OFFCURVE",
"649 386 CURVE",
"653 363 OFFCURVE",
"650 341 OFFCURVE",
"647 319 CURVE",
"644 299 OFFCURVE",
"643 279 OFFCURVE",
"634 260 CURVE",
"629 247 OFFCURVE",
"626 234 OFFCURVE",
"620 222 CURVE",
"615 209 OFFCURVE",
"608 198 OFFCURVE",
"602 186 CURVE",
"589 161 OFFCURVE",
"571 139 OFFCURVE",
"553 118 CURVE",
"546 109 OFFCURVE",
"535 101 OFFCURVE",
"526 93 CURVE",
"521 88 OFFCURVE",
"515 83 OFFCURVE",
"509 79 CURVE",
"485 62 OFFCURVE",
"459 45 OFFCURVE",
"431 33 CURVE",
"421 28 OFFCURVE",
"410 22 OFFCURVE",
"397 21 CURVE",
"391 21 OFFCURVE",
"385 18 OFFCURVE",
"379 16 CURVE",
"349 8 OFFCURVE",
"318 6 OFFCURVE",
"287 7 CURVE",
"263 7 OFFCURVE",
"239 7 OFFCURVE",
"215 7 CURVE",
"200 7 OFFCURVE",
"185 7 OFFCURVE",
"170 7 CURVE",
"151 7 OFFCURVE",
"130 7 OFFCURVE",
"110 6 CURVE",
"90 6 OFFCURVE",
"71 5 OFFCURVE",
"51 4 CURVE",
"46 3 OFFCURVE",
"42 0 OFFCURVE",
"40 8 CURVE",
"38 14 OFFCURVE",
"42 22 OFFCURVE",
"47 24 CURVE",
"51 25 OFFCURVE",
"56 26 OFFCURVE",
"61 27 CURVE",
"75 29 OFFCURVE",
"83 38 OFFCURVE",
"87 51 CURVE",
"89 61 OFFCURVE",
"90 72 OFFCURVE",
"92 82 CURVE",
"93 99 OFFCURVE",
"94 117 OFFCURVE",
"96 134 CURVE",
"97 150 OFFCURVE",
"98 165 OFFCURVE",
"99 181 CURVE",
"101 203 OFFCURVE",
"100 226 OFFCURVE",
"104 249 CURVE",
"106 265 OFFCURVE",
"105 282 OFFCURVE",
"106 299 CURVE",
"106 307 OFFCURVE",
"107 316 OFFCURVE",
"107 326 CURVE",
"108 348 OFFCURVE",
"109 370 OFFCURVE",
"109 391 CURVE",
"109 396 OFFCURVE",
"112 401 OFFCURVE",
"112 406 CURVE",
"113 421 OFFCURVE",
"113 436 OFFCURVE",
"114 453 CURVE",
"115 461 OFFCURVE",
"116 471 OFFCURVE",
"116 479 CURVE",
"117 497 OFFCURVE",
"117 517 OFFCURVE",
"117 534 CURVE",
"118 548 OFFCURVE",
"120 561 OFFCURVE",
"120 575 CURVE",
"120 588 OFFCURVE",
"119 601 OFFCURVE",
"116 613 CURVE",
"113 623 OFFCURVE",
"106 634 OFFCURVE",
"94 638 CURVE",
"78 643 OFFCURVE",
"62 646 OFFCURVE",
"46 649 CURVE",
"25 652 OFFCURVE",
"5 652 OFFCURVE",
"-15 651 CURVE",
"-28 650 OFFCURVE",
"-41 651 OFFCURVE",
"-56 650 CURVE",
"-80 650 OFFCURVE",
"-101 640 OFFCURVE",
"-123 633 CURVE",
"-144 626 OFFCURVE",
"-160 614 OFFCURVE",
"-176 601 CURVE",
"-187 593 OFFCURVE",
"-197 580 OFFCURVE",
"-206 569 CURVE",
"-215 559 OFFCURVE",
"-221 547 OFFCURVE",
"-224 533 CURVE",
"-228 508 OFFCURVE",
"-226 483 OFFCURVE",
"-213 460 CURVE",
"-211 457 OFFCURVE",
"-208 454 OFFCURVE",
"-206 453 CURVE",
"-188 435 OFFCURVE",
"-166 428 OFFCURVE",
"-142 425 CURVE",
"-116 421 OFFCURVE",
"-91 426 OFFCURVE",
"-66 430 CURVE",
"-57 432 OFFCURVE",
"-48 436 OFFCURVE",
"-38 440 CURVE",
"-24 446 OFFCURVE",
"-11 453 OFFCURVE",
"2 463 CURVE",
"6 468 OFFCURVE",
"9 467 OFFCURVE",
"13 461 CURVE",
"15 457 OFFCURVE",
"16 454 OFFCURVE",
"18 448 CURVE"
);
},
{
closed = 1;
nodes = (
"148 104 OFFCURVE",
"148 95 OFFCURVE",
"148 85 CURVE",
"148 67 OFFCURVE",
"161 48 OFFCURVE",
"179 44 CURVE",
"195 40 OFFCURVE",
"213 37 OFFCURVE",
"229 36 CURVE",
"251 35 OFFCURVE",
"273 34 OFFCURVE",
"295 34 CURVE",
"311 36 OFFCURVE",
"328 34 OFFCURVE",
"345 39 CURVE",
"353 41 OFFCURVE",
"361 43 OFFCURVE",
"368 44 CURVE",
"385 46 OFFCURVE",
"400 54 OFFCURVE",
"415 59 CURVE",
"433 67 OFFCURVE",
"448 78 OFFCURVE",
"465 90 CURVE",
"467 92 OFFCURVE",
"472 94 OFFCURVE",
"474 97 CURVE",
"487 113 OFFCURVE",
"502 126 OFFCURVE",
"515 142 CURVE",
"531 162 OFFCURVE",
"543 185 OFFCURVE",
"553 209 CURVE",
"560 223 OFFCURVE",
"564 239 OFFCURVE",
"568 254 CURVE",
"573 275 OFFCURVE",
"578 297 OFFCURVE",
"579 319 CURVE",
"579 336 OFFCURVE",
"581 353 OFFCURVE",
"581 370 CURVE",
"582 388 OFFCURVE",
"582 405 OFFCURVE",
"580 422 CURVE",
"579 435 OFFCURVE",
"577 448 OFFCURVE",
"574 461 CURVE",
"568 488 OFFCURVE",
"561 515 OFFCURVE",
"545 538 CURVE",
"535 552 OFFCURVE",
"525 566 OFFCURVE",
"512 578 CURVE",
"493 597 OFFCURVE",
"473 613 OFFCURVE",
"447 623 CURVE",
"433 630 OFFCURVE",
"418 634 OFFCURVE",
"403 638 CURVE",
"387 643 OFFCURVE",
"372 644 OFFCURVE",
"357 645 CURVE",
"338 646 OFFCURVE",
"319 647 OFFCURVE",
"300 644 CURVE",
"281 643 OFFCURVE",
"262 643 OFFCURVE",
"243 638 CURVE",
"229 634 OFFCURVE",
"214 631 OFFCURVE",
"201 623 CURVE",
"189 616 OFFCURVE",
"178 606 OFFCURVE",
"178 589 CURVE",
"178 587 OFFCURVE",
"177 585 OFFCURVE",
"177 583 CURVE",
"175 571 OFFCURVE",
"172 558 OFFCURVE",
"172 544 CURVE",
"170 516 OFFCURVE",
"169 488 OFFCURVE",
"168 459 CURVE",
"167 440 OFFCURVE",
"166 422 OFFCURVE",
"164 404 CURVE",
"162 370 OFFCURVE",
"160 336 OFFCURVE",
"158 303 CURVE",
"157 294 OFFCURVE",
"157 286 OFFCURVE",
"157 277 CURVE",
"156 264 OFFCURVE",
"155 250 OFFCURVE",
"154 237 CURVE",
"153 211 OFFCURVE",
"153 185 OFFCURVE",
"150 160 CURVE",
"148 144 OFFCURVE",
"148 129 OFFCURVE",
"148 117 CURVE"
);
}
);
visible = 1;
width = 701;
},
{
associatedMasterId = "230F8D9C-4AAC-4C97-935A-A5529CE4A32C";
layerId = "80628BE6-A8FB-480E-92B8-7C52D39AD99C";
width = 600;
}
);
leftKerningGroup = swash;
leftMetricsKey = "=H";
rightKerningGroup = O;
rightMetricsKey = "=O";
},
{
color = 6;
glyphname = E.swsh;
layers = (
{
anchors = (
{
name = bottom;
position = "{600, 0}";
},
{
name = ogonek;
position = "{764, 0}";
},
{
name = top;
position = "{620, 665}";
},
{
name = topleft;
position = "{326, 665}";
}
);
guideLines = (
{
position = "{463, 555}";
},
{
angle = 86.3218;
position = "{798, 525}";
},
{
angle = 180;
position = "{389, 632}";
}
);
layerId = "230F8D9C-4AAC-4C97-935A-A5529CE4A32C";
paths = (
{
closed = 1;
nodes = (
"816 85 OFFCURVE",
"783 30 OFFCURVE",
"683 30 CURVE SMOOTH",
"540 30 LINE SMOOTH",
"480 30 OFFCURVE",
"465 35 OFFCURVE",
"469 100 CURVE SMOOTH",
"482 311 LINE SMOOTH",
"484 349 OFFCURVE",
"497 358 OFFCURVE",
"534 358 CURVE SMOOTH",
"679 358 LINE SMOOTH",
"727 358 OFFCURVE",
"735 343 OFFCURVE",
"735 285 CURVE",
"758 285 LINE",
"770 455 LINE",
"747 455 LINE",
"742 411 OFFCURVE",
"719 388 OFFCURVE",
"679 388 CURVE SMOOTH",
"534 388 LINE SMOOTH",
"514 388 OFFCURVE",
"498 386 OFFCURVE",
"487 378 CURVE",
"500 565 LINE SMOOTH",
"505 630 OFFCURVE",
"510 635 OFFCURVE",
"549 635 CURVE SMOOTH",
"669 635 LINE SMOOTH",
"765 635 OFFCURVE",
"775 595 OFFCURVE",
"775 525 CURVE",
"798 525 LINE",
"807 665 LINE",
"379 665 LINE SMOOTH",
"172 665 OFFCURVE",
"40 527 OFFCURVE",
"40 425 CURVE SMOOTH",
"40 344 OFFCURVE",
"94 310 OFFCURVE",
"163 310 CURVE SMOOTH",
"210 310 OFFCURVE",
"260 325 OFFCURVE",
"295 354 CURVE",
"289 377 LINE",
"256 358 OFFCURVE",
"220 350 OFFCURVE",
"194 350 CURVE SMOOTH",
"138 350 OFFCURVE",
"110 386 OFFCURVE",
"110 433 CURVE SMOOTH",
"110 519 OFFCURVE",
"203 632 OFFCURVE",
"379 632 CURVE SMOOTH",
"455 632 LINE",
"433 610 OFFCURVE",
"432 587 OFFCURVE",
"430 565 CURVE SMOOTH",
"398 100 LINE SMOOTH",
"393 30 OFFCURVE",
"387 25 OFFCURVE",
"349 23 CURVE",
"349 0 LINE",
"831 0 LINE",
"850 155 LINE",
"827 155 LINE"
);
}
);
width = 873;
},
{
associatedMasterId = "230F8D9C-4AAC-4C97-935A-A5529CE4A32C";
layerId = "80628BE6-A8FB-480E-92B8-7C52D39AD99C";
width = 600;
}
);
leftKerningGroup = swash;
leftMetricsKey = "=H";
rightKerningGroup = E;
rightMetricsKey = "=E";
},
{
color = 6;
glyphname = F.swsh;
layers = (
{
anchors = (
{
name = bottom;
position = "{585, 0}";
},
{
name = top;
position = "{585, 665}";
}
);
guideLines = (
{
position = "{485, 565}";
}
);
layerId = "230F8D9C-4AAC-4C97-935A-A5529CE4A32C";
paths = (
{
closed = 1;
nodes = (
"672 635 LINE SMOOTH",
"767 635 OFFCURVE",
"777 595 OFFCURVE",
"777 525 CURVE",
"800 525 LINE",
"809 665 LINE",
"381 665 LINE SMOOTH",
"174 665 OFFCURVE",
"42 527 OFFCURVE",
"42 425 CURVE SMOOTH",
"42 344 OFFCURVE",
"96 310 OFFCURVE",
"165 310 CURVE SMOOTH",
"212 310 OFFCURVE",
"262 325 OFFCURVE",
"297 354 CURVE",
"291 377 LINE",
"258 358 OFFCURVE",
"222 350 OFFCURVE",
"196 350 CURVE SMOOTH",
"140 350 OFFCURVE",
"112 386 OFFCURVE",
"112 433 CURVE SMOOTH",
"112 519 OFFCURVE",
"205 632 OFFCURVE",
"381 632 CURVE SMOOTH",
"477 632 LINE",
"455 610 OFFCURVE",
"454 587 OFFCURVE",
"452 565 CURVE SMOOTH",
"420 100 LINE SMOOTH",
"415 30 OFFCURVE",
"409 25 OFFCURVE",
"371 23 CURVE",
"371 0 LINE",
"581 0 LINE",
"581 23 LINE",
"501 25 OFFCURVE",
"485 30 OFFCURVE",
"490 100 CURVE SMOOTH",
"503 291 LINE SMOOTH",
"506 328 OFFCURVE",
"518 338 OFFCURVE",
"555 338 CURVE SMOOTH",
"691 338 LINE SMOOTH",
"739 338 OFFCURVE",
"747 323 OFFCURVE",
"747 265 CURVE",
"770 265 LINE",
"782 435 LINE",
"759 435 LINE",
"754 391 OFFCURVE",
"731 368 OFFCURVE",
"691 368 CURVE SMOOTH",
"555 368 LINE SMOOTH",
"535 368 OFFCURVE",
"519 366 OFFCURVE",
"508 358 CURVE",
"522 565 LINE SMOOTH",
"526 630 OFFCURVE",
"532 635 OFFCURVE",
"571 635 CURVE SMOOTH"
);
}
);
width = 842;
},
{
associatedMasterId = "230F8D9C-4AAC-4C97-935A-A5529CE4A32C";
layerId = "80628BE6-A8FB-480E-92B8-7C52D39AD99C";
width = 600;
}
);
leftKerningGroup = swash;
leftMetricsKey = "=I";
rightKerningGroup = F;
rightMetricsKey = "=F";
},
{
color = 6;
glyphname = G.swsh;
layers = (
{
anchors = (
{
name = bottom;
position = "{329, 0}";
},
{
name = top;
position = "{419, 665}";
}
);
layerId = "230F8D9C-4AAC-4C97-935A-A5529CE4A32C";
paths = (
{
closed = 1;
nodes = (
"442 295 LINE",
"545 293 OFFCURVE",
"564 288 OFFCURVE",
"557 190 CURVE SMOOTH",
"553 136 OFFCURVE",
"553 119 OFFCURVE",
"544 99 CURVE SMOOTH",
"526 59 OFFCURVE",
"457 18 OFFCURVE",
"367 18 CURVE SMOOTH",
"221 18 OFFCURVE",
"123 123 OFFCURVE",
"123 300 CURVE SMOOTH",
"123 476 OFFCURVE",
"230 647 OFFCURVE",
"412 647 CURVE SMOOTH",
"489 647 OFFCURVE",
"611 619 OFFCURVE",
"611 490 CURVE",
"634 490 LINE",
"644 643 LINE",
"574 668 OFFCURVE",
"496 680 OFFCURVE",
"431 680 CURVE SMOOTH",
"176 680 OFFCURVE",
"43 496 OFFCURVE",
"43 304 CURVE SMOOTH",
"43 100 OFFCURVE",
"192 -15 OFFCURVE",
"364 -15 CURVE SMOOTH",
"453 -15 OFFCURVE",
"509 16 OFFCURVE",
"547 50 CURVE",
"544 0 LINE SMOOTH",
"535 -138 OFFCURVE",
"516 -192 OFFCURVE",
"441 -202 CURVE",
"441 -225 LINE",
"528 -225 OFFCURVE",
"599 -150 OFFCURVE",
"608 -15 CURVE SMOOTH",
"622 190 LINE",
"626 248 LINE SMOOTH",
"628 282 OFFCURVE",
"635 293 OFFCURVE",
"665 295 CURVE",
"665 318 LINE",
"442 318 LINE"
);
}
);
width = 698;
},
{
associatedMasterId = "230F8D9C-4AAC-4C97-935A-A5529CE4A32C";
layerId = "80628BE6-A8FB-480E-92B8-7C52D39AD99C";
width = 600;
}
);
leftKerningGroup = swash;
leftMetricsKey = "=G";
rightKerningGroup = O;
rightMetricsKey = "=G";
},
{
color = 6;
glyphname = H.swsh;
layers = (
{
anchors = (
{
name = bottom;
position = "{663, 0}";
},
{
name = center;
position = "{663, 333}";
},
{
name = top;
position = "{663, 665}";
},
{
name = topleft;
position = "{336, 665}";
}
);
guideLines = (
{
position = "{466, 565}";
},
{
angle = 266.0633;
position = "{484, 333}";
}
);
layerId = "230F8D9C-4AAC-4C97-935A-A5529CE4A32C";
paths = (
{
closed = 1;
nodes = (
"932 634 OFFCURVE",
"938 639 OFFCURVE",
"976 642 CURVE",
"976 665 LINE",
"786 665 LINE",
"786 642 LINE",
"846 639 OFFCURVE",
"862 634 OFFCURVE",
"857 565 CURVE SMOOTH",
"849 450 LINE SMOOTH",
"846 409 OFFCURVE",
"834 400 OFFCURVE",
"797 400 CURVE SMOOTH",
"535 400 LINE SMOOTH",
"515 400 OFFCURVE",
"499 398 OFFCURVE",
"488 390 CURVE",
"500 565 LINE SMOOTH",
"505 634 OFFCURVE",
"511 639 OFFCURVE",
"549 642 CURVE",
"549 665 LINE",
"379 665 LINE SMOOTH",
"172 665 OFFCURVE",
"40 527 OFFCURVE",
"40 425 CURVE SMOOTH",
"40 344 OFFCURVE",
"94 310 OFFCURVE",
"163 310 CURVE SMOOTH",
"210 310 OFFCURVE",
"260 325 OFFCURVE",
"295 354 CURVE",
"289 377 LINE",
"256 358 OFFCURVE",
"220 350 OFFCURVE",
"194 350 CURVE SMOOTH",
"138 350 OFFCURVE",
"110 386 OFFCURVE",
"110 433 CURVE SMOOTH",
"110 519 OFFCURVE",
"203 632 OFFCURVE",
"379 632 CURVE SMOOTH",
"455 632 LINE",
"433 610 OFFCURVE",
"432 593 OFFCURVE",
"430 565 CURVE SMOOTH",
"398 100 LINE SMOOTH",
"393 30 OFFCURVE",
"387 25 OFFCURVE",
"349 23 CURVE",
"349 0 LINE",
"539 0 LINE",
"539 23 LINE",
"479 25 OFFCURVE",
"463 30 OFFCURVE",
"468 100 CURVE SMOOTH",
"483 323 LINE SMOOTH",
"486 361 OFFCURVE",
"498 370 OFFCURVE",
"535 370 CURVE SMOOTH",
"797 370 LINE SMOOTH",
"818 370 OFFCURVE",
"834 373 OFFCURVE",
"845 383 CURVE",
"825 100 LINE SMOOTH",
"820 30 OFFCURVE",
"814 25 OFFCURVE",
"776 23 CURVE",
"776 0 LINE",
"966 0 LINE",
"966 23 LINE",
"906 25 OFFCURVE",
"890 30 OFFCURVE",
"895 100 CURVE SMOOTH",
"927 565 LINE SMOOTH"
);
}
);
width = 1016;
},
{
associatedMasterId = "230F8D9C-4AAC-4C97-935A-A5529CE4A32C";
layerId = "80628BE6-A8FB-480E-92B8-7C52D39AD99C";
width = 600;
}
);
leftKerningGroup = swash;
leftMetricsKey = "=H";
rightMetricsKey = "=H";
},
{
color = 3;
glyphname = Hbar.swsh;
layers = (
{
components = (
{
name = H.swsh;
}
);
layerId = "230F8D9C-4AAC-4C97-935A-A5529CE4A32C";
paths = (
{
closed = 1;
nodes = (
"997 543 LINE",
"335 543 LINE",
"335 508 LINE",
"997 508 LINE"
);
}
);
width = 1037;
},
{
associatedMasterId = "230F8D9C-4AAC-4C97-935A-A5529CE4A32C";
layerId = "80628BE6-A8FB-480E-92B8-7C52D39AD99C";
width = 600;
}
);
leftKerningGroup = swash;
leftMetricsKey = "=H";
rightMetricsKey = "=H";
},
{
color = 6;
glyphname = I.swsh;
layers = (
{
anchors = (
{
name = bottom;
position = "{449, 0}";
},
{
name = ogonek;
position = "{522, 0}";
},
{
name = top;
position = "{489, 665}";
},
{
name = topleft;
position = "{346, 665}";
}
);
layerId = "230F8D9C-4AAC-4C97-935A-A5529CE4A32C";
paths = (
{
closed = 1;
nodes = (
"525 634 OFFCURVE",
"531 639 OFFCURVE",
"569 642 CURVE",
"569 665 LINE",
"379 665 LINE SMOOTH",
"172 665 OFFCURVE",
"40 527 OFFCURVE",
"40 425 CURVE SMOOTH",
"40 344 OFFCURVE",
"94 310 OFFCURVE",
"163 310 CURVE SMOOTH",
"210 310 OFFCURVE",
"260 325 OFFCURVE",
"295 354 CURVE",
"289 377 LINE",
"256 358 OFFCURVE",
"220 350 OFFCURVE",
"194 350 CURVE SMOOTH",
"138 350 OFFCURVE",
"110 386 OFFCURVE",
"110 433 CURVE SMOOTH",
"110 519 OFFCURVE",
"203 632 OFFCURVE",
"379 632 CURVE SMOOTH",
"475 632 LINE",
"453 610 OFFCURVE",
"452 587 OFFCURVE",
"450 565 CURVE SMOOTH",
"418 100 LINE SMOOTH",
"413 30 OFFCURVE",
"407 25 OFFCURVE",
"369 23 CURVE",
"369 0 LINE",
"559 0 LINE",
"559 23 LINE",
"499 25 OFFCURVE",
"483 30 OFFCURVE",
"488 100 CURVE SMOOTH",
"520 565 LINE SMOOTH"
);
}
);
width = 611;
},
{
associatedMasterId = "230F8D9C-4AAC-4C97-935A-A5529CE4A32C";
layerId = "80628BE6-A8FB-480E-92B8-7C52D39AD99C";
width = 600;
}
);
leftKerningGroup = swash;
leftMetricsKey = "=H";
rightMetricsKey = "=I";
},
{
color = 6;
glyphname = J.swsh;
layers = (
{
anchors = (
{
name = bottom;
position = "{461, 0}";
},
{
name = top;
position = "{461, 665}";
}
);
layerId = "230F8D9C-4AAC-4C97-935A-A5529CE4A32C";
paths = (
{
closed = 1;
nodes = (
"172 665 OFFCURVE",
"40 527 OFFCURVE",
"40 425 CURVE SMOOTH",
"40 344 OFFCURVE",
"94 310 OFFCURVE",
"163 310 CURVE SMOOTH",
"210 310 OFFCURVE",
"260 325 OFFCURVE",
"295 354 CURVE",
"289 377 LINE",
"256 358 OFFCURVE",
"220 350 OFFCURVE",
"194 350 CURVE SMOOTH",
"138 350 OFFCURVE",
"110 386 OFFCURVE",
"110 433 CURVE SMOOTH",
"110 519 OFFCURVE",
"203 632 OFFCURVE",
"379 632 CURVE SMOOTH",
"475 632 LINE",
"453 610 OFFCURVE",
"452 587 OFFCURVE",
"450 565 CURVE SMOOTH",
"411 0 LINE SMOOTH",
"401 -138 OFFCURVE",
"383 -192 OFFCURVE",
"313 -202 CURVE",
"313 -225 LINE",
"400 -225 OFFCURVE",
"471 -150 OFFCURVE",
"480 -15 CURVE SMOOTH",
"520 565 LINE SMOOTH",
"525 634 OFFCURVE",
"531 639 OFFCURVE",
"569 642 CURVE",
"569 665 LINE",
"379 665 LINE SMOOTH"
);
}
);
width = 601;
},
{
associatedMasterId = "230F8D9C-4AAC-4C97-935A-A5529CE4A32C";
layerId = "80628BE6-A8FB-480E-92B8-7C52D39AD99C";
width = 600;
}
);
leftKerningGroup = swash;
leftMetricsKey = "=H";
rightKerningGroup = N;
rightMetricsKey = "=J";
},
{
color = 6;
glyphname = K.swsh;
layers = (
{
anchors = (
{
name = bottom;
position = "{630, 0}";
},
{
name = top;
position = "{630, 665}";
}
);
layerId = "230F8D9C-4AAC-4C97-935A-A5529CE4A32C";
paths = (
{
closed = 1;
nodes = (
"605 402 LINE SMOOTH",
"595 416 OFFCURVE",
"594 424 OFFCURVE",
"605 434 CURVE SMOOTH",
"772 590 LINE SMOOTH",
"811 627 OFFCURVE",
"834 639 OFFCURVE",
"884 642 CURVE",
"884 665 LINE",
"699 665 LINE",
"699 642 LINE",
"734 640 OFFCURVE",
"742 636 OFFCURVE",
"742 627 CURVE SMOOTH",
"742 614 OFFCURVE",
"732 603 OFFCURVE",
"699 573 CURVE SMOOTH",
"510 397 LINE",
"508 397 LINE",
"520 565 LINE SMOOTH",
"525 634 OFFCURVE",
"531 639 OFFCURVE",
"569 642 CURVE",
"569 665 LINE",
"379 665 LINE SMOOTH",
"172 665 OFFCURVE",
"40 527 OFFCURVE",
"40 425 CURVE SMOOTH",
"40 344 OFFCURVE",
"94 310 OFFCURVE",
"163 310 CURVE SMOOTH",
"210 310 OFFCURVE",
"260 325 OFFCURVE",
"295 354 CURVE",
"289 377 LINE",
"256 358 OFFCURVE",
"220 350 OFFCURVE",
"194 350 CURVE SMOOTH",
"138 350 OFFCURVE",
"110 386 OFFCURVE",
"110 433 CURVE SMOOTH",
"110 519 OFFCURVE",
"203 632 OFFCURVE",
"379 632 CURVE SMOOTH",
"475 632 LINE",
"453 610 OFFCURVE",
"452 587 OFFCURVE",
"450 565 CURVE SMOOTH",
"418 100 LINE SMOOTH",
"413 30 OFFCURVE",
"407 25 OFFCURVE",
"369 23 CURVE",
"369 0 LINE",
"559 0 LINE",
"559 23 LINE",
"499 25 OFFCURVE",
"483 30 OFFCURVE",
"488 100 CURVE SMOOTH",
"504 336 LINE SMOOTH",
"506 360 OFFCURVE",
"516 370 OFFCURVE",
"527 370 CURVE SMOOTH",
"536 370 OFFCURVE",
"544 364 OFFCURVE",
"559 344 CURVE SMOOTH",
"765 71 LINE SMOOTH",
"796 31 OFFCURVE",
"825 -4 OFFCURVE",
"897 -4 CURVE SMOOTH",
"910 -4 OFFCURVE",
"925 -3 OFFCURVE",
"942 0 CURVE",
"942 23 LINE",
"894 23 OFFCURVE",
"880 35 OFFCURVE",
"829 103 CURVE SMOOTH"
);
}
);
width = 932;
},
{
associatedMasterId = "230F8D9C-4AAC-4C97-935A-A5529CE4A32C";
layerId = "80628BE6-A8FB-480E-92B8-7C52D39AD99C";
width = 600;
}
);
leftKerningGroup = swash;
leftMetricsKey = "=H";
rightKerningGroup = K;
rightMetricsKey = "=K";
},
{
color = 6;
glyphname = L.swsh;
layers = (
{
anchors = (
{
name = bottom;
position = "{565, 0}";
},
{
name = center;
position = "{565, 333}";
},
{
name = top;
position = "{474, 665}";
},
{
name = topright;
position = "{793, 665}";
}
);
layerId = "230F8D9C-4AAC-4C97-935A-A5529CE4A32C";
paths = (
{
closed = 1;
nodes = (
"766 85 OFFCURVE",
"733 30 OFFCURVE",
"633 30 CURVE SMOOTH",
"539 30 LINE SMOOTH",
"479 30 OFFCURVE",
"463 35 OFFCURVE",
"468 100 CURVE SMOOTH",
"500 565 LINE SMOOTH",
"505 634 OFFCURVE",
"511 639 OFFCURVE",
"549 642 CURVE",
"549 665 LINE",
"379 665 LINE SMOOTH",
"172 665 OFFCURVE",
"40 527 OFFCURVE",
"40 425 CURVE SMOOTH",
"40 344 OFFCURVE",
"94 310 OFFCURVE",
"163 310 CURVE SMOOTH",
"210 310 OFFCURVE",
"260 325 OFFCURVE",
"295 354 CURVE",
"289 377 LINE",
"256 358 OFFCURVE",
"220 350 OFFCURVE",
"194 350 CURVE SMOOTH",
"138 350 OFFCURVE",
"110 386 OFFCURVE",
"110 433 CURVE SMOOTH",
"110 519 OFFCURVE",
"203 632 OFFCURVE",
"379 632 CURVE SMOOTH",
"456 632 LINE",
"434 610 OFFCURVE",
"432 587 OFFCURVE",
"430 565 CURVE SMOOTH",
"398 100 LINE SMOOTH",
"393 30 OFFCURVE",
"387 25 OFFCURVE",
"349 23 CURVE",
"349 0 LINE",
"781 0 LINE",
"800 155 LINE",
"777 155 LINE"
);
}
);
width = 813;
},
{
associatedMasterId = "230F8D9C-4AAC-4C97-935A-A5529CE4A32C";
layerId = "80628BE6-A8FB-480E-92B8-7C52D39AD99C";
width = 600;
}
);
leftKerningGroup = swash;
leftMetricsKey = "=H";
rightKerningGroup = L;
rightMetricsKey = "=L";
},
{
color = 6;
glyphname = Lslash.swsh;
layers = (
{
anchors = (
{
name = bottom;
position = "{565, 0}";
},
{
name = center;
position = "{565, 333}";
},
{
name = top;
position = "{474, 665}";
},
{
name = topright;
position = "{793, 665}";
}
);
layerId = "230F8D9C-4AAC-4C97-935A-A5529CE4A32C";
paths = (
{
closed = 1;
nodes = (
"705 438 LINE",
"705 478 LINE",
"453 351 LINE",
"453 311 LINE"
);
},
{
closed = 1;
nodes = (
"309 288 LINE",
"309 248 LINE",
"453 321 LINE",
"453 361 LINE"
);
},
{
closed = 1;
nodes = (
"766 85 OFFCURVE",
"733 30 OFFCURVE",
"633 30 CURVE SMOOTH",
"539 30 LINE SMOOTH",
"479 30 OFFCURVE",
"463 35 OFFCURVE",
"468 100 CURVE SMOOTH",
"500 565 LINE SMOOTH",
"505 634 OFFCURVE",
"511 639 OFFCURVE",
"549 642 CURVE",
"549 665 LINE",
"379 665 LINE SMOOTH",
"172 665 OFFCURVE",
"40 527 OFFCURVE",
"40 425 CURVE SMOOTH",
"40 344 OFFCURVE",
"94 310 OFFCURVE",
"163 310 CURVE SMOOTH",
"210 310 OFFCURVE",
"260 325 OFFCURVE",
"295 354 CURVE",
"289 377 LINE",
"256 358 OFFCURVE",
"220 350 OFFCURVE",
"194 350 CURVE SMOOTH",
"138 350 OFFCURVE",
"110 386 OFFCURVE",
"110 433 CURVE SMOOTH",
"110 519 OFFCURVE",
"203 632 OFFCURVE",
"379 632 CURVE SMOOTH",
"456 632 LINE",
"434 610 OFFCURVE",
"432 587 OFFCURVE",
"430 565 CURVE SMOOTH",
"398 100 LINE SMOOTH",
"393 30 OFFCURVE",
"387 25 OFFCURVE",
"349 23 CURVE",
"349 0 LINE",
"781 0 LINE",
"800 155 LINE",
"777 155 LINE"
);
}
);
width = 813;
},
{
associatedMasterId = "230F8D9C-4AAC-4C97-935A-A5529CE4A32C";
layerId = "80628BE6-A8FB-480E-92B8-7C52D39AD99C";
width = 600;
}
);
leftKerningGroup = swash;
leftMetricsKey = "=H";
rightKerningGroup = L;
rightMetricsKey = "=L";
},
{
color = 6;
glyphname = M.swsh;
layers = (
{
anchors = (
{
name = bottom;
position = "{729, 0}";
},
{
name = top;
position = "{729, 665}";
}
);
layerId = "230F8D9C-4AAC-4C97-935A-A5529CE4A32C";
paths = (
{
closed = 1;
nodes = (
"1129 665 LINE",
"992 665 LINE",
"980 632 OFFCURVE",
"966 599 OFFCURVE",
"950 565 CURVE SMOOTH",
"721 89 LINE",
"719 89 LINE",
"539 565 LINE SMOOTH",
"525 602 OFFCURVE",
"515 630 OFFCURVE",
"507 665 CURVE",
"384 665 LINE SMOOTH",
"177 665 OFFCURVE",
"45 527 OFFCURVE",
"45 425 CURVE SMOOTH",
"45 344 OFFCURVE",
"99 310 OFFCURVE",
"168 310 CURVE SMOOTH",
"215 310 OFFCURVE",
"265 325 OFFCURVE",
"300 354 CURVE",
"294 377 LINE",
"261 358 OFFCURVE",
"225 350 OFFCURVE",
"199 350 CURVE SMOOTH",
"143 350 OFFCURVE",
"115 386 OFFCURVE",
"115 433 CURVE SMOOTH",
"115 519 OFFCURVE",
"208 632 OFFCURVE",
"384 632 CURVE SMOOTH",
"462 632 LINE",
"440 610 OFFCURVE",
"437 587 OFFCURVE",
"435 565 CURVE SMOOTH",
"383 100 LINE SMOOTH",
"375 30 OFFCURVE",
"369 25 OFFCURVE",
"334 23 CURVE",
"334 0 LINE",
"514 0 LINE",
"514 23 LINE",
"433 25 OFFCURVE",
"417 30 OFFCURVE",
"425 100 CURVE SMOOTH",
"469 535 LINE",
"471 535 LINE",
"635 104 LINE SMOOTH",
"656 48 OFFCURVE",
"667 23 OFFCURVE",
"676 -8 CURVE",
"721 -8 LINE",
"732 23 OFFCURVE",
"744 48 OFFCURVE",
"771 104 CURVE SMOOTH",
"981 535 LINE",
"983 535 LINE",
"983 100 LINE SMOOTH",
"983 30 OFFCURVE",
"977 25 OFFCURVE",
"939 23 CURVE",
"939 0 LINE",
"1129 0 LINE",
"1129 23 LINE",
"1069 25 OFFCURVE",
"1053 30 OFFCURVE",
"1053 100 CURVE SMOOTH",
"1053 565 LINE SMOOTH",
"1053 634 OFFCURVE",
"1069 640 OFFCURVE",
"1129 642 CURVE"
);
}
);
width = 1169;
},
{
associatedMasterId = "230F8D9C-4AAC-4C97-935A-A5529CE4A32C";
layerId = "80628BE6-A8FB-480E-92B8-7C52D39AD99C";
width = 600;
}
);
leftKerningGroup = swash;
leftMetricsKey = "=H+5";
rightMetricsKey = "=H";
},
{
color = 6;
glyphname = N.swsh;
layers = (
{
anchors = (
{
name = bottom;
position = "{661, 0}";
},
{
name = top;
position = "{681, 665}";
}
);
guideLines = (
{
angle = 86.4483;
position = "{903, 565}";
},
{
angle = 86.4483;
position = "{452, 318}";
}
);
layerId = "230F8D9C-4AAC-4C97-935A-A5529CE4A32C";
paths = (
{
closed = 1;
nodes = (
"812 642 LINE",
"891 639 OFFCURVE",
"907 634 OFFCURVE",
"903 565 CURVE SMOOTH",
"876 123 LINE",
"874 123 LINE",
"539 565 LINE SMOOTH",
"516 596 OFFCURVE",
"492 630 OFFCURVE",
"474 665 CURVE",
"379 665 LINE SMOOTH",
"172 665 OFFCURVE",
"40 527 OFFCURVE",
"40 425 CURVE SMOOTH",
"40 344 OFFCURVE",
"94 310 OFFCURVE",
"163 310 CURVE SMOOTH",
"210 310 OFFCURVE",
"260 325 OFFCURVE",
"295 354 CURVE",
"289 377 LINE",
"256 358 OFFCURVE",
"220 350 OFFCURVE",
"194 350 CURVE SMOOTH",
"138 350 OFFCURVE",
"110 386 OFFCURVE",
"110 433 CURVE SMOOTH",
"110 519 OFFCURVE",
"203 632 OFFCURVE",
"379 632 CURVE SMOOTH",
"455 632 LINE",
"433 610 OFFCURVE",
"432 587 OFFCURVE",
"430 565 CURVE SMOOTH",
"398 100 LINE SMOOTH",
"393 30 OFFCURVE",
"387 25 OFFCURVE",
"349 23 CURVE",
"349 0 LINE",
"529 0 LINE",
"529 23 LINE",
"450 25 OFFCURVE",
"434 30 OFFCURVE",
"438 100 CURVE SMOOTH",
"466 537 LINE",
"468 537 LINE",
"796 104 LINE SMOOTH",
"832 56 OFFCURVE",
"855 23 OFFCURVE",
"873 -8 CURVE",
"905 -8 LINE",
"905 30 OFFCURVE",
"908 63 OFFCURVE",
"910 100 CURVE SMOOTH",
"943 565 LINE SMOOTH",
"948 634 OFFCURVE",
"954 639 OFFCURVE",
"992 642 CURVE",
"992 665 LINE",
"812 665 LINE"
);
}
);
width = 1024;
},
{
associatedMasterId = "230F8D9C-4AAC-4C97-935A-A5529CE4A32C";
layerId = "80628BE6-A8FB-480E-92B8-7C52D39AD99C";
width = 600;
}
);
leftKerningGroup = swash;
leftMetricsKey = "=H";
rightMetricsKey = "=N";
},
{
color = 6;
glyphname = P.swsh;
layers = (
{
anchors = (
{
name = bottom;
position = "{576, 0}";
},
{
name = top;
position = "{576, 665}";
}
);
layerId = "230F8D9C-4AAC-4C97-935A-A5529CE4A32C";
paths = (
{
closed = 1;
nodes = (
"209 310 OFFCURVE",
"260 325 OFFCURVE",
"295 354 CURVE",
"289 377 LINE",
"256 358 OFFCURVE",
"220 350 OFFCURVE",
"194 350 CURVE SMOOTH",
"138 350 OFFCURVE",
"110 388 OFFCURVE",
"110 430 CURVE SMOOTH",
"110 515 OFFCURVE",
"223 637 OFFCURVE",
"528 637 CURVE SMOOTH",
"694 637 OFFCURVE",
"743 595 OFFCURVE",
"743 517 CURVE SMOOTH",
"743 430 OFFCURVE",
"681 351 OFFCURVE",
"514 366 CURVE",
"512 342 LINE",
"716 323 OFFCURVE",
"823 421 OFFCURVE",
"823 526 CURVE SMOOTH",
"823 616 OFFCURVE",
"743 670 OFFCURVE",
"542 670 CURVE SMOOTH",
"201 670 OFFCURVE",
"40 529 OFFCURVE",
"40 415 CURVE SMOOTH",
"40 348 OFFCURVE",
"94 310 OFFCURVE",
"165 310 CURVE SMOOTH"
);
},
{
closed = 1;
nodes = (
"561 0 LINE",
"561 23 LINE",
"481 25 OFFCURVE",
"465 30 OFFCURVE",
"470 100 CURVE SMOOTH",
"507 637 LINE",
"457 637 LINE",
"437 617 OFFCURVE",
"434 592 OFFCURVE",
"432 565 CURVE SMOOTH",
"400 100 LINE SMOOTH",
"395 30 OFFCURVE",
"389 25 OFFCURVE",
"351 23 CURVE",
"351 0 LINE"
);
}
);
width = 836;
},
{
associatedMasterId = "230F8D9C-4AAC-4C97-935A-A5529CE4A32C";
layerId = "80628BE6-A8FB-480E-92B8-7C52D39AD99C";
width = 600;
}
);
leftKerningGroup = swash;
leftMetricsKey = "=H";
rightKerningGroup = F;
rightMetricsKey = "=P";
},
{
color = 6;
glyphname = Q.swsh;
layers = (
{
anchors = (
{
name = bottom;
position = "{376, 0}";
},
{
name = top;
position = "{376, 665}";
}
);
layerId = "230F8D9C-4AAC-4C97-935A-A5529CE4A32C";
paths = (
{
closed = 1;
nodes = (
"452 -131 OFFCURVE",
"389 -49 OFFCURVE",
"256 -49 CURVE SMOOTH",
"247 -49 OFFCURVE",
"238 -49 OFFCURVE",
"228 -50 CURVE",
"228 -48 LINE",
"512 10 OFFCURVE",
"701 169 OFFCURVE",
"701 390 CURVE SMOOTH",
"701 582 OFFCURVE",
"558 680 OFFCURVE",
"403 680 CURVE SMOOTH",
"227 680 OFFCURVE",
"43 553 OFFCURVE",
"43 352 CURVE SMOOTH",
"43 194 OFFCURVE",
"157 130 OFFCURVE",
"249 130 CURVE SMOOTH",
"349 130 OFFCURVE",
"486 205 OFFCURVE",
"486 346 CURVE SMOOTH",
"486 429 OFFCURVE",
"435 465 OFFCURVE",
"380 465 CURVE SMOOTH",
"338 465 OFFCURVE",
"305 444 OFFCURVE",
"266 403 CURVE",
"282 387 LINE",
"309 410 OFFCURVE",
"330 421 OFFCURVE",
"355 421 CURVE SMOOTH",
"390 421 OFFCURVE",
"416 397 OFFCURVE",
"416 330 CURVE SMOOTH",
"416 220 OFFCURVE",
"347 163 OFFCURVE",
"267 163 CURVE SMOOTH",
"187 163 OFFCURVE",
"123 220 OFFCURVE",
"123 352 CURVE SMOOTH",
"123 532 OFFCURVE",
"246 647 OFFCURVE",
"397 647 CURVE SMOOTH",
"533 647 OFFCURVE",
"621 553 OFFCURVE",
"621 379 CURVE SMOOTH",
"621 187 OFFCURVE",
"513 40 OFFCURVE",
"141 -46 CURVE",
"141 -69 LINE",
"336 -69 OFFCURVE",
"389 -187 OFFCURVE",
"564 -200 CURVE",
"607 -178 OFFCURVE",
"642 -131 OFFCURVE",
"661 -87 CURVE",
"640 -79 LINE",
"613 -124 OFFCURVE",
"600 -131 OFFCURVE",
"567 -131 CURVE SMOOTH"
);
}
);
width = 751;
},
{
associatedMasterId = "230F8D9C-4AAC-4C97-935A-A5529CE4A32C";
layerId = "80628BE6-A8FB-480E-92B8-7C52D39AD99C";
width = 600;
}
);
leftKerningGroup = O;
leftMetricsKey = "=O";
rightKerningGroup = O;
},
{
color = 6;
glyphname = R.swsh;
layers = (
{
anchors = (
{
name = bottom;
position = "{640, 0}";
},
{
name = top;
position = "{600, 665}";
}
);
layerId = "230F8D9C-4AAC-4C97-935A-A5529CE4A32C";
paths = (
{
closed = 1;
nodes = (
"620 366 LINE",
"620 368 LINE",
"721 381 OFFCURVE",
"806 445 OFFCURVE",
"806 534 CURVE SMOOTH",
"806 613 OFFCURVE",
"737 670 OFFCURVE",
"539 670 CURVE SMOOTH",
"205 670 OFFCURVE",
"40 534 OFFCURVE",
"40 416 CURVE SMOOTH",
"40 348 OFFCURVE",
"95 310 OFFCURVE",
"165 310 CURVE SMOOTH",
"209 310 OFFCURVE",
"260 325 OFFCURVE",
"295 354 CURVE",
"289 377 LINE",
"256 358 OFFCURVE",
"220 350 OFFCURVE",
"194 350 CURVE SMOOTH",
"138 350 OFFCURVE",
"110 387 OFFCURVE",
"110 432 CURVE SMOOTH",
"110 519 OFFCURVE",
"215 637 OFFCURVE",
"536 637 CURVE SMOOTH",
"677 637 OFFCURVE",
"726 605 OFFCURVE",
"726 525 CURVE SMOOTH",
"726 413 OFFCURVE",
"628 381 OFFCURVE",
"513 394 CURVE",
"511 370 LINE",
"526 369 OFFCURVE",
"531 364 OFFCURVE",
"546 344 CURVE SMOOTH",
"752 71 LINE SMOOTH",
"783 31 OFFCURVE",
"812 -4 OFFCURVE",
"884 -4 CURVE SMOOTH",
"897 -4 OFFCURVE",
"912 -3 OFFCURVE",
"928 0 CURVE",
"928 23 LINE",
"881 23 OFFCURVE",
"867 35 OFFCURVE",
"816 103 CURVE SMOOTH"
);
},
{
closed = 1;
nodes = (
"507 637 LINE",
"456 637 LINE",
"437 617 OFFCURVE",
"434 589 OFFCURVE",
"432 565 CURVE SMOOTH",
"398 100 LINE SMOOTH",
"393 30 OFFCURVE",
"387 25 OFFCURVE",
"349 23 CURVE",
"349 0 LINE",
"539 0 LINE",
"539 23 LINE",
"479 25 OFFCURVE",
"463 30 OFFCURVE",
"468 100 CURVE SMOOTH"
);
}
);
width = 913;
},
{
associatedMasterId = "230F8D9C-4AAC-4C97-935A-A5529CE4A32C";
layerId = "80628BE6-A8FB-480E-92B8-7C52D39AD99C";
width = 600;
}
);
leftKerningGroup = swash;
leftMetricsKey = "=H";
rightKerningGroup = K;
rightMetricsKey = "=R";
},
{
color = 6;
glyphname = T.swsh;
layers = (
{
anchors = (
{
name = bottom;
position = "{454, 0}";
},
{
name = center;
position = "{660, 383}";
},
{
name = top;
position = "{513, 665}";
}
);
layerId = "230F8D9C-4AAC-4C97-935A-A5529CE4A32C";
paths = (
{
closed = 1;
nodes = (
"568 0 LINE",
"568 23 LINE",
"524 25 OFFCURVE",
"506 29 OFFCURVE",
"506 78 CURVE SMOOTH",
"506 85 OFFCURVE",
"506 92 OFFCURVE",
"507 100 CURVE SMOOTH",
"544 631 LINE",
"475 646 LINE",
"437 100 LINE SMOOTH",
"432 30 OFFCURVE",
"416 25 OFFCURVE",
"348 23 CURVE",
"348 0 LINE"
);
},
{
closed = 1;
nodes = (
"721 766 LINE",
"742 745 OFFCURVE",
"748 723 OFFCURVE",
"748 704 CURVE SMOOTH",
"748 664 OFFCURVE",
"722 644 OFFCURVE",
"673 644 CURVE SMOOTH",
"601 644 OFFCURVE",
"476 665 OFFCURVE",
"379 665 CURVE",
"379 632 LINE",
"451 632 OFFCURVE",
"585 611 OFFCURVE",
"682 611 CURVE SMOOTH",
"755 611 OFFCURVE",
"813 638 OFFCURVE",
"813 693 CURVE SMOOTH",
"813 732 OFFCURVE",
"783 765 OFFCURVE",
"736 782 CURVE"
);
},
{
closed = 1;
nodes = (
"210 310 OFFCURVE",
"260 325 OFFCURVE",
"295 354 CURVE",
"289 377 LINE",
"256 358 OFFCURVE",
"220 350 OFFCURVE",
"194 350 CURVE SMOOTH",
"138 350 OFFCURVE",
"110 386 OFFCURVE",
"110 433 CURVE SMOOTH",
"110 519 OFFCURVE",
"203 632 OFFCURVE",
"379 632 CURVE",
"379 665 LINE",
"172 665 OFFCURVE",
"40 527 OFFCURVE",
"40 425 CURVE",
"40 344 OFFCURVE",
"94 310 OFFCURVE",
"163 310 CURVE"
);
}
);
width = 803;
},
{
associatedMasterId = "230F8D9C-4AAC-4C97-935A-A5529CE4A32C";
components = (
{
name = _com_swash_caps;
transform = "{1, 0, 0, 1, 33, 0}";
}
);
layerId = "FB304F5A-17A0-4BD4-98DB-33557041087F";
name = "May 20 17, 11:27";
paths = (
{
closed = 1;
nodes = (
"487 0 LINE",
"487 23 LINE",
"437 25 OFFCURVE",
"421 30 OFFCURVE",
"426 100 CURVE SMOOTH",
"463 632 LINE",
"537 632 LINE SMOOTH",
"633 632 OFFCURVE",
"649 580 OFFCURVE",
"649 510 CURVE",
"672 510 LINE",
"682 665 LINE",
"292 665 LINE",
"292 632 LINE",
"393 632 LINE",
"356 100 LINE SMOOTH",
"351 30 OFFCURVE",
"335 25 OFFCURVE",
"267 23 CURVE",
"267 0 LINE"
);
}
);
width = 710;
},
{
anchors = (
{
name = bottom;
position = "{377, 0}";
},
{
name = center;
position = "{583, 383}";
},
{
name = top;
position = "{436, 665}";
}
);
associatedMasterId = "230F8D9C-4AAC-4C97-935A-A5529CE4A32C";
layerId = "37F25AEC-D8BE-4562-8E5F-F7FE6B8D0FCB";
name = "May 20 17, 11:28";
paths = (
{
closed = 1;
nodes = (
"491 0 LINE",
"491 23 LINE",
"447 25 OFFCURVE",
"429 29 OFFCURVE",
"429 78 CURVE SMOOTH",
"429 85 OFFCURVE",
"429 92 OFFCURVE",
"430 100 CURVE SMOOTH",
"467 631 LINE",
"398 646 LINE",
"360 100 LINE SMOOTH",
"355 30 OFFCURVE",
"339 25 OFFCURVE",
"271 23 CURVE",
"271 0 LINE"
);
},
{
closed = 1;
nodes = (
"614 756 LINE",
"635 735 OFFCURVE",
"641 713 OFFCURVE",
"641 694 CURVE SMOOTH",
"641 654 OFFCURVE",
"615 634 OFFCURVE",
"567 634 CURVE SMOOTH",
"495 634 OFFCURVE",
"346 680 OFFCURVE",
"257 680 CURVE SMOOTH",
"174 680 OFFCURVE",
"117 640 OFFCURVE",
"117 580 CURVE SMOOTH",
"117 537 OFFCURVE",
"146 501 OFFCURVE",
"199 484 CURVE",
"214 500 LINE",
"193 521 OFFCURVE",
"187 545 OFFCURVE",
"187 568 CURVE SMOOTH",
"187 615 OFFCURVE",
"213 642 OFFCURVE",
"265 642 CURVE SMOOTH",
"332 642 OFFCURVE",
"478 596 OFFCURVE",
"576 596 CURVE SMOOTH",
"653 596 OFFCURVE",
"711 624 OFFCURVE",
"711 682 CURVE SMOOTH",
"711 723 OFFCURVE",
"681 755 OFFCURVE",
"629 772 CURVE"
);
}
);
width = 734;
},
{
associatedMasterId = "230F8D9C-4AAC-4C97-935A-A5529CE4A32C";
layerId = "80628BE6-A8FB-480E-92B8-7C52D39AD99C";
width = 600;
}
);
leftKerningGroup = swash;
leftMetricsKey = "=H";
rightKerningGroup = T.swsh;
},
{
color = 6;
glyphname = U.swsh;
layers = (
{
anchors = (
{
name = bottom;
position = "{632, 0}";
},
{
name = ogonek;
position = "{924, 0}";
},
{
name = top;
position = "{682, 665}";
},
{
name = topright;
position = "{999, 665}";
}
);
layerId = "230F8D9C-4AAC-4C97-935A-A5529CE4A32C";
paths = (
{
closed = 1;
nodes = (
"942 634 OFFCURVE",
"948 639 OFFCURVE",
"986 642 CURVE",
"986 665 LINE",
"796 665 LINE",
"796 642 LINE",
"856 639 OFFCURVE",
"872 634 OFFCURVE",
"867 565 CURVE SMOOTH",
"850 322 LINE SMOOTH",
"839 167 OFFCURVE",
"700 30 OFFCURVE",
"571 30 CURVE SMOOTH",
"483 30 OFFCURVE",
"465 98 OFFCURVE",
"470 175 CURVE SMOOTH",
"497 565 LINE SMOOTH",
"502 634 OFFCURVE",
"508 639 OFFCURVE",
"546 642 CURVE",
"546 665 LINE",
"377 665 LINE SMOOTH",
"170 665 OFFCURVE",
"38 527 OFFCURVE",
"38 425 CURVE SMOOTH",
"38 344 OFFCURVE",
"92 310 OFFCURVE",
"161 310 CURVE SMOOTH",
"208 310 OFFCURVE",
"258 325 OFFCURVE",
"293 354 CURVE",
"287 377 LINE",
"254 358 OFFCURVE",
"218 350 OFFCURVE",
"192 350 CURVE SMOOTH",
"136 350 OFFCURVE",
"108 386 OFFCURVE",
"108 433 CURVE SMOOTH",
"108 519 OFFCURVE",
"201 632 OFFCURVE",
"377 632 CURVE SMOOTH",
"452 632 LINE",
"430 610 OFFCURVE",
"429 587 OFFCURVE",
"427 565 CURVE SMOOTH",
"399 158 LINE SMOOTH",
"392 50 OFFCURVE",
"432 -15 OFFCURVE",
"553 -15 CURVE SMOOTH",
"662 -15 OFFCURVE",
"776 58 OFFCURVE",
"838 175 CURVE",
"840 175 LINE",
"835 100 LINE SMOOTH",
"832 48 OFFCURVE",
"833 21 OFFCURVE",
"840 0 CURVE",
"976 0 LINE",
"976 23 LINE",
"916 25 OFFCURVE",
"900 30 OFFCURVE",
"905 100 CURVE SMOOTH",
"937 565 LINE SMOOTH"
);
}
);
width = 1033;
},
{
associatedMasterId = "230F8D9C-4AAC-4C97-935A-A5529CE4A32C";
layerId = "80628BE6-A8FB-480E-92B8-7C52D39AD99C";
width = 600;
}
);
leftKerningGroup = swash;
leftMetricsKey = "=U";
rightMetricsKey = "=U";
},
{
color = 6;
glyphname = V.swsh;
layers = (
{
anchors = (
{
name = bottom;
position = "{667, 0}";
},
{
name = top;
position = "{667, 665}";
}
);
layerId = "230F8D9C-4AAC-4C97-935A-A5529CE4A32C";
paths = (
{
closed = 1;
nodes = (
"778 642 LINE",
"854 639 OFFCURVE",
"870 634 OFFCURVE",
"842 565 CURVE SMOOTH",
"662 115 LINE",
"660 115 LINE",
"538 565 LINE SMOOTH",
"519 634 OFFCURVE",
"527 639 OFFCURVE",
"568 642 CURVE",
"568 665 LINE",
"379 665 LINE SMOOTH",
"172 665 OFFCURVE",
"40 527 OFFCURVE",
"40 425 CURVE SMOOTH",
"40 344 OFFCURVE",
"94 310 OFFCURVE",
"163 310 CURVE SMOOTH",
"210 310 OFFCURVE",
"260 325 OFFCURVE",
"295 354 CURVE",
"289 377 LINE",
"256 358 OFFCURVE",
"220 350 OFFCURVE",
"194 350 CURVE SMOOTH",
"138 350 OFFCURVE",
"110 386 OFFCURVE",
"110 433 CURVE SMOOTH",
"110 519 OFFCURVE",
"203 632 OFFCURVE",
"379 632 CURVE SMOOTH",
"468 632 LINE",
"454 610 OFFCURVE",
"459 587 OFFCURVE",
"465 565 CURVE SMOOTH",
"594 79 LINE SMOOTH",
"601 53 OFFCURVE",
"608 27 OFFCURVE",
"614 -8 CURVE",
"657 -8 LINE",
"667 27 OFFCURVE",
"676 53 OFFCURVE",
"687 79 CURVE SMOOTH",
"884 565 LINE SMOOTH",
"912 634 OFFCURVE",
"928 639 OFFCURVE",
"956 642 CURVE",
"956 665 LINE",
"778 665 LINE"
);
}
);
width = 959;
},
{
associatedMasterId = "230F8D9C-4AAC-4C97-935A-A5529CE4A32C";
layerId = "80628BE6-A8FB-480E-92B8-7C52D39AD99C";
width = 600;
}
);
leftKerningGroup = swash;
leftMetricsKey = "=H";
rightKerningGroup = V;
rightMetricsKey = "=V";
},
{
color = 6;
glyphname = W.swsh;
layers = (
{
anchors = (
{
name = bottom;
position = "{784, 0}";
},
{
name = top;
position = "{794, 665}";
}
);
layerId = "230F8D9C-4AAC-4C97-935A-A5529CE4A32C";
paths = (
{
closed = 1;
nodes = (
"1019 642 LINE",
"1089 639 OFFCURVE",
"1105 634 OFFCURVE",
"1088 565 CURVE SMOOTH",
"981 137 LINE",
"980 137 LINE",
"854 563 LINE SMOOTH",
"843 599 OFFCURVE",
"833 636 OFFCURVE",
"824 673 CURVE",
"781 673 LINE",
"569 137 LINE",
"567 137 LINE",
"514 565 LINE SMOOTH",
"505 634 OFFCURVE",
"512 639 OFFCURVE",
"579 642 CURVE",
"579 665 LINE",
"379 665 LINE SMOOTH",
"172 665 OFFCURVE",
"40 527 OFFCURVE",
"40 425 CURVE SMOOTH",
"40 344 OFFCURVE",
"94 310 OFFCURVE",
"163 310 CURVE SMOOTH",
"210 310 OFFCURVE",
"260 325 OFFCURVE",
"295 354 CURVE",
"289 377 LINE",
"256 358 OFFCURVE",
"220 350 OFFCURVE",
"194 350 CURVE SMOOTH",
"138 350 OFFCURVE",
"110 386 OFFCURVE",
"110 433 CURVE SMOOTH",
"110 519 OFFCURVE",
"203 632 OFFCURVE",
"379 632 CURVE SMOOTH",
"455 632 LINE",
"437 610 OFFCURVE",
"440 587 OFFCURVE",
"442 565 CURVE SMOOTH",
"502 79 LINE SMOOTH",
"505 54 OFFCURVE",
"508 27 OFFCURVE",
"511 -8 CURVE",
"554 -8 LINE",
"563 27 OFFCURVE",
"570 50 OFFCURVE",
"582 79 CURVE SMOOTH",
"777 560 LINE",
"779 560 LINE",
"921 79 LINE SMOOTH",
"929 53 OFFCURVE",
"935 27 OFFCURVE",
"941 -8 CURVE",
"984 -8 LINE",
"989 27 OFFCURVE",
"995 53 OFFCURVE",
"1002 79 CURVE SMOOTH",
"1130 565 LINE SMOOTH",
"1148 634 OFFCURVE",
"1164 639 OFFCURVE",
"1197 642 CURVE",
"1197 665 LINE",
"1019 665 LINE"
);
}
);
width = 1202;
},
{
associatedMasterId = "230F8D9C-4AAC-4C97-935A-A5529CE4A32C";
layerId = "80628BE6-A8FB-480E-92B8-7C52D39AD99C";
width = 600;
}
);
leftKerningGroup = swash;
leftMetricsKey = "=H";
rightKerningGroup = W;
rightMetricsKey = "=W";
},
{
color = 6;
glyphname = X.swsh;
layers = (
{
anchors = (
{
name = bottom;
position = "{601, 0}";
},
{
name = top;
position = "{601, 665}";
}
);
layerId = "230F8D9C-4AAC-4C97-935A-A5529CE4A32C";
paths = (
{
closed = 1;
nodes = (
"818 634 OFFCURVE",
"835 639 OFFCURVE",
"876 642 CURVE",
"876 665 LINE",
"695 665 LINE",
"695 642 LINE",
"755 639 OFFCURVE",
"771 634 OFFCURVE",
"726 565 CURVE SMOOTH",
"629 414 LINE",
"627 414 LINE",
"559 565 LINE SMOOTH",
"528 634 OFFCURVE",
"544 639 OFFCURVE",
"584 642 CURVE",
"584 665 LINE",
"379 665 LINE SMOOTH",
"172 665 OFFCURVE",
"40 527 OFFCURVE",
"40 425 CURVE SMOOTH",
"40 344 OFFCURVE",
"94 310 OFFCURVE",
"163 310 CURVE SMOOTH",
"210 310 OFFCURVE",
"260 325 OFFCURVE",
"295 354 CURVE",
"289 377 LINE",
"256 358 OFFCURVE",
"220 350 OFFCURVE",
"194 350 CURVE SMOOTH",
"138 350 OFFCURVE",
"110 386 OFFCURVE",
"110 433 CURVE SMOOTH",
"110 519 OFFCURVE",
"203 632 OFFCURVE",
"379 632 CURVE SMOOTH",
"469 632 LINE",
"459 610 OFFCURVE",
"470 587 OFFCURVE",
"480 565 CURVE SMOOTH",
"564 380 LINE SMOOTH",
"574 359 OFFCURVE",
"568 346 OFFCURVE",
"555 326 CURVE SMOOTH",
"409 100 LINE SMOOTH",
"364 30 OFFCURVE",
"349 25 OFFCURVE",
"305 23 CURVE",
"305 0 LINE",
"497 0 LINE",
"497 23 LINE",
"429 25 OFFCURVE",
"412 30 OFFCURVE",
"456 100 CURVE SMOOTH",
"593 315 LINE",
"595 315 LINE",
"691 100 LINE SMOOTH",
"722 30 OFFCURVE",
"706 25 OFFCURVE",
"667 23 CURVE",
"667 0 LINE",
"871 0 LINE",
"871 23 LINE",
"818 25 OFFCURVE",
"803 30 OFFCURVE",
"771 100 CURVE SMOOTH",
"658 348 LINE SMOOTH",
"649 367 OFFCURVE",
"653 388 OFFCURVE",
"665 405 CURVE SMOOTH",
"772 565 LINE SMOOTH"
);
}
);
width = 899;
},
{
associatedMasterId = "230F8D9C-4AAC-4C97-935A-A5529CE4A32C";
layerId = "80628BE6-A8FB-480E-92B8-7C52D39AD99C";
width = 600;
}
);
leftKerningGroup = swash;
leftMetricsKey = "=H";
rightKerningGroup = X;
rightMetricsKey = "=X";
},
{
color = 6;
glyphname = Y.swsh;
layers = (
{
anchors = (
{
name = bottom;
position = "{628, 0}";
},
{
name = top;
position = "{658, 665}";
},
{
name = topleft;
position = "{386, 665}";
}
);
layerId = "230F8D9C-4AAC-4C97-935A-A5529CE4A32C";
paths = (
{
closed = 1;
nodes = (
"719 642 LINE",
"788 639 OFFCURVE",
"804 634 OFFCURVE",
"760 565 CURVE SMOOTH",
"636 370 LINE",
"634 370 LINE",
"550 565 LINE SMOOTH",
"520 634 OFFCURVE",
"527 639 OFFCURVE",
"574 642 CURVE",
"574 665 LINE",
"379 665 LINE SMOOTH",
"172 665 OFFCURVE",
"40 527 OFFCURVE",
"40 425 CURVE SMOOTH",
"40 344 OFFCURVE",
"94 310 OFFCURVE",
"163 310 CURVE SMOOTH",
"210 310 OFFCURVE",
"260 325 OFFCURVE",
"295 354 CURVE",
"289 377 LINE",
"256 358 OFFCURVE",
"220 350 OFFCURVE",
"194 350 CURVE SMOOTH",
"138 350 OFFCURVE",
"110 386 OFFCURVE",
"110 433 CURVE SMOOTH",
"110 519 OFFCURVE",
"203 632 OFFCURVE",
"379 632 CURVE SMOOTH",
"468 632 LINE",
"457 610 OFFCURVE",
"466 587 OFFCURVE",
"475 565 CURVE SMOOTH",
"563 355 LINE SMOOTH",
"572 333 OFFCURVE",
"578 314 OFFCURVE",
"576 287 CURVE SMOOTH",
"563 100 LINE SMOOTH",
"558 30 OFFCURVE",
"542 25 OFFCURVE",
"474 23 CURVE",
"474 0 LINE",
"694 0 LINE",
"694 23 LINE",
"644 25 OFFCURVE",
"628 30 OFFCURVE",
"633 100 CURVE SMOOTH",
"646 287 LINE SMOOTH",
"649 323 OFFCURVE",
"656 333 OFFCURVE",
"670 355 CURVE SMOOTH",
"806 565 LINE SMOOTH",
"851 634 OFFCURVE",
"857 639 OFFCURVE",
"887 642 CURVE",
"887 665 LINE",
"719 665 LINE"
);
}
);
width = 890;
},
{
associatedMasterId = "230F8D9C-4AAC-4C97-935A-A5529CE4A32C";
layerId = "80628BE6-A8FB-480E-92B8-7C52D39AD99C";
width = 600;
}
);
leftKerningGroup = swash;
leftMetricsKey = "=H";
rightKerningGroup = V;
rightMetricsKey = "=Y";
},
{
color = 6;
glyphname = A_H;
layers = (
{
layerId = "230F8D9C-4AAC-4C97-935A-A5529CE4A32C";
paths = (
{
closed = 1;
nodes = (
"897 634 OFFCURVE",
"903 639 OFFCURVE",
"941 642 CURVE",
"941 665 LINE",
"751 665 LINE",
"751 642 LINE",
"811 639 OFFCURVE",
"827 634 OFFCURVE",
"822 565 CURVE SMOOTH",
"814 450 LINE SMOOTH",
"811 409 OFFCURVE",
"799 400 OFFCURVE",
"762 400 CURVE SMOOTH",
"520 400 LINE SMOOTH",
"500 400 OFFCURVE",
"484 398 OFFCURVE",
"473 390 CURVE",
"485 565 LINE SMOOTH",
"490 634 OFFCURVE",
"496 639 OFFCURVE",
"534 642 CURVE",
"534 665 LINE",
"324 665 LINE",
"324 642 LINE",
"361 640 OFFCURVE",
"389 638 OFFCURVE",
"404 620 CURVE",
"65 100 LINE SMOOTH",
"20 31 OFFCURVE",
"7 25 OFFCURVE",
"-27 23 CURVE",
"-27 0 LINE",
"158 0 LINE",
"158 23 LINE",
"89 25 OFFCURVE",
"70 31 OFFCURVE",
"114 100 CURVE SMOOTH",
"202 236 LINE SMOOTH",
"230 279 OFFCURVE",
"239 285 OFFCURVE",
"273 285 CURVE SMOOTH",
"361 285 LINE SMOOTH",
"374 285 OFFCURVE",
"387 286 OFFCURVE",
"396 292 CURVE",
"383 100 LINE SMOOTH",
"378 30 OFFCURVE",
"372 25 OFFCURVE",
"334 23 CURVE",
"334 0 LINE",
"524 0 LINE",
"524 23 LINE",
"464 25 OFFCURVE",
"448 30 OFFCURVE",
"453 100 CURVE SMOOTH",
"469 332 LINE SMOOTH",
"471 362 OFFCURVE",
"486 370 OFFCURVE",
"520 370 CURVE SMOOTH",
"762 370 LINE SMOOTH",
"783 370 OFFCURVE",
"799 373 OFFCURVE",
"810 383 CURVE",
"790 100 LINE SMOOTH",
"785 30 OFFCURVE",
"779 25 OFFCURVE",
"741 23 CURVE",
"741 0 LINE",
"931 0 LINE",
"931 23 LINE",
"871 25 OFFCURVE",
"855 30 OFFCURVE",
"860 100 CURVE SMOOTH",
"892 565 LINE SMOOTH"
);
},
{
closed = 1;
nodes = (
"398 319 OFFCURVE",
"388 315 OFFCURVE",
"370 315 CURVE SMOOTH",
"277 315 LINE SMOOTH",
"267 315 OFFCURVE",
"258 315 OFFCURVE",
"250 312 CURVE",
"413 565 LINE",
"415 565 LINE",
"399 339 LINE SMOOTH"
);
}
);
width = 981;
},
{
associatedMasterId = "230F8D9C-4AAC-4C97-935A-A5529CE4A32C";
layerId = "80628BE6-A8FB-480E-92B8-7C52D39AD99C";
width = 600;
}
);
leftKerningGroup = A;
leftMetricsKey = A;
rightMetricsKey = H;
},
{
color = 6;
glyphname = T_T;
layers = (
{
anchors = (
{
name = bottom;
position = "{722, 0}";
},
{
name = center;
position = "{928, 383}";
},
{
name = top;
position = "{781, 665}";
}
);
layerId = "230F8D9C-4AAC-4C97-935A-A5529CE4A32C";
paths = (
{
closed = 1;
nodes = (
"38 665 LINE",
"28 510 LINE",
"51 510 LINE",
"56 580 OFFCURVE",
"88 635 OFFCURVE",
"176 635 CURVE SMOOTH",
"257 635 LINE",
"220 100 LINE SMOOTH",
"215 30 OFFCURVE",
"199 25 OFFCURVE",
"131 23 CURVE",
"131 0 LINE",
"351 0 LINE",
"351 23 LINE",
"301 25 OFFCURVE",
"285 30 OFFCURVE",
"290 100 CURVE SMOOTH",
"327 635 LINE",
"401 635 LINE SMOOTH",
"497 635 OFFCURVE",
"513 580 OFFCURVE",
"513 510 CURVE",
"536 510 LINE",
"541 580 OFFCURVE",
"573 635 OFFCURVE",
"661 635 CURVE SMOOTH",
"742 635 LINE",
"705 100 LINE SMOOTH",
"700 30 OFFCURVE",
"684 25 OFFCURVE",
"616 23 CURVE",
"616 0 LINE",
"836 0 LINE",
"836 23 LINE",
"786 25 OFFCURVE",
"770 30 OFFCURVE",
"775 100 CURVE SMOOTH",
"812 635 LINE",
"886 635 LINE SMOOTH",
"982 635 OFFCURVE",
"998 580 OFFCURVE",
"998 510 CURVE",
"1021 510 LINE",
"1031 665 LINE"
);
}
);
width = 1059;
},
{
associatedMasterId = "230F8D9C-4AAC-4C97-935A-A5529CE4A32C";
layerId = "80628BE6-A8FB-480E-92B8-7C52D39AD99C";
width = 600;
}
);
leftKerningGroup = T;
leftMetricsKey = T;
rightKerningGroup = T;
rightMetricsKey = T;
},
{
color = 6;
glyphname = T_h;
layers = (
{
anchors = (
{
name = bottom;
position = "{817, 0}";
},
{
name = center;
position = "{817, 220}";
},
{
name = top;
position = "{817, 440}";
},
{
name = topright;
position = "{899, 560}";
}
);
guideLines = (
{
position = "{621, 710}";
}
);
layerId = "230F8D9C-4AAC-4C97-935A-A5529CE4A32C";
paths = (
{
closed = 1;
nodes = (
"748 455 OFFCURVE",
"646 375 OFFCURVE",
"596 290 CURVE",
"594 290 LINE",
"609 445 OFFCURVE",
"619 523 OFFCURVE",
"619 631 CURVE SMOOTH",
"619 664 OFFCURVE",
"615 693 OFFCURVE",
"607 710 CURVE",
"589 701 OFFCURVE",
"567 685 OFFCURVE",
"545 665 CURVE",
"38 665 LINE",
"28 510 LINE",
"51 510 LINE",
"56 580 OFFCURVE",
"88 635 OFFCURVE",
"176 635 CURVE SMOOTH",
"257 635 LINE",
"220 100 LINE SMOOTH",
"215 30 OFFCURVE",
"199 25 OFFCURVE",
"131 23 CURVE",
"131 0 LINE",
"351 0 LINE",
"351 23 LINE",
"301 25 OFFCURVE",
"285 30 OFFCURVE",
"290 100 CURVE SMOOTH",
"327 635 LINE",
"441 635 LINE SMOOTH",
"537 635 OFFCURVE",
"554 616 OFFCURVE",
"554 546 CURVE SMOOTH",
"554 471 OFFCURVE",
"527 165 OFFCURVE",
"509 -15 CURVE",
"530 -7 OFFCURVE",
"551 -2 OFFCURVE",
"574 0 CURVE",
"576 118 OFFCURVE",
"581 195 OFFCURVE",
"617 265 CURVE SMOOTH",
"655 338 OFFCURVE",
"724 394 OFFCURVE",
"772 394 CURVE SMOOTH",
"800 394 OFFCURVE",
"819 375 OFFCURVE",
"819 291 CURVE SMOOTH",
"819 201 OFFCURVE",
"799 50 OFFCURVE",
"748 50 CURVE SMOOTH",
"737 50 OFFCURVE",
"726 57 OFFCURVE",
"718 64 CURVE",
"694 49 OFFCURVE",
"688 13 OFFCURVE",
"697 -15 CURVE",
"820 -9 OFFCURVE",
"889 178 OFFCURVE",
"889 322 CURVE SMOOTH",
"889 424 OFFCURVE",
"854 455 OFFCURVE",
"813 455 CURVE SMOOTH"
);
}
);
width = 932;
},
{
associatedMasterId = "230F8D9C-4AAC-4C97-935A-A5529CE4A32C";
layerId = "80628BE6-A8FB-480E-92B8-7C52D39AD99C";
width = 600;
}
);
leftKerningGroup = T;
leftMetricsKey = "=T";
rightKerningGroup = h;
rightMetricsKey = "=h";
},
{
color = 6;
glyphname = T_h.swsh;
layers = (
{
anchors = (
{
name = bottom;
position = "{1008, 0}";
},
{
name = center;
position = "{1008, 220}";
},
{
name = top;
position = "{1008, 440}";
},
{
name = topright;
position = "{1090, 560}";
}
);
layerId = "230F8D9C-4AAC-4C97-935A-A5529CE4A32C";
paths = (
{
closed = 1;
nodes = (
"939 455 OFFCURVE",
"837 375 OFFCURVE",
"787 290 CURVE",
"785 290 LINE",
"800 445 OFFCURVE",
"810 523 OFFCURVE",
"810 631 CURVE SMOOTH",
"810 664 OFFCURVE",
"806 693 OFFCURVE",
"798 710 CURVE",
"780 701 OFFCURVE",
"758 685 OFFCURVE",
"736 665 CURVE",
"367 665 LINE SMOOTH",
"160 665 OFFCURVE",
"28 527 OFFCURVE",
"28 425 CURVE SMOOTH",
"28 344 OFFCURVE",
"82 310 OFFCURVE",
"151 310 CURVE SMOOTH",
"198 310 OFFCURVE",
"248 325 OFFCURVE",
"283 354 CURVE",
"277 377 LINE",
"244 358 OFFCURVE",
"208 350 OFFCURVE",
"182 350 CURVE SMOOTH",
"126 350 OFFCURVE",
"98 386 OFFCURVE",
"98 433 CURVE SMOOTH",
"98 519 OFFCURVE",
"191 632 OFFCURVE",
"367 632 CURVE SMOOTH",
"448 632 LINE",
"411 100 LINE SMOOTH",
"406 30 OFFCURVE",
"390 25 OFFCURVE",
"322 23 CURVE",
"322 0 LINE",
"542 0 LINE",
"542 23 LINE",
"492 25 OFFCURVE",
"476 30 OFFCURVE",
"481 100 CURVE SMOOTH",
"518 632 LINE",
"632 632 LINE SMOOTH",
"728 632 OFFCURVE",
"745 616 OFFCURVE",
"745 546 CURVE SMOOTH",
"745 471 OFFCURVE",
"718 165 OFFCURVE",
"700 -15 CURVE",
"721 -7 OFFCURVE",
"742 -2 OFFCURVE",
"765 0 CURVE",
"767 118 OFFCURVE",
"772 195 OFFCURVE",
"808 265 CURVE SMOOTH",
"846 338 OFFCURVE",
"915 394 OFFCURVE",
"963 394 CURVE SMOOTH",
"991 394 OFFCURVE",
"1010 375 OFFCURVE",
"1010 291 CURVE SMOOTH",
"1010 201 OFFCURVE",
"990 50 OFFCURVE",
"939 50 CURVE SMOOTH",
"928 50 OFFCURVE",
"917 57 OFFCURVE",
"909 64 CURVE",
"885 49 OFFCURVE",
"879 13 OFFCURVE",
"888 -15 CURVE",
"1011 -9 OFFCURVE",
"1080 178 OFFCURVE",
"1080 322 CURVE SMOOTH",
"1080 424 OFFCURVE",
"1045 455 OFFCURVE",
"1004 455 CURVE SMOOTH"
);
}
);
width = 1123;
},
{
associatedMasterId = "230F8D9C-4AAC-4C97-935A-A5529CE4A32C";
layerId = "80628BE6-A8FB-480E-92B8-7C52D39AD99C";
width = 600;
}
);
leftMetricsKey = T;
rightKerningGroup = n;
rightMetricsKey = h;
},
{
color = 6;
glyphname = Bsmall;
layers = (
{
layerId = "230F8D9C-4AAC-4C97-935A-A5529CE4A32C";
paths = (
{
closed = 1;
nodes = (
"257 0 LINE SMOOTH",
"400 0 OFFCURVE",
"452 76 OFFCURVE",
"452 151 CURVE SMOOTH",
"452 208 OFFCURVE",
"407 249 OFFCURVE",
"328 259 CURVE",
"328 261 LINE",
"392 274 OFFCURVE",
"420 314 OFFCURVE",
"420 363 CURVE SMOOTH",
"420 412 OFFCURVE",
"388 445 OFFCURVE",
"284 445 CURVE SMOOTH",
"236 445 OFFCURVE",
"210 440 OFFCURVE",
"124 440 CURVE SMOOTH",
"39 440 LINE",
"37 417 LINE",
"115 415 OFFCURVE",
"121 398 OFFCURVE",
"117 339 CURVE SMOOTH",
"100 101 LINE SMOOTH",
"95 31 OFFCURVE",
"79 25 OFFCURVE",
"35 23 CURVE",
"33 0 LINE"
);
},
{
closed = 1;
nodes = (
"178 35 OFFCURVE",
"166 45 OFFCURVE",
"169 87 CURVE SMOOTH",
"176 185 LINE SMOOTH",
"178 218 OFFCURVE",
"197 234 OFFCURVE",
"263 234 CURVE SMOOTH",
"332 234 OFFCURVE",
"377 201 OFFCURVE",
"377 143 CURVE SMOOTH",
"377 100 OFFCURVE",
"353 35 OFFCURVE",
"250 35 CURVE SMOOTH"
);
},
{
closed = 1;
nodes = (
"188 353 LINE SMOOTH",
"191 398 OFFCURVE",
"206 410 OFFCURVE",
"263 410 CURVE SMOOTH",
"298 410 OFFCURVE",
"349 399 OFFCURVE",
"349 353 CURVE SMOOTH",
"349 301 OFFCURVE",
"309 271 OFFCURVE",
"229 264 CURVE SMOOTH",
"207 262 OFFCURVE",
"194 260 OFFCURVE",
"181 251 CURVE"
);
}
);
width = 492;
}
);
leftKerningGroup = n;
leftMetricsKey = "=n";
rightKerningGroup = o;
rightMetricsKey = "=o";
unicode = 0299;
},
{
color = 6;
glyphname = Gsmall;
layers = (
{
layerId = "230F8D9C-4AAC-4C97-935A-A5529CE4A32C";
paths = (
{
closed = 1;
nodes = (
"300 182 LINE",
"341 179 OFFCURVE",
"356 177 OFFCURVE",
"356 143 CURVE SMOOTH",
"356 111 OFFCURVE",
"350 86 OFFCURVE",
"343 71 CURVE SMOOTH",
"328 39 OFFCURVE",
"292 20 OFFCURVE",
"246 20 CURVE SMOOTH",
"149 20 OFFCURVE",
"114 123 OFFCURVE",
"114 212 CURVE SMOOTH",
"114 335 OFFCURVE",
"175 418 OFFCURVE",
"265 418 CURVE SMOOTH",
"323 418 OFFCURVE",
"391 395 OFFCURVE",
"397 308 CURVE",
"420 308 LINE",
"427 419 LINE",
"390 445 OFFCURVE",
"338 455 OFFCURVE",
"287 455 CURVE SMOOTH",
"142 455 OFFCURVE",
"40 339 OFFCURVE",
"40 188 CURVE SMOOTH",
"40 83 OFFCURVE",
"92 -13 OFFCURVE",
"234 -13 CURVE SMOOTH",
"333 -13 OFFCURVE",
"387 34 OFFCURVE",
"420 70 CURVE",
"416 99 OFFCURVE",
"417 112 OFFCURVE",
"418 131 CURVE SMOOTH",
"419 147 LINE SMOOTH",
"420 168 OFFCURVE",
"426 180 OFFCURVE",
"447 182 CURVE",
"449 205 LINE",
"302 205 LINE"
);
}
);
width = 489;
}
);
leftKerningGroup = o;
leftMetricsKey = "=o";
rightKerningGroup = n;
rightMetricsKey = "=o";
unicode = 0262;
},
{
color = 6;
glyphname = Gsmallhook;
layers = (
{
layerId = "230F8D9C-4AAC-4C97-935A-A5529CE4A32C";
paths = (
{
closed = 1;
nodes = (
"431 575 OFFCURVE",
"395 492 OFFCURVE",
"380 419 CURVE",
"403 432 LINE",
"369 449 OFFCURVE",
"328 455 OFFCURVE",
"287 455 CURVE SMOOTH",
"142 455 OFFCURVE",
"40 339 OFFCURVE",
"40 188 CURVE SMOOTH",
"40 83 OFFCURVE",
"92 -13 OFFCURVE",
"234 -13 CURVE SMOOTH",
"333 -13 OFFCURVE",
"387 34 OFFCURVE",
"420 70 CURVE",
"416 99 OFFCURVE",
"417 112 OFFCURVE",
"418 131 CURVE SMOOTH",
"419 147 LINE SMOOTH",
"420 168 OFFCURVE",
"426 180 OFFCURVE",
"447 182 CURVE",
"449 205 LINE",
"302 205 LINE",
"300 182 LINE",
"341 179 OFFCURVE",
"356 177 OFFCURVE",
"356 143 CURVE SMOOTH",
"356 111 OFFCURVE",
"350 86 OFFCURVE",
"343 71 CURVE SMOOTH",
"328 39 OFFCURVE",
"292 20 OFFCURVE",
"246 20 CURVE SMOOTH",
"149 20 OFFCURVE",
"114 123 OFFCURVE",
"114 212 CURVE SMOOTH",
"114 335 OFFCURVE",
"175 418 OFFCURVE",
"265 418 CURVE SMOOTH",
"323 418 OFFCURVE",
"391 395 OFFCURVE",
"397 308 CURVE",
"420 308 LINE",
"427 419 LINE SMOOTH",
"432 504 OFFCURVE",
"447 532 OFFCURVE",
"469 532 CURVE SMOOTH",
"484 532 OFFCURVE",
"493 509 OFFCURVE",
"489 454 CURVE",
"511 454 LINE",
"528 509 OFFCURVE",
"539 565 OFFCURVE",
"493 604 CURVE"
);
}
);
width = 489;
}
);
leftKerningGroup = o;
leftMetricsKey = "=o";
unicode = 029B;
},
{
color = 6;
glyphname = Hsmall;
layers = (
{
layerId = "230F8D9C-4AAC-4C97-935A-A5529CE4A32C";
paths = (
{
closed = 1;
nodes = (
"473 406 OFFCURVE",
"485 414 OFFCURVE",
"534 417 CURVE",
"534 440 LINE",
"319 440 LINE",
"319 417 LINE",
"388 415 OFFCURVE",
"403 409 OFFCURVE",
"398 339 CURVE SMOOTH",
"395 304 LINE SMOOTH",
"392 268 OFFCURVE",
"379 259 OFFCURVE",
"343 259 CURVE SMOOTH",
"225 259 LINE SMOOTH",
"206 259 OFFCURVE",
"191 257 OFFCURVE",
"180 251 CURVE",
"186 339 LINE SMOOTH",
"191 406 OFFCURVE",
"203 414 OFFCURVE",
"252 417 CURVE",
"252 440 LINE",
"37 440 LINE",
"37 417 LINE",
"117 415 OFFCURVE",
"120 398 OFFCURVE",
"116 339 CURVE SMOOTH",
"99 101 LINE SMOOTH",
"94 38 OFFCURVE",
"85 26 OFFCURVE",
"33 23 CURVE",
"33 0 LINE",
"248 0 LINE",
"248 23 LINE",
"167 25 OFFCURVE",
"165 43 OFFCURVE",
"169 101 CURVE SMOOTH",
"175 179 LINE SMOOTH",
"178 214 OFFCURVE",
"191 223 OFFCURVE",
"227 223 CURVE SMOOTH",
"345 223 LINE SMOOTH",
"363 223 OFFCURVE",
"379 225 OFFCURVE",
"390 233 CURVE",
"381 101 LINE SMOOTH",
"376 31 OFFCURVE",
"361 25 OFFCURVE",
"315 23 CURVE",
"315 0 LINE",
"530 0 LINE",
"530 23 LINE",
"449 25 OFFCURVE",
"447 43 OFFCURVE",
"451 101 CURVE SMOOTH",
"468 339 LINE SMOOTH"
);
}
);
width = 567;
}
);
leftKerningGroup = n;
leftMetricsKey = "=n";
rightKerningGroup = n;
rightMetricsKey = "=|n";
unicode = 029C;
},
{
color = 6;
glyphname = Ismall;
layers = (
{
layerId = "230F8D9C-4AAC-4C97-935A-A5529CE4A32C";
paths = (
{
closed = 1;
nodes = (
"248 0 LINE",
"248 23 LINE",
"178 25 OFFCURVE",
"164 31 OFFCURVE",
"169 101 CURVE SMOOTH",
"186 338 LINE SMOOTH",
"190 400 OFFCURVE",
"200 414 OFFCURVE",
"252 416 CURVE",
"252 439 LINE",
"37 439 LINE",
"37 416 LINE",
"107 414 OFFCURVE",
"121 408 OFFCURVE",
"116 338 CURVE SMOOTH",
"99 101 LINE SMOOTH",
"94 38 OFFCURVE",
"85 26 OFFCURVE",
"33 23 CURVE",
"33 0 LINE"
);
}
);
width = 285;
}
);
leftKerningGroup = n;
leftMetricsKey = "=n";
rightKerningGroup = n;
rightMetricsKey = "=|n";
unicode = 026A;
},
{
color = 6;
glyphname = Lsmall;
layers = (
{
layerId = "230F8D9C-4AAC-4C97-935A-A5529CE4A32C";
paths = (
{
closed = 1;
nodes = (
"356 80 OFFCURVE",
"335 31 OFFCURVE",
"273 31 CURVE SMOOTH",
"225 31 LINE SMOOTH",
"171 31 OFFCURVE",
"166 61 OFFCURVE",
"169 101 CURVE SMOOTH",
"186 339 LINE SMOOTH",
"191 406 OFFCURVE",
"203 414 OFFCURVE",
"252 417 CURVE",
"252 440 LINE",
"37 440 LINE",
"37 417 LINE",
"117 415 OFFCURVE",
"120 398 OFFCURVE",
"116 339 CURVE SMOOTH",
"99 101 LINE SMOOTH",
"94 38 OFFCURVE",
"85 26 OFFCURVE",
"33 23 CURVE",
"33 0 LINE",
"372 0 LINE",
"387 132 LINE",
"364 132 LINE"
);
}
);
width = 400;
}
);
leftKerningGroup = n;
leftMetricsKey = "=n";
rightKerningGroup = l.sc;
rightMetricsKey = "=l.sc";
unicode = 029F;
},
{
color = 6;
glyphname = Nsmall;
layers = (
{
layerId = "230F8D9C-4AAC-4C97-935A-A5529CE4A32C";
paths = (
{
closed = 1;
nodes = (
"453 -7 LINE",
"453 29 OFFCURVE",
"455 53 OFFCURVE",
"457 84 CURVE SMOOTH",
"476 352 LINE SMOOTH",
"479 393 OFFCURVE",
"493 413 OFFCURVE",
"526 417 CURVE",
"526 440 LINE",
"379 440 LINE",
"379 417 LINE",
"430 414 OFFCURVE",
"441 391 OFFCURVE",
"438 352 CURVE SMOOTH",
"419 115 LINE",
"417 115 LINE",
"194 366 LINE SMOOTH",
"175 387 OFFCURVE",
"160 408 OFFCURVE",
"142 440 CURVE",
"44 440 LINE",
"44 421 LINE",
"89 418 OFFCURVE",
"104 399 OFFCURVE",
"101 356 CURVE SMOOTH",
"82 88 LINE SMOOTH",
"80 54 OFFCURVE",
"70 26 OFFCURVE",
"33 23 CURVE",
"33 0 LINE",
"188 0 LINE",
"188 23 LINE",
"121 26 OFFCURVE",
"118 57 OFFCURVE",
"120 88 CURVE SMOOTH",
"138 325 LINE",
"140 325 LINE",
"362 75 LINE SMOOTH",
"393 40 OFFCURVE",
"405 20 OFFCURVE",
"422 -7 CURVE"
);
}
);
width = 559;
}
);
leftKerningGroup = n;
leftMetricsKey = "=n";
rightKerningGroup = n;
rightMetricsKey = "=|n";
unicode = 0274;
},
{
color = 6;
glyphname = OEsmall;
layers = (
{
layerId = "230F8D9C-4AAC-4C97-935A-A5529CE4A32C";
paths = (
{
closed = 1;
nodes = (
"574 80 OFFCURVE",
"546 36 OFFCURVE",
"484 36 CURVE SMOOTH",
"444 36 LINE SMOOTH",
"391 36 OFFCURVE",
"383 47 OFFCURVE",
"386 89 CURVE SMOOTH",
"393 190 LINE SMOOTH",
"395 221 OFFCURVE",
"411 227 OFFCURVE",
"436 227 CURVE SMOOTH",
"484 227 LINE SMOOTH",
"517 227 OFFCURVE",
"525 217 OFFCURVE",
"524 180 CURVE",
"548 180 LINE",
"557 305 LINE",
"533 305 LINE",
"529 269 OFFCURVE",
"514 263 OFFCURVE",
"487 263 CURVE SMOOTH",
"437 263 LINE SMOOTH",
"426 263 OFFCURVE",
"410 263 OFFCURVE",
"398 255 CURVE",
"405 351 LINE SMOOTH",
"409 403 OFFCURVE",
"427 403 OFFCURVE",
"444 403 CURVE SMOOTH",
"478 403 LINE SMOOTH",
"531 403 OFFCURVE",
"554 394 OFFCURVE",
"554 337 CURVE",
"577 337 LINE",
"584 440 LINE",
"292 440 LINE SMOOTH",
"143 440 OFFCURVE",
"40 339 OFFCURVE",
"40 204 CURVE SMOOTH",
"40 89 OFFCURVE",
"117 0 OFFCURVE",
"245 0 CURVE SMOOTH",
"590 0 LINE",
"605 130 LINE",
"582 130 LINE"
);
},
{
closed = 1;
nodes = (
"312 50 OFFCURVE",
"303 38 OFFCURVE",
"260 36 CURVE",
"168 36 OFFCURVE",
"118 114 OFFCURVE",
"118 213 CURVE SMOOTH",
"118 333 OFFCURVE",
"180 403 OFFCURVE",
"288 403 CURVE SMOOTH",
"330 403 OFFCURVE",
"335 388 OFFCURVE",
"332 339 CURVE SMOOTH",
"315 96 LINE SMOOTH"
);
}
);
width = 628;
}
);
leftKerningGroup = o;
leftMetricsKey = "=o";
rightKerningGroup = n;
rightMetricsKey = "=e.sc";
unicode = 0276;
},
{
color = 6;
glyphname = Rsmall;
layers = (
{
layerId = "230F8D9C-4AAC-4C97-935A-A5529CE4A32C";
paths = (
{
closed = 1;
nodes = (
"423 -7 OFFCURVE",
"442 -5 OFFCURVE",
"459 0 CURVE",
"459 23 LINE",
"423 23 OFFCURVE",
"405 38 OFFCURVE",
"375 86 CURVE SMOOTH",
"288 225 LINE",
"288 227 LINE",
"360 244 OFFCURVE",
"401 288 OFFCURVE",
"401 348 CURVE SMOOTH",
"401 403 OFFCURVE",
"370 444 OFFCURVE",
"255 444 CURVE SMOOTH",
"222 444 OFFCURVE",
"191 440 OFFCURVE",
"121 440 CURVE SMOOTH",
"37 440 LINE",
"37 417 LINE",
"117 415 OFFCURVE",
"120 398 OFFCURVE",
"116 339 CURVE SMOOTH",
"99 101 LINE SMOOTH",
"94 38 OFFCURVE",
"85 26 OFFCURVE",
"33 23 CURVE",
"33 0 LINE",
"228 0 LINE",
"228 23 LINE",
"169 25 OFFCURVE",
"165 43 OFFCURVE",
"169 101 CURVE SMOOTH",
"187 356 LINE SMOOTH",
"190 401 OFFCURVE",
"204 413 OFFCURVE",
"246 413 CURVE SMOOTH",
"293 413 OFFCURVE",
"325 392 OFFCURVE",
"325 344 CURVE SMOOTH",
"325 278 OFFCURVE",
"280 238 OFFCURVE",
"194 243 CURVE",
"194 217 LINE",
"204 216 OFFCURVE",
"211 211 OFFCURVE",
"221 195 CURVE SMOOTH",
"301 64 LINE SMOOTH",
"323 28 OFFCURVE",
"347 -7 OFFCURVE",
"406 -7 CURVE SMOOTH"
);
}
);
width = 452;
}
);
leftKerningGroup = n;
leftMetricsKey = "=n";
rightKerningGroup = x;
rightMetricsKey = "=r.sc";
unicode = 0280;
},
{
color = 6;
glyphname = Rsmallinverted;
layers = (
{
layerId = "230F8D9C-4AAC-4C97-935A-A5529CE4A32C";
paths = (
{
closed = 1;
nodes = (
"374 447 OFFCURVE",
"345 412 OFFCURVE",
"318 376 CURVE SMOOTH",
"220 245 LINE SMOOTH",
"207 229 OFFCURVE",
"200 224 OFFCURVE",
"190 223 CURVE",
"186 197 LINE",
"265 202 OFFCURVE",
"304 169 OFFCURVE",
"304 114 CURVE SMOOTH",
"304 53 OFFCURVE",
"267 27 OFFCURVE",
"214 27 CURVE SMOOTH",
"172 27 OFFCURVE",
"160 39 OFFCURVE",
"163 84 CURVE SMOOTH",
"181 339 LINE SMOOTH",
"185 397 OFFCURVE",
"192 415 OFFCURVE",
"242 417 CURVE",
"242 440 LINE",
"47 440 LINE",
"47 417 LINE",
"99 414 OFFCURVE",
"115 405 OFFCURVE",
"112 362 CURVE SMOOTH",
"95 101 LINE",
"90 42 OFFCURVE",
"85 25 OFFCURVE",
"33 23 CURVE",
"33 0 LINE",
"85 0 LINE SMOOTH",
"155 0 OFFCURVE",
"186 -4 OFFCURVE",
"219 -4 CURVE SMOOTH",
"346 -4 OFFCURVE",
"379 46 OFFCURVE",
"379 110 CURVE SMOOTH",
"379 161 OFFCURVE",
"345 198 OFFCURVE",
"282 213 CURVE",
"282 215 LINE",
"389 354 LINE SMOOTH",
"426 402 OFFCURVE",
"446 417 OFFCURVE",
"483 417 CURVE",
"483 440 LINE",
"469 445 OFFCURVE",
"450 447 OFFCURVE",
"433 447 CURVE SMOOTH"
);
}
);
width = 476;
}
);
leftKerningGroup = n;
leftMetricsKey = "=n";
rightKerningGroup = x;
rightMetricsKey = "=r.sc";
unicode = 0281;
},
{
color = 6;
glyphname = Ysmall;
layers = (
{
layerId = "230F8D9C-4AAC-4C97-935A-A5529CE4A32C";
paths = (
{
closed = 1;
nodes = (
"258 421 LINE",
"303 418 OFFCURVE",
"316 397 OFFCURVE",
"288 356 CURVE SMOOTH",
"212 244 LINE",
"210 244 LINE",
"157 356 LINE SMOOTH",
"136 401 OFFCURVE",
"135 417 OFFCURVE",
"180 421 CURVE",
"180 440 LINE",
"5 440 LINE",
"5 421 LINE",
"42 418 OFFCURVE",
"50 407 OFFCURVE",
"75 356 CURVE SMOOTH",
"139 224 LINE SMOOTH",
"150 202 OFFCURVE",
"150 190 OFFCURVE",
"149 167 CURVE SMOOTH",
"145 101 LINE SMOOTH",
"141 36 OFFCURVE",
"129 26 OFFCURVE",
"79 23 CURVE",
"79 0 LINE",
"294 0 LINE",
"294 23 LINE",
"224 25 OFFCURVE",
"211 32 OFFCURVE",
"215 101 CURVE SMOOTH",
"219 167 LINE SMOOTH",
"221 199 OFFCURVE",
"227 209 OFFCURVE",
"238 224 CURVE SMOOTH",
"328 356 LINE SMOOTH",
"354 394 OFFCURVE",
"372 417 OFFCURVE",
"406 421 CURVE",
"406 440 LINE",
"258 440 LINE"
);
}
);
width = 409;
}
);
leftKerningGroup = v;
leftMetricsKey = "=y.sc";
rightKerningGroup = v;
rightMetricsKey = "=y.sc";
unicode = 028F;
},
{
color = 6;
glyphname = a;
layers = (
{
anchors = (
{
name = bottom;
position = "{186, 0}";
},
{
name = ogonek;
position = "{376, 0}";
},
{
name = top;
position = "{304, 440}";
}
);
layerId = "230F8D9C-4AAC-4C97-935A-A5529CE4A32C";
paths = (
{
closed = 1;
nodes = (
"203 -15 OFFCURVE",
"282 70 OFFCURVE",
"348 203 CURVE",
"350 203 LINE",
"340 134 OFFCURVE",
"337 102 OFFCURVE",
"337 60 CURVE SMOOTH",
"337 28 OFFCURVE",
"343 2 OFFCURVE",
"356 -15 CURVE",
"400 6 OFFCURVE",
"458 49 OFFCURVE",
"497 92 CURVE",
"480 108 LINE",
"455 83 OFFCURVE",
"432 66 OFFCURVE",
"419 66 CURVE SMOOTH",
"407 66 OFFCURVE",
"403 83 OFFCURVE",
"403 98 CURVE SMOOTH",
"403 134 OFFCURVE",
"409 258 OFFCURVE",
"431 455 CURVE",
"372 428 LINE",
"355 443 OFFCURVE",
"336 455 OFFCURVE",
"307 455 CURVE SMOOTH",
"183 455 OFFCURVE",
"40 249 OFFCURVE",
"40 106 CURVE SMOOTH",
"40 41 OFFCURVE",
"66 -15 OFFCURVE",
"129 -15 CURVE SMOOTH"
);
},
{
closed = 1;
nodes = (
"123 50 OFFCURVE",
"110 82 OFFCURVE",
"110 134 CURVE SMOOTH",
"110 250 OFFCURVE",
"199 425 OFFCURVE",
"300 425 CURVE SMOOTH",
"347 425 OFFCURVE",
"356 382 OFFCURVE",
"356 350 CURVE SMOOTH",
"356 232 OFFCURVE",
"232 50 OFFCURVE",
"159 50 CURVE SMOOTH"
);
}
);
width = 512;
},
{
associatedMasterId = "230F8D9C-4AAC-4C97-935A-A5529CE4A32C";
layerId = "80628BE6-A8FB-480E-92B8-7C52D39AD99C";
width = 600;
},
{
anchors = (
{
name = bottom;
position = "{186, 0}";
},
{
name = ogonek;
position = "{376, 0}";
},
{
name = top;
position = "{304, 440}";
}
);
associatedMasterId = "230F8D9C-4AAC-4C97-935A-A5529CE4A32C";
layerId = "4C0E66D2-5988-47D5-9F6D-98E348076D61";
name = "Aug 4 19, 12:48";
paths = (
{
closed = 1;
nodes = (
"334 455 OFFCURVE",
"255 370 OFFCURVE",
"189 237 CURVE",
"187 237 LINE",
"197 306 OFFCURVE",
"200 338 OFFCURVE",
"200 380 CURVE SMOOTH",
"200 412 OFFCURVE",
"194 438 OFFCURVE",
"181 455 CURVE",
"137 434 OFFCURVE",
"79 391 OFFCURVE",
"40 348 CURVE",
"57 332 LINE",
"82 357 OFFCURVE",
"105 374 OFFCURVE",
"118 374 CURVE SMOOTH",
"130 374 OFFCURVE",
"134 357 OFFCURVE",
"134 342 CURVE SMOOTH",
"134 306 OFFCURVE",
"128 182 OFFCURVE",
"106 -15 CURVE",
"165 12 LINE",
"182 -3 OFFCURVE",
"201 -15 OFFCURVE",
"230 -15 CURVE SMOOTH",
"354 -15 OFFCURVE",
"497 191 OFFCURVE",
"497 334 CURVE SMOOTH",
"497 399 OFFCURVE",
"471 455 OFFCURVE",
"408 455 CURVE SMOOTH"
);
},
{
closed = 1;
nodes = (
"414 390 OFFCURVE",
"427 358 OFFCURVE",
"427 306 CURVE SMOOTH",
"427 190 OFFCURVE",
"338 15 OFFCURVE",
"237 15 CURVE SMOOTH",
"190 15 OFFCURVE",
"181 58 OFFCURVE",
"181 90 CURVE SMOOTH",
"181 208 OFFCURVE",
"305 390 OFFCURVE",
"378 390 CURVE SMOOTH"
);
}
);
width = 512;
}
);
leftKerningGroup = o;
rightKerningGroup = n;
unicode = 0061;
},
{
color = 6;
glyphname = "alphaturned-latin";
layers = (
{
anchors = (
{
name = bottom;
position = "{208, 0}";
},
{
name = ogonek;
position = "{136, 440}";
},
{
name = top;
position = "{326, 440}";
}
);
layerId = "230F8D9C-4AAC-4C97-935A-A5529CE4A32C";
paths = (
{
closed = 1;
nodes = (
"309 455 OFFCURVE",
"230 370 OFFCURVE",
"164 237 CURVE",
"162 237 LINE",
"172 306 OFFCURVE",
"175 338 OFFCURVE",
"175 380 CURVE SMOOTH",
"175 412 OFFCURVE",
"169 438 OFFCURVE",
"156 455 CURVE",
"112 434 OFFCURVE",
"54 391 OFFCURVE",
"15 348 CURVE",
"32 332 LINE",
"57 357 OFFCURVE",
"80 374 OFFCURVE",
"93 374 CURVE SMOOTH",
"105 374 OFFCURVE",
"109 357 OFFCURVE",
"109 342 CURVE SMOOTH",
"109 306 OFFCURVE",
"103 182 OFFCURVE",
"81 -15 CURVE",
"140 12 LINE",
"157 -3 OFFCURVE",
"176 -15 OFFCURVE",
"205 -15 CURVE SMOOTH",
"329 -15 OFFCURVE",
"472 191 OFFCURVE",
"472 334 CURVE SMOOTH",
"472 399 OFFCURVE",
"446 455 OFFCURVE",
"383 455 CURVE SMOOTH"
);
},
{
closed = 1;
nodes = (
"389 390 OFFCURVE",
"402 358 OFFCURVE",
"402 306 CURVE SMOOTH",
"402 190 OFFCURVE",
"313 15 OFFCURVE",
"212 15 CURVE SMOOTH",
"165 15 OFFCURVE",
"156 58 OFFCURVE",
"156 90 CURVE SMOOTH",
"156 208 OFFCURVE",
"280 390 OFFCURVE",
"353 390 CURVE SMOOTH"
);
}
);
width = 512;
}
);
leftKerningGroup = n;
rightKerningGroup = o;
unicode = 0252;
},
{
color = 6;
glyphname = aogonek;
layers = (
{
anchors = (
{
name = bottom;
position = "{216, 0}";
},
{
name = ogonek;
position = "{376, 0}";
},
{
name = top;
position = "{314, 440}";
}
);
layerId = "230F8D9C-4AAC-4C97-935A-A5529CE4A32C";
paths = (
{
closed = 1;
nodes = (
"480 108 LINE",
"455 83 OFFCURVE",
"432 66 OFFCURVE",
"419 66 CURVE SMOOTH",
"407 66 OFFCURVE",
"403 83 OFFCURVE",
"403 98 CURVE SMOOTH",
"403 134 OFFCURVE",
"409 258 OFFCURVE",
"431 455 CURVE",
"372 428 LINE",
"355 443 OFFCURVE",
"336 455 OFFCURVE",
"307 455 CURVE SMOOTH",
"183 455 OFFCURVE",
"40 249 OFFCURVE",
"40 106 CURVE SMOOTH",
"40 41 OFFCURVE",
"68 -15 OFFCURVE",
"129 -15 CURVE SMOOTH",
"203 -15 OFFCURVE",
"282 70 OFFCURVE",
"348 203 CURVE",
"350 203 LINE",
"340 134 OFFCURVE",
"337 102 OFFCURVE",
"337 62 CURVE SMOOTH",
"337 37 OFFCURVE",
"344 16 OFFCURVE",
"367 0 CURVE",
"367 -2 LINE",
"325 -32 OFFCURVE",
"259 -104 OFFCURVE",
"259 -171 CURVE SMOOTH",
"259 -214 OFFCURVE",
"287 -235 OFFCURVE",
"321 -235 CURVE SMOOTH",
"354 -235 OFFCURVE",
"393 -215 OFFCURVE",
"429 -163 CURVE",
"412 -147 LINE",
"391 -169 OFFCURVE",
"372 -185 OFFCURVE",
"351 -185 CURVE SMOOTH",
"335 -185 OFFCURVE",
"319 -175 OFFCURVE",
"319 -145 CURVE SMOOTH",
"319 -67 OFFCURVE",
"427 18 OFFCURVE",
"497 92 CURVE"
);
},
{
closed = 1;
nodes = (
"125 50 OFFCURVE",
"105 82 OFFCURVE",
"105 134 CURVE SMOOTH",
"105 250 OFFCURVE",
"199 425 OFFCURVE",
"300 425 CURVE SMOOTH",
"347 425 OFFCURVE",
"356 382 OFFCURVE",
"356 350 CURVE SMOOTH",
"356 232 OFFCURVE",
"232 50 OFFCURVE",
"159 50 CURVE SMOOTH"
);
}
);
width = 512;
},
{
associatedMasterId = "230F8D9C-4AAC-4C97-935A-A5529CE4A32C";
components = (
{
alignment = -1;
name = a;
},
{
alignment = -1;
name = ogonekcomb;
transform = "{1, 0, 0, 1, 273, 0}";
}
);
layerId = "8C5E0BBA-8391-458B-8F6C-BAF10DA3CD4C";
name = "Apr 9 17, 14:58";
width = 470;
},
{
associatedMasterId = "230F8D9C-4AAC-4C97-935A-A5529CE4A32C";
components = (
{
alignment = -1;
name = a;
},
{
alignment = -1;
name = ogonekcomb;
transform = "{1, 0, 0, 1, 295, 0}";
}
);
layerId = "4CB4B3B4-FA37-4AB7-8E37-5AB6D5ABD08D";
name = "Apr 9 17, 14:58";
width = 530;
},
{
associatedMasterId = "230F8D9C-4AAC-4C97-935A-A5529CE4A32C";
components = (
{
alignment = -1;
name = a;
},
{
alignment = -1;
name = ogonekcomb;
transform = "{1, 0, 0, 1, 248, 0}";
}
);
layerId = "45092C70-86BF-4560-A1FB-B8421E22F39C";
name = "Apr 9 17, 14:58";
width = 517;
},
{
associatedMasterId = "230F8D9C-4AAC-4C97-935A-A5529CE4A32C";
layerId = "80628BE6-A8FB-480E-92B8-7C52D39AD99C";
width = 600;
}
);
leftKerningGroup = o;
leftMetricsKey = "=a";
rightKerningGroup = n;
rightMetricsKey = "=a";
unicode = 0105;
},
{
color = 6;
glyphname = aturned;
layers = (
{
anchors = (
{
name = bottom;
position = "{208, 0}";
},
{
name = ogonek;
position = "{136, 440}";
},
{
name = top;
position = "{326, 440}";
}
);
layerId = "230F8D9C-4AAC-4C97-935A-A5529CE4A32C";
paths = (
{
closed = 1;
nodes = (
"309 455 OFFCURVE",
"230 370 OFFCURVE",
"164 237 CURVE",
"162 237 LINE",
"172 306 OFFCURVE",
"175 338 OFFCURVE",
"175 380 CURVE SMOOTH",
"175 412 OFFCURVE",
"169 438 OFFCURVE",
"156 455 CURVE",
"112 434 OFFCURVE",
"54 391 OFFCURVE",
"15 348 CURVE",
"32 332 LINE",
"57 357 OFFCURVE",
"80 374 OFFCURVE",
"93 374 CURVE SMOOTH",
"105 374 OFFCURVE",
"109 357 OFFCURVE",
"109 342 CURVE SMOOTH",
"109 306 OFFCURVE",
"103 182 OFFCURVE",
"81 -15 CURVE",
"140 12 LINE",
"157 -3 OFFCURVE",
"176 -15 OFFCURVE",
"205 -15 CURVE SMOOTH",
"329 -15 OFFCURVE",
"472 191 OFFCURVE",
"472 334 CURVE SMOOTH",
"472 399 OFFCURVE",
"446 455 OFFCURVE",
"383 455 CURVE SMOOTH"
);
},
{
closed = 1;
nodes = (
"389 390 OFFCURVE",
"402 358 OFFCURVE",
"402 306 CURVE SMOOTH",
"402 190 OFFCURVE",
"313 15 OFFCURVE",
"212 15 CURVE SMOOTH",
"165 15 OFFCURVE",
"156 58 OFFCURVE",
"156 90 CURVE SMOOTH",
"156 208 OFFCURVE",
"280 390 OFFCURVE",
"353 390 CURVE SMOOTH"
);
}
);
width = 512;
}
);
leftKerningGroup = n;
rightKerningGroup = o;
unicode = 0250;
},
{
color = 6;
glyphname = ae;
layers = (
{
anchors = (
{
name = bottom;
position = "{323, 0}";
},
{
name = top;
position = "{393, 440}";
}
);
layerId = "230F8D9C-4AAC-4C97-935A-A5529CE4A32C";
paths = (
{
closed = 1;
nodes = (
"202 -15 OFFCURVE",
"280 70 OFFCURVE",
"343 203 CURVE",
"345 203 LINE",
"404 377 LINE",
"422 455 LINE",
"363 428 LINE",
"346 443 OFFCURVE",
"327 455 OFFCURVE",
"298 455 CURVE SMOOTH",
"175 455 OFFCURVE",
"40 253 OFFCURVE",
"40 108 CURVE SMOOTH",
"40 44 OFFCURVE",
"66 -15 OFFCURVE",
"128 -15 CURVE SMOOTH"
);
},
{
closed = 1;
nodes = (
"122 50 OFFCURVE",
"110 87 OFFCURVE",
"110 133 CURVE SMOOTH",
"110 255 OFFCURVE",
"192 425 OFFCURVE",
"290 425 CURVE SMOOTH",
"340 425 OFFCURVE",
"349 381 OFFCURVE",
"349 347 CURVE SMOOTH",
"349 230 OFFCURVE",
"230 50 OFFCURVE",
"156 50 CURVE SMOOTH"
);
},
{
closed = 1;
nodes = (
"481 -15 OFFCURVE",
"552 55 OFFCURVE",
"596 134 CURVE",
"575 142 LINE",
"535 83 OFFCURVE",
"493 50 OFFCURVE",
"440 50 CURVE",
"395 50 OFFCURVE",
"365 91 OFFCURVE",
"365 163 CURVE SMOOTH",
"365 285 OFFCURVE",
"454 415 OFFCURVE",
"516 415 CURVE",
"533 415 OFFCURVE",
"542 404 OFFCURVE",
"542 374 CURVE SMOOTH",
"542 316 OFFCURVE",
"492 241 OFFCURVE",
"361 161 CURVE",
"361 131 LINE",
"517 226 OFFCURVE",
"615 302 OFFCURVE",
"615 389 CURVE SMOOTH",
"615 426 OFFCURVE",
"603 455 OFFCURVE",
"551 455 CURVE",
"501 455 OFFCURVE",
"449 425 OFFCURVE",
"406 377 CURVE",
"404 377 LINE",
"350 316 OFFCURVE",
"310 224 OFFCURVE",
"310 129 CURVE SMOOTH",
"310 26 OFFCURVE",
"355 -15 OFFCURVE",
"410 -15 CURVE"
);
}
);
width = 637;
},
{
anchors = (
{
name = bottom;
position = "{865, 0}";
},
{
name = ogonek;
position = "{1016, 10}";
},
{
name = top;
position = "{945, 440}";
}
);
associatedMasterId = "230F8D9C-4AAC-4C97-935A-A5529CE4A32C";
components = (
{
alignment = -1;
name = e;
transform = "{1, 0, 0, 1, 224, 0}";
},
{
alignment = -1;
name = e;
transform = "{-1, 0, 0, -1, 387, 440}";
}
);
layerId = "7A5753DB-5082-40C3-B17C-E19614976D31";
name = "Mar 30 17, 10:41";
width = 602;
},
{
anchors = (
{
name = bottom;
position = "{651, 0}";
},
{
name = ogonek;
position = "{802, 10}";
},
{
name = top;
position = "{731, 440}";
}
);
associatedMasterId = "230F8D9C-4AAC-4C97-935A-A5529CE4A32C";
layerId = "2ABD0ADF-C8B4-4DB8-8945-39537F4F3F2B";
name = "Apr 5 17, 14:00";
paths = (
{
closed = 1;
nodes = (
"474 448 LINE",
"297 505 OFFCURVE",
"45 227 OFFCURVE",
"45 74 CURVE SMOOTH",
"45 36 OFFCURVE",
"61 -15 OFFCURVE",
"123 -15 CURVE",
"146 50 LINE",
"118 50 OFFCURVE",
"110 73 OFFCURVE",
"110 99 CURVE SMOOTH",
"110 230 OFFCURVE",
"304 457 OFFCURVE",
"471 415 CURVE"
);
},
{
closed = 1;
nodes = (
"436 -15 OFFCURVE",
"507 55 OFFCURVE",
"551 134 CURVE",
"530 142 LINE",
"490 83 OFFCURVE",
"448 50 OFFCURVE",
"395 50 CURVE",
"350 50 OFFCURVE",
"310 91 OFFCURVE",
"310 163 CURVE SMOOTH",
"310 285 OFFCURVE",
"409 415 OFFCURVE",
"471 415 CURVE",
"490 415 OFFCURVE",
"499 400 OFFCURVE",
"499 383 CURVE SMOOTH",
"499 328 OFFCURVE",
"401 201 OFFCURVE",
"297 119 CURVE SMOOTH",
"219 58 OFFCURVE",
"180 50 OFFCURVE",
"146 50 CURVE",
"123 -15 LINE",
"148 -15 OFFCURVE",
"186 -9 OFFCURVE",
"299 78 CURVE SMOOTH",
"391 149 OFFCURVE",
"569 311 OFFCURVE",
"569 398 CURVE SMOOTH",
"569 422 OFFCURVE",
"555 455 OFFCURVE",
"506 455 CURVE",
"379 455 OFFCURVE",
"255 281 OFFCURVE",
"255 131 CURVE SMOOTH",
"255 25 OFFCURVE",
"310 -15 OFFCURVE",
"365 -15 CURVE"
);
}
);
width = 595;
},
{
associatedMasterId = "230F8D9C-4AAC-4C97-935A-A5529CE4A32C";
layerId = "80628BE6-A8FB-480E-92B8-7C52D39AD99C";
width = 600;
}
);
leftKerningGroup = o;
leftMetricsKey = "=a";
rightKerningGroup = o;
rightMetricsKey = "=e";
unicode = 00E6;
},
{
color = 6;
glyphname = b;
layers = (
{
anchors = (
{
name = bottom;
position = "{206, 0}";
},
{
name = ogonek;
position = "{206, 0}";
},
{
name = top;
position = "{326, 750}";
}
);
layerId = "230F8D9C-4AAC-4C97-935A-A5529CE4A32C";
paths = (
{
closed = 1;
nodes = (
"127 15 LINE",
"145 -5 OFFCURVE",
"174 -15 OFFCURVE",
"202 -15 CURVE SMOOTH",
"324 -15 OFFCURVE",
"449 175 OFFCURVE",
"449 322 CURVE SMOOTH",
"449 405 OFFCURVE",
"409 455 OFFCURVE",
"348 455 CURVE SMOOTH",
"276 455 OFFCURVE",
"200 385 OFFCURVE",
"149 290 CURVE",
"147 290 LINE",
"162 445 OFFCURVE",
"178 603 OFFCURVE",
"178 711 CURVE SMOOTH",
"178 744 OFFCURVE",
"174 773 OFFCURVE",
"166 790 CURVE",
"116 766 OFFCURVE",
"48 689 OFFCURVE",
"13 644 CURVE",
"30 628 LINE",
"64 666 OFFCURVE",
"91 696 OFFCURVE",
"104 696 CURVE SMOOTH",
"110 696 OFFCURVE",
"113 691 OFFCURVE",
"113 676 CURVE SMOOTH",
"113 529 OFFCURVE",
"79 155 OFFCURVE",
"62 -15 CURVE"
);
},
{
closed = 1;
nodes = (
"153 15 OFFCURVE",
"136 69 OFFCURVE",
"136 124 CURVE SMOOTH",
"136 259 OFFCURVE",
"241 395 OFFCURVE",
"319 395 CURVE SMOOTH",
"362 395 OFFCURVE",
"379 352 OFFCURVE",
"379 295 CURVE SMOOTH",
"379 174 OFFCURVE",
"303 15 OFFCURVE",
"208 15 CURVE SMOOTH"
);
}
);
width = 489;
},
{
associatedMasterId = "230F8D9C-4AAC-4C97-935A-A5529CE4A32C";
layerId = "80628BE6-A8FB-480E-92B8-7C52D39AD99C";
width = 600;
}
);
leftKerningGroup = l;
rightKerningGroup = o;
rightMetricsKey = "=o";
unicode = 0062;
},
{
color = 6;
glyphname = bhook;
layers = (
{
anchors = (
{
name = bottom;
position = "{206, 0}";
},
{
name = ogonek;
position = "{206, 0}";
},
{
name = top;
position = "{326, 750}";
}
);
layerId = "230F8D9C-4AAC-4C97-935A-A5529CE4A32C";
paths = (
{
closed = 1;
nodes = (
"127 15 LINE",
"145 -5 OFFCURVE",
"174 -15 OFFCURVE",
"202 -15 CURVE SMOOTH",
"324 -15 OFFCURVE",
"449 175 OFFCURVE",
"449 322 CURVE SMOOTH",
"449 405 OFFCURVE",
"409 455 OFFCURVE",
"348 455 CURVE SMOOTH",
"276 455 OFFCURVE",
"200 385 OFFCURVE",
"149 290 CURVE",
"62 -15 LINE"
);
},
{
closed = 1;
nodes = (
"153 15 OFFCURVE",
"136 69 OFFCURVE",
"136 124 CURVE SMOOTH",
"136 259 OFFCURVE",
"241 395 OFFCURVE",
"319 395 CURVE SMOOTH",
"362 395 OFFCURVE",
"379 352 OFFCURVE",
"379 295 CURVE SMOOTH",
"379 174 OFFCURVE",
"303 15 OFFCURVE",
"208 15 CURVE SMOOTH"
);
},
{
closed = 1;
nodes = (
"149 290 LINE",
"147 290 LINE",
"178 658 OFFCURVE",
"193 718 OFFCURVE",
"213 718 CURVE SMOOTH",
"236 718 OFFCURVE",
"248 658 OFFCURVE",
"241 593 CURVE",
"263 593 LINE",
"283 658 OFFCURVE",
"291 751 OFFCURVE",
"245 790 CURVE",
"96 721 OFFCURVE",
"99 339 OFFCURVE",
"62 -15 CURVE"
);
}
);
width = 489;
}
);
leftKerningGroup = l;
leftMetricsKey = "=hhook";
rightKerningGroup = o;
rightMetricsKey = "=b";
unicode = 0253;
},
{
color = 6;
glyphname = bidentalpercussive;
layers = (
{
layerId = "230F8D9C-4AAC-4C97-935A-A5529CE4A32C";
paths = (
{
closed = 1;
nodes = (
"52 284 LINE",
"75 284 LINE",
"83 334 OFFCURVE",
"102 384 OFFCURVE",
"162 384 CURVE SMOOTH",
"192 384 LINE",
"233 384 LINE",
"261 384 LINE SMOOTH",
"322 384 OFFCURVE",
"336 334 OFFCURVE",
"335 284 CURVE",
"358 284 LINE",
"369 440 LINE",
"63 440 LINE"
);
},
{
closed = 1;
nodes = (
"33 0 LINE",
"56 0 LINE",
"63 50 OFFCURVE",
"83 100 OFFCURVE",
"143 100 CURVE SMOOTH",
"173 100 LINE",
"214 100 LINE",
"242 100 LINE SMOOTH",
"303 100 OFFCURVE",
"316 50 OFFCURVE",
"316 0 CURVE",
"339 0 LINE",
"350 156 LINE",
"44 156 LINE"
);
}
);
width = 391;
}
);
leftKerningGroup = n;
leftMetricsKey = "=n";
rightKerningGroup = n;
rightMetricsKey = "=n";
unicode = 02AD;
},
{
color = 3;
glyphname = bilabialclick;
layers = (
{
components = (
{
name = O;
}
);
layerId = "230F8D9C-4AAC-4C97-935A-A5529CE4A32C";
paths = (
{
closed = 1;
nodes = (
"394 295 OFFCURVE",
"417 317 OFFCURVE",
"417 345 CURVE SMOOTH",
"417 370 OFFCURVE",
"398 389 OFFCURVE",
"373 389 CURVE SMOOTH",
"345 389 OFFCURVE",
"323 367 OFFCURVE",
"323 339 CURVE SMOOTH",
"323 315 OFFCURVE",
"341 295 OFFCURVE",
"367 295 CURVE SMOOTH"
);
}
);
width = 744;
}
);
leftKerningGroup = O;
leftMetricsKey = "=O";
rightKerningGroup = O;
rightMetricsKey = "=O";
unicode = 0298;
},
{
color = 6;
glyphname = bilabialpercussive;
layers = (
{
anchors = (
{
name = bottom;
position = "{306.66, -265.15}";
},
{
name = top;
position = "{335.7, 67.6}";
}
);
layerId = "230F8D9C-4AAC-4C97-935A-A5529CE4A32C";
paths = (
{
closed = 1;
nodes = (
"202.35 363.05 OFFCURVE",
"266.48 415.08 OFFCURVE",
"305.2 494.94 CURVE",
"305.2 494.94 LINE",
"308.83 423.55 OFFCURVE",
"349.97 349.74 OFFCURVE",
"386.27 349.74 CURVE SMOOTH",
"435.88 349.74 OFFCURVE",
"541.15 497.36 OFFCURVE",
"541.15 615.94 CURVE SMOOTH",
"541.15 651.03 OFFCURVE",
"531.47 682.49 OFFCURVE",
"506.06 682.49 CURVE SMOOTH",
"478.23 682.49 OFFCURVE",
"429.83 638.93 OFFCURVE",
"400.79 607.47 CURVE",
"411.68 596.58 LINE",
"429.83 613.52 OFFCURVE",
"451.61 626.83 OFFCURVE",
"467.34 626.83 CURVE SMOOTH",
"484.28 626.83 OFFCURVE",
"486.7 606.26 OFFCURVE",
"486.7 586.9 CURVE SMOOTH",
"486.7 499.78 OFFCURVE",
"446.77 412.66 OFFCURVE",
"408.05 412.66 CURVE SMOOTH",
"374.17 412.66 OFFCURVE",
"358.44 481.63 OFFCURVE",
"358.44 557.86 CURVE SMOOTH",
"358.44 594.16 OFFCURVE",
"362.07 632.88 OFFCURVE",
"368.12 672.81 CURVE",
"348.76 674.02 OFFCURVE",
"318.51 666.76 OFFCURVE",
"305.2 661.92 CURVE",
"306.41 582.06 OFFCURVE",
"293.1 530.03 OFFCURVE",
"268.9 485.26 CURVE SMOOTH",
"242.28 436.86 OFFCURVE",
"204.77 412.66 OFFCURVE",
"190.25 412.66 CURVE SMOOTH",
"182.99 412.66 OFFCURVE",
"176.94 419.92 OFFCURVE",
"176.94 440.49 CURVE SMOOTH",
"176.94 479.21 OFFCURVE",
"197.51 574.8 OFFCURVE",
"197.51 620.78 CURVE SMOOTH",
"197.51 638.93 OFFCURVE",
"193.88 660.71 OFFCURVE",
"187.83 672.81 CURVE",
"153.95 655.87 OFFCURVE",
"87.4 605.05 OFFCURVE",
"63.2 576.01 CURVE",
"74.09 566.33 LINE",
"98.29 591.74 OFFCURVE",
"122.49 597.79 OFFCURVE",
"129.75 597.79 CURVE SMOOTH",
"137.01 597.79 OFFCURVE",
"139.43 592.95 OFFCURVE",
"139.43 583.27 CURVE SMOOTH",
"139.43 555.44 OFFCURVE",
"118.86 452.59 OFFCURVE",
"118.86 413.87 CURVE SMOOTH",
"118.86 382.41 OFFCURVE",
"130.96 361.84 OFFCURVE",
"150.32 349.74 CURVE"
);
},
{
closed = 1;
nodes = (
"172.35 1.05 OFFCURVE",
"236.48 53.08 OFFCURVE",
"275.2 132.94 CURVE",
"275.2 132.94 LINE",
"278.83 61.55 OFFCURVE",
"319.97 -12.26 OFFCURVE",
"356.27 -12.26 CURVE SMOOTH",
"405.88 -12.26 OFFCURVE",
"511.15 135.36 OFFCURVE",
"511.15 253.94 CURVE SMOOTH",
"511.15 289.03 OFFCURVE",
"501.47 320.49 OFFCURVE",
"476.06 320.49 CURVE SMOOTH",
"448.23 320.49 OFFCURVE",
"399.83 276.93 OFFCURVE",
"370.79 245.47 CURVE",
"381.68 234.58 LINE",
"399.83 251.52 OFFCURVE",
"421.61 264.83 OFFCURVE",
"437.34 264.83 CURVE SMOOTH",
"454.28 264.83 OFFCURVE",
"456.7 244.26 OFFCURVE",
"456.7 224.9 CURVE SMOOTH",
"456.7 137.78 OFFCURVE",
"416.77 50.66 OFFCURVE",
"378.05 50.66 CURVE SMOOTH",
"344.17 50.66 OFFCURVE",
"328.44 119.63 OFFCURVE",
"328.44 195.86 CURVE SMOOTH",
"328.44 232.16 OFFCURVE",
"332.07 270.88 OFFCURVE",
"338.12 310.81 CURVE",
"318.76 312.02 OFFCURVE",
"288.51 304.76 OFFCURVE",
"275.2 299.92 CURVE",
"276.41 220.06 OFFCURVE",
"263.1 168.03 OFFCURVE",
"238.9 123.26 CURVE SMOOTH",
"212.28 74.86 OFFCURVE",
"174.77 50.66 OFFCURVE",
"160.25 50.66 CURVE SMOOTH",
"152.99 50.66 OFFCURVE",
"146.94 57.92 OFFCURVE",
"146.94 78.49 CURVE SMOOTH",
"146.94 117.21 OFFCURVE",
"167.51 212.8 OFFCURVE",
"167.51 258.78 CURVE SMOOTH",
"167.51 276.93 OFFCURVE",
"163.88 298.71 OFFCURVE",
"157.83 310.81 CURVE",
"123.95 293.87 OFFCURVE",
"57.4 243.05 OFFCURVE",
"33.2 214.01 CURVE",
"44.09 204.33 LINE",
"68.29 229.74 OFFCURVE",
"92.49 235.79 OFFCURVE",
"99.75 235.79 CURVE SMOOTH",
"107.01 235.79 OFFCURVE",
"109.43 230.95 OFFCURVE",
"109.43 221.27 CURVE SMOOTH",
"109.43 193.44 OFFCURVE",
"88.86 90.59 OFFCURVE",
"88.86 51.87 CURVE SMOOTH",
"88.86 20.41 OFFCURVE",
"100.96 -0.16 OFFCURVE",
"120.32 -12.26 CURVE"
);
}
);
width = 574;
}
);
leftKerningGroup = H;
leftMetricsKey = "=w";
rightKerningGroup = H;
rightMetricsKey = "=w";
unicode = 02AC;
},
{
color = 6;
glyphname = c;
layers = (
{
anchors = (
{
name = bottom;
position = "{141, 0}";
},
{
name = ogonek;
position = "{156, 0}";
},
{
name = top;
position = "{251, 440}";
}
);
guideLines = (
{
angle = -20.8545;
position = "{306, 173}";
}
);
layerId = "230F8D9C-4AAC-4C97-935A-A5529CE4A32C";
paths = (
{
closed = 1;
nodes = (
"219 -15 OFFCURVE",
"298 40 OFFCURVE",
"362 152 CURVE",
"341 160 LINE",
"285 81 OFFCURVE",
"227 50 OFFCURVE",
"184 50 CURVE SMOOTH",
"136 50 OFFCURVE",
"110 90 OFFCURVE",
"110 161 CURVE SMOOTH",
"110 282 OFFCURVE",
"185 420 OFFCURVE",
"271 420 CURVE SMOOTH",
"312 420 OFFCURVE",
"339 389 OFFCURVE",
"295 297 CURVE",
"316 289 LINE",
"383 405 LINE",
"360 435 OFFCURVE",
"332 455 OFFCURVE",
"291 455 CURVE SMOOTH",
"175 455 OFFCURVE",
"40 297 OFFCURVE",
"40 130 CURVE SMOOTH",
"40 25 OFFCURVE",
"93 -15 OFFCURVE",
"151 -15 CURVE SMOOTH"
);
}
);
width = 391;
},
{
associatedMasterId = "230F8D9C-4AAC-4C97-935A-A5529CE4A32C";
layerId = "80628BE6-A8FB-480E-92B8-7C52D39AD99C";
width = 600;
}
);
leftKerningGroup = o;
leftMetricsKey = "=o";
rightKerningGroup = o;
unicode = 0063;
},
{
color = 6;
glyphname = ccurl;
layers = (
{
anchors = (
{
name = bottom;
position = "{141, 0}";
},
{
name = ogonek;
position = "{156, 0}";
},
{
name = top;
position = "{251, 440}";
}
);
layerId = "230F8D9C-4AAC-4C97-935A-A5529CE4A32C";
paths = (
{
closed = 1;
nodes = (
"219 -15 OFFCURVE",
"312 41 OFFCURVE",
"312 139 CURVE",
"312 178 OFFCURVE",
"290 196 OFFCURVE",
"259 196 CURVE",
"167 196 OFFCURVE",
"119 67 OFFCURVE",
"109 -105 CURVE",
"132 -105 LINE",
"142 44 OFFCURVE",
"197 161 OFFCURVE",
"241 161 CURVE",
"256 161 OFFCURVE",
"266 153 OFFCURVE",
"266 130 CURVE",
"266 93 OFFCURVE",
"228 40 OFFCURVE",
"180 40 CURVE SMOOTH",
"138 40 OFFCURVE",
"110 80 OFFCURVE",
"110 158 CURVE SMOOTH",
"110 288 OFFCURVE",
"188 420 OFFCURVE",
"271 420 CURVE SMOOTH",
"312 420 OFFCURVE",
"339 389 OFFCURVE",
"295 297 CURVE",
"316 289 LINE",
"383 405 LINE",
"360 435 OFFCURVE",
"332 455 OFFCURVE",
"291 455 CURVE SMOOTH",
"175 455 OFFCURVE",
"40 297 OFFCURVE",
"40 130 CURVE SMOOTH",
"40 25 OFFCURVE",
"93 -15 OFFCURVE",
"151 -15 CURVE SMOOTH"
);
}
);
width = 391;
}
);
leftKerningGroup = o;
leftMetricsKey = "=c";
rightKerningGroup = o;
rightMetricsKey = "=c";
unicode = 0255;
},
{
color = 6;
glyphname = chook;
layers = (
{
anchors = (
{
name = bottom;
position = "{141, 0}";
},
{
name = ogonek;
position = "{156, 0}";
},
{
name = top;
position = "{251, 440}";
}
);
layerId = "230F8D9C-4AAC-4C97-935A-A5529CE4A32C";
paths = (
{
closed = 1;
nodes = (
"397 566 OFFCURVE",
"363 501 OFFCURVE",
"340 413 CURVE",
"363 427 LINE",
"343 448 OFFCURVE",
"321 455 OFFCURVE",
"291 455 CURVE SMOOTH",
"175 455 OFFCURVE",
"40 297 OFFCURVE",
"40 130 CURVE SMOOTH",
"40 25 OFFCURVE",
"93 -15 OFFCURVE",
"151 -15 CURVE SMOOTH",
"219 -15 OFFCURVE",
"298 40 OFFCURVE",
"362 152 CURVE",
"341 160 LINE",
"285 81 OFFCURVE",
"227 50 OFFCURVE",
"184 50 CURVE SMOOTH",
"136 50 OFFCURVE",
"110 90 OFFCURVE",
"110 161 CURVE SMOOTH",
"110 282 OFFCURVE",
"185 420 OFFCURVE",
"271 420 CURVE SMOOTH",
"312 420 OFFCURVE",
"339 389 OFFCURVE",
"295 297 CURVE",
"316 289 LINE",
"383 405 LINE",
"392 490 OFFCURVE",
"403 518 OFFCURVE",
"425 518 CURVE SMOOTH",
"440 518 OFFCURVE",
"449 495 OFFCURVE",
"445 440 CURVE",
"467 440 LINE",
"484 495 OFFCURVE",
"495 551 OFFCURVE",
"449 590 CURVE"
);
}
);
width = 391;
}
);
leftKerningGroup = o;
leftMetricsKey = "=c";
unicode = 0188;
},
{
color = 6;
glyphname = d;
layers = (
{
anchors = (
{
name = bottom;
position = "{185, 0}";
},
{
name = center;
position = "{255, 220}";
},
{
name = ogonek;
position = "{366, 0}";
},
{
name = top;
position = "{256, 750}";
},
{
name = topright;
position = "{512, 560}";
}
);
layerId = "230F8D9C-4AAC-4C97-935A-A5529CE4A32C";
paths = (
{
closed = 1;
nodes = (
"212 -15 OFFCURVE",
"287 55 OFFCURVE",
"338 150 CURVE",
"340 150 LINE",
"337 120 OFFCURVE",
"335 90 OFFCURVE",
"335 64 CURVE SMOOTH",
"335 30 OFFCURVE",
"341 3 OFFCURVE",
"355 -15 CURVE",
"399 6 OFFCURVE",
"456 49 OFFCURVE",
"494 92 CURVE",
"477 108 LINE",
"452 83 OFFCURVE",
"430 66 OFFCURVE",
"417 66 CURVE SMOOTH",
"404 66 OFFCURVE",
"400 84 OFFCURVE",
"400 99 CURVE SMOOTH",
"400 259 OFFCURVE",
"448 554 OFFCURVE",
"448 711 CURVE SMOOTH",
"448 744 OFFCURVE",
"444 773 OFFCURVE",
"436 790 CURVE",
"386 766 OFFCURVE",
"318 689 OFFCURVE",
"283 644 CURVE",
"300 628 LINE",
"334 666 OFFCURVE",
"361 696 OFFCURVE",
"374 696 CURVE SMOOTH",
"380 696 OFFCURVE",
"383 691 OFFCURVE",
"383 676 CURVE SMOOTH",
"383 613 OFFCURVE",
"376 515 OFFCURVE",
"365 420 CURVE",
"350 436 OFFCURVE",
"326 455 OFFCURVE",
"287 455 CURVE SMOOTH",
"165 455 OFFCURVE",
"40 265 OFFCURVE",
"40 118 CURVE SMOOTH",
"40 35 OFFCURVE",
"79 -15 OFFCURVE",
"140 -15 CURVE SMOOTH"
);
},
{
closed = 1;
nodes = (
"126 45 OFFCURVE",
"110 88 OFFCURVE",
"110 145 CURVE SMOOTH",
"110 268 OFFCURVE",
"185 425 OFFCURVE",
"280 425 CURVE SMOOTH",
"335 425 OFFCURVE",
"353 371 OFFCURVE",
"353 315 CURVE SMOOTH",
"353 182 OFFCURVE",
"248 45 OFFCURVE",
"170 45 CURVE SMOOTH"
);
}
);
width = 507;
},
{
associatedMasterId = "230F8D9C-4AAC-4C97-935A-A5529CE4A32C";
layerId = "80628BE6-A8FB-480E-92B8-7C52D39AD99C";
width = 600;
}
);
leftKerningGroup = o;
leftMetricsKey = "=o";
rightKerningGroup = l;
rightMetricsKey = "=l";
unicode = 0064;
},
{
color = 6;
glyphname = eth;
layers = (
{
anchors = (
{
name = bottom;
position = "{229, 0}";
},
{
name = center;
position = "{229, 220}";
},
{
name = ogonek;
position = "{423, 10}";
},
{
name = top;
position = "{299, 440}";
},
{
name = topright;
position = "{451, 440}";
}
);
layerId = "230F8D9C-4AAC-4C97-935A-A5529CE4A32C";
paths = (
{
closed = 1;
nodes = (
"313 790 LINE",
"141 629 LINE",
"160 610 LINE",
"332 771 LINE"
);
},
{
closed = 1;
nodes = (
"119 765 LINE",
"271 693 OFFCURVE",
"338 530 OFFCURVE",
"349 414 CURVE",
"347 414 LINE",
"337 420 OFFCURVE",
"320 425 OFFCURVE",
"295 425 CURVE SMOOTH",
"161 425 OFFCURVE",
"40 286 OFFCURVE",
"40 136 CURVE SMOOTH",
"40 36 OFFCURVE",
"100 -15 OFFCURVE",
"174 -15 CURVE SMOOTH",
"267 -15 OFFCURVE",
"418 77 OFFCURVE",
"418 317 CURVE SMOOTH",
"418 475 OFFCURVE",
"355 702 OFFCURVE",
"129 790 CURVE"
);
},
{
closed = 1;
nodes = (
"330 385 OFFCURVE",
"365 328 OFFCURVE",
"365 251 CURVE SMOOTH",
"365 133 OFFCURVE",
"283 35 OFFCURVE",
"203 35 CURVE SMOOTH",
"143 35 OFFCURVE",
"110 91 OFFCURVE",
"110 171 CURVE SMOOTH",
"110 288 OFFCURVE",
"181 385 OFFCURVE",
"266 385 CURVE SMOOTH"
);
}
);
width = 458;
},
{
associatedMasterId = "230F8D9C-4AAC-4C97-935A-A5529CE4A32C";
layerId = "80628BE6-A8FB-480E-92B8-7C52D39AD99C";
width = 600;
}
);
leftKerningGroup = o;
leftMetricsKey = "=o";
rightKerningGroup = O;
rightMetricsKey = "=o";
unicode = 00F0;
},
{
color = 6;
glyphname = dezh;
layers = (
{
layerId = "230F8D9C-4AAC-4C97-935A-A5529CE4A32C";
paths = (
{
closed = 1;
nodes = (
"713 327 OFFCURVE",
"779 367 OFFCURVE",
"797 455 CURVE",
"774 455 LINE",
"767 440 OFFCURVE",
"752 426 OFFCURVE",
"714 426 CURVE SMOOTH",
"612 426 OFFCURVE",
"480 468 OFFCURVE",
"430 445 CURVE",
"440 557 OFFCURVE",
"448 651 OFFCURVE",
"448 711 CURVE SMOOTH",
"448 744 OFFCURVE",
"444 773 OFFCURVE",
"436 790 CURVE",
"386 766 OFFCURVE",
"318 689 OFFCURVE",
"283 644 CURVE",
"300 628 LINE",
"334 666 OFFCURVE",
"361 696 OFFCURVE",
"374 696 CURVE SMOOTH",
"380 696 OFFCURVE",
"383 691 OFFCURVE",
"383 676 CURVE SMOOTH",
"383 613 OFFCURVE",
"376 515 OFFCURVE",
"365 420 CURVE",
"350 436 OFFCURVE",
"326 455 OFFCURVE",
"287 455 CURVE SMOOTH",
"165 455 OFFCURVE",
"40 265 OFFCURVE",
"40 118 CURVE SMOOTH",
"40 35 OFFCURVE",
"79 -15 OFFCURVE",
"140 -15 CURVE SMOOTH",
"212 -15 OFFCURVE",
"287 55 OFFCURVE",
"338 150 CURVE",
"340 150 LINE",
"337 120 OFFCURVE",
"327 11 OFFCURVE",
"327 -15 CURVE",
"348 -7 OFFCURVE",
"369 -2 OFFCURVE",
"392 0 CURVE",
"392 78 OFFCURVE",
"406 211 OFFCURVE",
"419 346 CURVE SMOOTH",
"423 383 OFFCURVE",
"436 395 OFFCURVE",
"460 395 CURVE SMOOTH",
"548 395 OFFCURVE",
"604 359 OFFCURVE",
"715 375 CURVE",
"715 373 LINE",
"653 294 OFFCURVE",
"577 255 OFFCURVE",
"519 141 CURVE",
"540 133 LINE",
"554 143 OFFCURVE",
"567 147 OFFCURVE",
"578 147 CURVE SMOOTH",
"614 147 OFFCURVE",
"670 126 OFFCURVE",
"670 21 CURVE SMOOTH",
"670 -86 OFFCURVE",
"605 -185 OFFCURVE",
"515 -185 CURVE SMOOTH",
"481 -185 OFFCURVE",
"452 -167 OFFCURVE",
"452 -128 CURVE SMOOTH",
"452 -116 OFFCURVE",
"455 -99 OFFCURVE",
"464 -80 CURVE",
"443 -72 LINE",
"387 -170 LINE",
"404 -195 OFFCURVE",
"450 -220 OFFCURVE",
"499 -220 CURVE SMOOTH",
"619 -220 OFFCURVE",
"740 -104 OFFCURVE",
"740 46 CURVE SMOOTH",
"740 176 OFFCURVE",
"663 207 OFFCURVE",
"604 208 CURVE"
);
},
{
closed = 1;
nodes = (
"126 45 OFFCURVE",
"110 88 OFFCURVE",
"110 145 CURVE SMOOTH",
"110 268 OFFCURVE",
"185 425 OFFCURVE",
"280 425 CURVE SMOOTH",
"335 425 OFFCURVE",
"353 371 OFFCURVE",
"353 315 CURVE SMOOTH",
"353 182 OFFCURVE",
"248 45 OFFCURVE",
"170 45 CURVE SMOOTH"
);
}
);
width = 812;
}
);
leftKerningGroup = o;
leftMetricsKey = "=d";
rightKerningGroup = n;
rightMetricsKey = "=ezh";
unicode = 02A4;
},
{
color = 6;
glyphname = dhook;
layers = (
{
anchors = (
{
name = bottom;
position = "{185, 0}";
},
{
name = center;
position = "{255, 220}";
},
{
name = ogonek;
position = "{366, 0}";
},
{
name = top;
position = "{256, 750}";
},
{
name = topright;
position = "{512, 560}";
}
);
layerId = "230F8D9C-4AAC-4C97-935A-A5529CE4A32C";
paths = (
{
closed = 1;
nodes = (
"451 759 OFFCURVE",
"392 648 OFFCURVE",
"365 420 CURVE",
"350 436 OFFCURVE",
"326 455 OFFCURVE",
"287 455 CURVE SMOOTH",
"165 455 OFFCURVE",
"40 265 OFFCURVE",
"40 118 CURVE SMOOTH",
"40 35 OFFCURVE",
"79 -15 OFFCURVE",
"140 -15 CURVE SMOOTH",
"212 -15 OFFCURVE",
"287 55 OFFCURVE",
"338 150 CURVE",
"340 150 LINE",
"337 120 OFFCURVE",
"335 90 OFFCURVE",
"335 64 CURVE SMOOTH",
"335 30 OFFCURVE",
"341 3 OFFCURVE",
"355 -15 CURVE",
"399 6 OFFCURVE",
"456 49 OFFCURVE",
"494 92 CURVE",
"477 108 LINE",
"452 83 OFFCURVE",
"430 66 OFFCURVE",
"417 66 CURVE SMOOTH",
"404 66 OFFCURVE",
"400 84 OFFCURVE",
"400 99 CURVE SMOOTH",
"400 153 OFFCURVE",
"407 282 OFFCURVE",
"420 408 CURVE SMOOTH",
"436 565 OFFCURVE",
"461 718 OFFCURVE",
"492 718 CURVE SMOOTH",
"504 718 OFFCURVE",
"516 657 OFFCURVE",
"508 593 CURVE",
"530 593 LINE",
"550 658 OFFCURVE",
"561 751 OFFCURVE",
"515 790 CURVE"
);
},
{
closed = 1;
nodes = (
"126 45 OFFCURVE",
"110 88 OFFCURVE",
"110 145 CURVE SMOOTH",
"110 268 OFFCURVE",
"185 425 OFFCURVE",
"280 425 CURVE SMOOTH",
"335 425 OFFCURVE",
"353 371 OFFCURVE",
"353 315 CURVE SMOOTH",
"353 182 OFFCURVE",
"248 45 OFFCURVE",
"170 45 CURVE SMOOTH"
);
}
);
width = 507;
}
);
leftKerningGroup = o;
leftMetricsKey = "=d";
rightKerningGroup = l;
unicode = 0257;
},
{
color = 6;
glyphname = dtail;
layers = (
{
anchors = (
{
name = bottom;
position = "{185, 0}";
},
{
name = center;
position = "{255, 220}";
},
{
name = ogonek;
position = "{366, 0}";
},
{
name = top;
position = "{256, 750}";
},
{
name = topright;
position = "{512, 560}";
}
);
layerId = "230F8D9C-4AAC-4C97-935A-A5529CE4A32C";
paths = (
{
closed = 1;
nodes = (
"387 -211 OFFCURVE",
"456 -156 OFFCURVE",
"491 -111 CURVE",
"475 -95 LINE",
"440 -133 OFFCURVE",
"412 -154 OFFCURVE",
"399 -154 CURVE SMOOTH",
"386 -154 OFFCURVE",
"382 -136 OFFCURVE",
"382 -121 CURVE SMOOTH",
"382 40 OFFCURVE",
"448 617 OFFCURVE",
"448 711 CURVE SMOOTH",
"448 744 OFFCURVE",
"444 773 OFFCURVE",
"436 790 CURVE",
"386 766 OFFCURVE",
"318 689 OFFCURVE",
"283 644 CURVE",
"300 628 LINE",
"334 666 OFFCURVE",
"361 696 OFFCURVE",
"374 696 CURVE SMOOTH",
"380 696 OFFCURVE",
"383 691 OFFCURVE",
"383 676 CURVE SMOOTH",
"383 613 OFFCURVE",
"376 515 OFFCURVE",
"365 420 CURVE",
"350 436 OFFCURVE",
"326 455 OFFCURVE",
"287 455 CURVE SMOOTH",
"165 455 OFFCURVE",
"40 265 OFFCURVE",
"40 118 CURVE SMOOTH",
"40 35 OFFCURVE",
"79 -15 OFFCURVE",
"140 -15 CURVE SMOOTH",
"212 -15 OFFCURVE",
"287 55 OFFCURVE",
"338 150 CURVE",
"340 150 LINE",
"324 13 OFFCURVE",
"317 -74 OFFCURVE",
"317 -156 CURVE SMOOTH",
"317 -190 OFFCURVE",
"323 -217 OFFCURVE",
"337 -235 CURVE"
);
},
{
closed = 1;
nodes = (
"126 45 OFFCURVE",
"110 88 OFFCURVE",
"110 145 CURVE SMOOTH",
"110 268 OFFCURVE",
"185 425 OFFCURVE",
"280 425 CURVE SMOOTH",
"335 425 OFFCURVE",
"353 371 OFFCURVE",
"353 315 CURVE SMOOTH",
"353 182 OFFCURVE",
"248 45 OFFCURVE",
"170 45 CURVE SMOOTH"
);
}
);
width = 504;
}
);
leftKerningGroup = o;
leftMetricsKey = "=o";
rightKerningGroup = l;
rightMetricsKey = "=l";
unicode = 0256;
},
{
color = 6;
glyphname = dzaltone;
layers = (
{
anchors = (
{
name = bottom;
position = "{185, 0}";
},
{
name = center;
position = "{255, 220}";
},
{
name = ogonek;
position = "{366, 0}";
},
{
name = top;
position = "{256, 750}";
},
{
name = topright;
position = "{512, 560}";
}
);
layerId = "230F8D9C-4AAC-4C97-935A-A5529CE4A32C";
paths = (
{
closed = 1;
nodes = (
"212 -15 OFFCURVE",
"287 55 OFFCURVE",
"338 150 CURVE",
"340 150 LINE",
"337 120 OFFCURVE",
"327 11 OFFCURVE",
"327 -15 CURVE",
"348 -7 OFFCURVE",
"369 -2 OFFCURVE",
"392 0 CURVE",
"392 78 OFFCURVE",
"406 211 OFFCURVE",
"419 346 CURVE SMOOTH",
"423 383 OFFCURVE",
"436 395 OFFCURVE",
"460 395 CURVE SMOOTH",
"548 395 OFFCURVE",
"604 359 OFFCURVE",
"715 375 CURVE",
"715 373 LINE",
"630 248 OFFCURVE",
"457 120 OFFCURVE",
"437 0 CURVE",
"462 0 LINE",
"466 22 OFFCURVE",
"481 46 OFFCURVE",
"515 46 CURVE SMOOTH",
"558 46 OFFCURVE",
"642 -15 OFFCURVE",
"723 -15 CURVE SMOOTH",
"765 -15 OFFCURVE",
"776 16 OFFCURVE",
"776 53 CURVE SMOOTH",
"776 75 OFFCURVE",
"772 99 OFFCURVE",
"767 120 CURVE",
"744 120 LINE",
"750 85 OFFCURVE",
"740 55 OFFCURVE",
"708 55 CURVE SMOOTH",
"668 55 OFFCURVE",
"606 94 OFFCURVE",
"552 94 CURVE SMOOTH",
"544 94 OFFCURVE",
"529 93 OFFCURVE",
"521 90 CURVE",
"521 92 LINE",
"599 213 OFFCURVE",
"774 340 OFFCURVE",
"797 455 CURVE",
"774 455 LINE",
"767 440 OFFCURVE",
"752 426 OFFCURVE",
"714 426 CURVE SMOOTH",
"612 426 OFFCURVE",
"480 468 OFFCURVE",
"430 445 CURVE",
"440 557 OFFCURVE",
"448 651 OFFCURVE",
"448 711 CURVE SMOOTH",
"448 744 OFFCURVE",
"444 773 OFFCURVE",
"436 790 CURVE",
"386 766 OFFCURVE",
"318 689 OFFCURVE",
"283 644 CURVE",
"300 628 LINE",
"334 666 OFFCURVE",
"361 696 OFFCURVE",
"374 696 CURVE SMOOTH",
"380 696 OFFCURVE",
"383 691 OFFCURVE",
"383 676 CURVE SMOOTH",
"383 613 OFFCURVE",
"376 515 OFFCURVE",
"365 420 CURVE",
"350 436 OFFCURVE",
"326 455 OFFCURVE",
"287 455 CURVE SMOOTH",
"165 455 OFFCURVE",
"40 265 OFFCURVE",
"40 118 CURVE SMOOTH",
"40 35 OFFCURVE",
"79 -15 OFFCURVE",
"140 -15 CURVE SMOOTH"
);
},
{
closed = 1;
nodes = (
"126 45 OFFCURVE",
"110 88 OFFCURVE",
"110 145 CURVE SMOOTH",
"110 268 OFFCURVE",
"185 425 OFFCURVE",
"280 425 CURVE SMOOTH",
"335 425 OFFCURVE",
"353 371 OFFCURVE",
"353 315 CURVE SMOOTH",
"353 182 OFFCURVE",
"248 45 OFFCURVE",
"170 45 CURVE SMOOTH"
);
}
);
width = 810;
}
);
leftKerningGroup = o;
leftMetricsKey = "=d";
rightKerningGroup = n;
rightMetricsKey = "=z";
unicode = 02A3;
},
